<svg width="16" height="16" viewBox="0 0 16 16" fill="none" xmlns="http://www.w3.org/2000/svg">
<g clip-path="url(#clip0_59_99)">
<path d="M8 2H14V8H11C9.34315 8 8 6.65685 8 5V2Z" fill="#67B1E6"/>
<path fill-rule="evenodd" clip-rule="evenodd" d="M2 5.5V11L3.53553 9.46447C4.47322 8.52679 5 7.25502 5 5.92894V3.01483C4.65542 3.22382 4.32755 3.4634 4.02061 3.73197L2 5.5Z" fill="#4795CC"/>
<path fill-rule="evenodd" clip-rule="evenodd" d="M4.99998 14H10.0976L10.2644 13.8252L10.2723 13.839L13 11H8.07105C6.74496 11 5.47319 11.5268 4.53551 12.4645L3.43811 13.5619C3.89306 13.8398 4.42781 14 4.99998 14Z" fill="#89CBFA"/>
<path fill-rule="evenodd" clip-rule="evenodd" d="M15 1L16 0V8.91172C16 10.4652 15.3974 11.9582 14.319 13.0765L11.5 16L9.89026 15H10.4881C10.8226 14.6577 11.1847 14.3152 11.5534 13.9666C13.2108 12.3992 15 10.7072 15 8.34315V1Z" fill="#BBBBBB"/>
<path fill-rule="evenodd" clip-rule="evenodd" d="M1 5.08333L0 4.66666V11C0 13.7614 2.23857 16 5 16L11.5 16L10.7708 14.7165C10.6748 14.8111 10.5804 14.9056 10.4882 15H4.99998C2.80069 15 1 13.2137 1 11V5.08333Z" fill="#D9D9D9"/>
<path fill-rule="evenodd" clip-rule="evenodd" d="M2.89725 2.2807C4.68766 0.80624 6.93493 0 9.25432 0H16L15 1H7.95491C6.26403 1.1528 4.65355 1.84938 3.36211 2.97939L1 5.04624V5.08333L0 4.66667L2.89725 2.2807Z" fill="#F3F3F3"/>
<path d="M7.99609 1.99609C7.99609 1.99609 6.0605 2.16189 5.00537 3.0127C4.98828 3.77344 5.04457 6.50049 4.92188 6.78125C6.9085 5.81884 7.44436 5.94324 8.1713 5.99297C7.98566 5.678 7.99609 1.99609 7.99609 1.99609Z" fill="#48A1E0"/>
<path d="M3.4389 13.5594C3.4389 13.5594 2.02818 12.826 1.97656 10.9805C2.41887 10.5556 3.24513 9.77139 3.81641 9.16797C4.39453 11.2266 5.14844 11.2734 5.61328 11.6445C4.8125 12.1289 3.4389 13.5594 3.4389 13.5594Z" fill="#48A1E0"/>
<path d="M12.994 11C14.2109 9.57833 13.9995 8.19068 13.9995 8.00069C13.9995 8.00069 10.9649 8.02856 9.99609 7.82422C9.875 9.54226 8.8465 11 8.8465 11H12.994Z" fill="#48A1E0"/>
<path fill-rule="evenodd" clip-rule="evenodd" d="M5.61339 11.6445C6.61876 11.0888 7.61521 11 8.8466 11C8.8466 11 9.89062 9.53445 10.0117 7.81641C10.0463 7.8237 8.65718 7.40697 8.16826 5.99274C7.44317 5.94281 6.90005 5.80565 4.9179 6.76562C4.74922 8.13671 3.73701 9.25161 3.81651 9.16796C4.28481 10.8355 4.86845 11.183 5.32036 11.4521C5.42634 11.5152 5.52508 11.574 5.61339 11.6445Z" fill="#2794E0"/>
<path fill-rule="evenodd" clip-rule="evenodd" d="M3.82843 11.7574L3.39372 12.1921C3.21774 11.9554 3.09316 11.6788 3.03572 11.3785L4.20066 10.2136C4.33903 10.5335 4.52911 10.7982 4.7381 11.0109C4.41349 11.2277 4.10853 11.4773 3.82843 11.7574ZM8.54214 11C8.56603 11.0011 8.58981 11.0024 8.61347 11.0039C8.61502 11.0026 8.61657 11.0013 8.61811 11H12.9902C13.4925 10.4347 13.8224 9.7405 13.9457 9C13.9816 8.78431 14 8.56467 14 8.34315V8H11C10.6263 8 10.2686 7.93167 9.93859 7.80683C8.86893 7.33628 8.45367 6.66559 8.21277 6.11182C8.0755 5.76799 8.05859 5.42015 8.05859 5.02734L8 2.00391C6.95445 2.09839 5.89453 2.38672 5 3.01483V5.92894C5 6.73466 4.80553 7.52033 4.44257 8.22319C4.31188 8.4684 4.16261 8.69869 3.99823 8.93132C3.85756 9.11865 3.70311 9.29689 3.53553 9.46447L2 11C2 12.0847 2.57566 13.0349 3.43814 13.5619C4.26217 12.7378 5.29696 11.7135 6.13087 11.3918C6.38327 11.2944 6.67801 11.2083 6.99162 11.1414L7.00804 11.1517C7.01137 11.1464 7.01467 11.1411 7.01795 11.1358C7.36076 11.064 7.72519 11.0153 8.08086 11H8.54214ZM5.32808 8.68786C5.33848 8.66829 5.3488 8.64862 5.35903 8.62883L5.3785 8.63494C5.51158 8.67677 5.66804 8.72721 5.82849 8.77954C5.57195 8.95816 5.28309 9.1679 4.99873 9.39234C4.99243 9.35281 4.98723 9.31229 4.98322 9.27076C5.1093 9.08275 5.22439 8.88811 5.32808 8.68786ZM5.4513 10.3115C5.78746 10.0361 6.14896 9.77339 6.46083 9.55796C6.43524 9.80599 6.39109 10.0489 6.32281 10.2603C6.1305 10.3189 5.94135 10.3871 5.75609 10.4646C5.72703 10.4759 5.69824 10.4874 5.66973 10.4991C5.59653 10.4469 5.52246 10.3845 5.4513 10.3115ZM5.7374 7.69959C5.75081 7.6555 5.76382 7.61078 5.77641 7.5654C5.87752 7.4932 6.00969 7.40771 6.1681 7.32384C6.19196 7.51679 6.223 7.6998 6.25668 7.86746C6.07755 7.80873 5.89546 7.74966 5.7374 7.69959ZM7.13849 6.99018C7.1629 7.27815 7.21027 7.55361 7.26281 7.79276L7.80455 7.40644C7.69622 7.26281 7.59734 7.11165 7.50886 6.95388C7.38112 6.95783 7.25752 6.97054 7.13849 6.99018ZM7.12149 5.98225C6.69237 6.0364 6.31034 6.15856 5.9885 6.30038C5.99615 6.17707 6 6.0532 6 5.92894V3.60719C6.32133 3.45048 6.65602 3.32281 7 3.22569V5C7 5.33892 7.04215 5.66799 7.12149 5.98225ZM8.88386 8.39504C8.75429 8.3141 8.62968 8.22596 8.51061 8.13116L7.95389 8.52817L8.80844 8.7539C8.84055 8.62713 8.86511 8.50607 8.88386 8.39504ZM8.43144 9.68861C8.36603 9.79688 8.29322 9.89993 8.21234 9.99571C8.16161 9.99655 8.1108 9.99799 8.05998 10C7.83966 10.0004 7.62059 10.0129 7.40369 10.0372C7.441 9.82555 7.46236 9.62009 7.47457 9.43585L8.43144 9.68861ZM9.81939 8.82292C10.1926 8.93803 10.589 9 11 9H12.9272C12.8473 9.35631 12.7028 9.69531 12.501 10H9.40294C9.6126 9.5982 9.74091 9.18284 9.81939 8.82292Z" fill="black" fill-opacity="0.2"/>
</g>
<defs>
<clipPath id="clip0_59_99">
<rect width="16" height="16" fill="white"/>
</clipPath>
</defs>
</svg>
