<svg width="24" height="24" viewBox="0 0 24 24" fill="none" xmlns="http://www.w3.org/2000/svg">
<g clip-path="url(#clip0_70_46)">
<path fill-rule="evenodd" clip-rule="evenodd" d="M7.87109 10.0312C7.65292 11.2474 7.37416 12.0567 6.79412 13.1478C6.72207 15.5032 7.56005 17.341 9.5631 17.4121C10.4757 16.8558 11.7227 16.3282 13.2628 16.1082C15.2231 14.4609 15.2352 11.5074 15.2343 11.3395C14.1273 10.7621 13.2229 9.84957 12.6557 8.73642C9.89584 8.31325 8.0487 9.86542 7.87109 10.0312Z" fill="#2794E0"/>
<path fill-rule="evenodd" clip-rule="evenodd" d="M12.0877 0C9.76826 0 7.52099 0.806243 5.73058 2.2807L0 7L2 8L6.75306 3.92595C8.20301 2.68314 10.0497 2 11.9594 2H22L24 0H12.0877Z" fill="#F3F3F3"/>
<path fill-rule="evenodd" clip-rule="evenodd" d="M24 0L22 2V11.8606C22 14.4879 20.8519 16.9841 18.8571 18.6939L15 22L16 24L20.585 19.9881C22.7552 18.0892 24 15.3459 24 12.4623V0Z" fill="#BBBBBB"/>
<path fill-rule="evenodd" clip-rule="evenodd" d="M2 8L0 7V18C0 21.3137 2.6863 24 6 24H15.9881L15 22H6C3.79086 22 2 20.2091 2 18V8Z" fill="#D9D9D9"/>
<path fill-rule="evenodd" clip-rule="evenodd" d="M5.29842 20.9431C6.55096 19.8288 8.80574 17.8075 9.53554 17.4237C6.89752 17.1586 6.85833 14.5434 6.84328 13.5386C6.83965 13.2967 6.83743 13.1482 6.80069 13.1482C6.04591 14.7039 4.76274 15.7778 3.4445 16.8811C3.28943 17.0109 3.13387 17.141 2.97864 17.2725C2.98494 17.5486 2.99254 17.8248 3.00164 18.1011C3.0448 19.4126 4.056 20.6104 5.29842 20.9431Z" fill="#48A1E0"/>
<path fill-rule="evenodd" clip-rule="evenodd" d="M8.01335 4.20516C8.01011 6.38083 7.99003 9.22227 7.8656 10.1339C7.8656 10.1339 9.7554 8.28575 12.668 8.7383C11.9588 7.55813 11.984 5.42653 12.005 3.64781C12.0076 3.42551 12.0101 3.20873 12.0112 3H12.0082L12.008 2.37823C12.0079 2.37589 12.0079 2.37355 12.0078 2.37122C12.0079 3 12.0082 3 12.0082 3H11.9695L11.9352 2.99737L11.9301 2.99706C11.9225 2.99665 11.9078 2.99593 11.8866 2.99525C11.8442 2.99391 11.7757 2.99276 11.685 2.99456C11.5032 2.99817 11.2345 3.01355 10.9082 3.06199C10.2524 3.15933 9.3869 3.38667 8.52652 3.90025L8.4924 3.92062L8.45677 3.93822C8.31133 4.01004 8.16376 4.10033 8.01335 4.20516ZM9.47123 2.37852C9.00676 2.53122 8.511 2.74429 8.01397 3.04098V3.0416C8.51034 2.7453 9.00619 2.5319 9.47123 2.37852Z" fill="#48A1E0"/>
<path fill-rule="evenodd" clip-rule="evenodd" d="M21 12C21 12.7995 20.8483 13.5942 20.6051 14.3557C20.4201 14.9351 20.1546 15.4912 19.8392 16.011L13.2629 16.1082C15.281 14.4123 15.2344 11.332 15.2344 11.332C17.2246 12.3286 18.2344 11.8672 21 12Z" fill="#48A1E0"/>
<path fill-rule="evenodd" clip-rule="evenodd" d="M21 11.9719V12.3828C20.9566 13.0378 20.8088 13.6947 20.6378 14.2513C20.7535 13.8646 20.8577 13.4272 20.924 12.9711C20.3199 12.9639 19.8092 12.9666 19.3655 12.9707L19.0632 12.9738C18.5274 12.9794 18.0666 12.9842 17.6611 12.9678C16.7446 12.9307 16.0678 12.7823 15.1532 12.3747C15.0359 13.1161 14.7756 14.1305 14.1992 15.0372C15.0488 14.9935 16.0845 14.9874 17.109 14.9907C17.5643 14.9922 18.019 14.9955 18.4611 14.9988C19.142 15.0038 19.7938 15.0086 20.3709 15.006C20.1719 15.4258 20.038 15.6827 19.8419 16.0065C19.3972 16.0057 18.9226 16.0022 18.4368 15.9987C16.6149 15.9852 14.6344 15.9706 13.4821 16.0934C13.4087 16.1012 13.3356 16.1101 13.2629 16.12L13.2578 16.1243C11.7177 16.3443 10.5219 16.9665 9.60936 17.5228L9.60385 17.5226C8.24648 18.3603 6.99871 19.4491 5.79805 20.4967C5.63495 20.639 5.47261 20.7807 5.3111 20.9208C5.25422 20.9074 5.198 20.8924 5.14248 20.8759L4.80549 20.74C3.8143 20.34 3.17902 19.4433 3.02339 18.4043C3.01656 18.3587 3.01144 18.3178 3.00761 18.2824L3.00164 18.1011C2.9929 17.8353 2.98553 17.5697 2.97937 17.3041C2.9924 17.2931 3.00543 17.2822 3.01846 17.2712C5.00042 15.6074 6.86686 14.0406 7.69202 10.8225C8.03433 9.48747 8.01203 8.07432 7.98448 6.32857C7.97426 5.68103 7.96332 4.98774 7.97 4.2357C8.13542 4.11779 8.29737 4.01691 8.45675 3.9382L8.49238 3.92061L8.5265 3.90024C8.67753 3.81009 8.82871 3.72876 8.97889 3.6554C8.9577 4.61824 8.97129 5.47799 8.98409 6.28774C8.99027 6.67925 8.99628 7.0592 8.99808 7.43335C9.00118 8.08023 8.99152 8.7076 8.94167 9.3222C9.57632 8.99739 10.465 8.67801 11.542 8.64147C11.1457 7.6813 11.0425 6.68151 11.0187 5.70786C11.007 5.23144 11.0145 4.73508 11.0219 4.24462C11.0236 4.13353 11.0252 4.02266 11.0267 3.91247C11.0304 3.62606 11.0328 3.33883 11.0305 3.04906C10.9862 3.05466 10.9407 3.06086 10.894 3.06775C10.5965 3.11156 10.2565 3.1819 9.89375 3.29317C10.2622 3.17868 10.6073 3.10664 10.9082 3.06197C11.2345 3.01354 11.5032 2.99815 11.685 2.99455C11.7757 2.99275 11.8442 2.9939 11.8866 2.99524C11.9078 2.99591 11.9224 2.99663 11.9301 2.99705L11.9352 2.99735L11.9695 2.99998H12.0082H12.0301C12.0342 3.43508 12.0278 3.85749 12.0217 4.26755C11.9963 5.96169 11.974 7.4451 12.6992 8.74152C13.1381 9.60301 13.7156 10.3051 14.4675 10.8462C14.704 11.0153 14.9561 11.1678 15.2238 11.3044C16.6561 11.9987 17.2576 11.9925 19.0469 11.9739C19.5765 11.9683 20.2101 11.9618 21 11.9719ZM9.37267 16.4948C9.71166 16.2965 10.0605 16.1115 10.4198 15.9446C10.2409 15.1703 10.2492 14.4499 10.3065 13.9068L10.3097 13.8774C10.2211 13.9238 10.1282 13.9743 10.0318 14.0292C9.4446 14.3635 8.75188 14.8462 8.18184 15.4879C8.21496 15.5576 8.24993 15.6239 8.28663 15.6866C8.54834 16.134 8.89466 16.408 9.37267 16.4948ZM11.3604 15.5605C11.8274 15.3963 12.3111 15.2659 12.8126 15.1782C13.1368 14.8588 13.3914 14.4821 13.5904 14.0841C12.7586 13.9213 12.1268 13.784 11.6817 13.6818C11.5603 13.6539 11.4528 13.6286 11.3589 13.6061C11.3377 13.7229 11.3171 13.8593 11.301 14.0117C11.2558 14.4399 11.2481 14.9826 11.3604 15.5605ZM14.2113 11.8793C14.0955 11.806 13.9829 11.7298 13.8735 11.6508C13.6996 11.5258 13.5327 11.3931 13.373 11.2527C13.3017 11.3126 13.2222 11.3814 13.1351 11.4593C12.8156 11.7449 12.3944 12.1542 11.9055 12.7071C12.3704 12.8139 13.0496 12.9611 13.9593 13.1371C13.9813 13.0628 14.0018 12.9886 14.0209 12.9149C14.1229 12.5217 14.1798 12.1609 14.2113 11.8793ZM8.3397 17.1562C7.59453 16.6985 7.128 15.8487 6.91882 14.7999C5.94592 16.1299 4.76664 17.1159 3.63159 18.065C3.43688 18.2278 3.24347 18.3895 3.05263 18.5516C3.15616 19.0789 3.44459 19.9252 4.2961 20.475C4.55335 20.2545 4.81808 20.0237 5.08901 19.7875C6.00864 18.9856 6.99996 18.1211 8.01166 17.3887C8.11991 17.3103 8.22925 17.2327 8.3397 17.1562ZM7.86071 14.3849C7.81395 14.0828 7.78931 13.7533 7.78983 13.4003C7.90387 13.178 8.00667 12.9644 8.09997 12.7545C8.62276 12.8227 9.17917 12.9557 9.6591 13.0918C9.61902 13.1139 9.57833 13.1367 9.5371 13.1601C9.02745 13.4502 8.4227 13.8542 7.86071 14.3849ZM12.6744 10.5339C12.4469 10.2601 12.2393 9.96468 12.0518 9.64723C11.4952 9.61382 10.9893 9.67456 10.544 9.78379C10.5502 9.92506 10.5644 10.0995 10.5933 10.3023C10.6596 10.769 10.8037 11.3871 11.108 12.0995C11.6438 11.489 12.1099 11.0345 12.4685 10.7138C12.5417 10.6483 12.6105 10.5884 12.6744 10.5339ZM9.56604 10.1297C9.27773 10.2647 9.04274 10.4061 8.86918 10.5233C8.83852 10.544 8.80989 10.5639 8.78335 10.5828C8.69419 11.0202 8.59268 11.4152 8.46841 11.7977C9.03373 11.8877 9.59792 12.0317 10.0562 12.1655C9.80248 11.5005 9.67007 10.9132 9.60322 10.4431C9.5874 10.3319 9.57526 10.2272 9.56604 10.1297Z" fill="black" fill-opacity="0.2"/>
<path fill-rule="evenodd" clip-rule="evenodd" d="M19.8459 16H14.6993C12.3121 16 10.0038 16.8539 8.19134 18.4074L5.31049 20.9206C5.5313 20.9725 5.76203 21 6.00001 21H14.6301L18.2063 17.9346C18.8594 17.3748 19.4104 16.7203 19.8459 16Z" fill="#89CBFA"/>
<path fill-rule="evenodd" clip-rule="evenodd" d="M2.97937 17.3034L4.50791 15.9932C6.72437 14.0934 7.99999 11.3199 7.99999 8.40064V4.21448C7.80647 4.35031 7.60825 4.50998 7.40384 4.68518L2.99936 8.46045C2.99139 11.4465 2.91143 14.3714 2.97937 17.3034Z" fill="#4795CC"/>
<path fill-rule="evenodd" clip-rule="evenodd" d="M12 2.99997V5.99999C12 9.31369 14.6863 12 18 12H21V2.99997L12.0082 2.99997H12Z" fill="#67B1E6"/>
</g>
<defs>
<clipPath id="clip0_70_46">
<rect width="24" height="24" fill="white"/>
</clipPath>
</defs>
</svg>
