<svg width="24" height="24" viewBox="0 0 24 24" fill="none" xmlns="http://www.w3.org/2000/svg">
<g clip-path="url(#clip0_38_17)">
<path fill-rule="evenodd" clip-rule="evenodd" d="M7.87109 10.0312C7.65292 11.2474 7.37416 12.0567 6.79412 13.1478C6.72207 15.5032 7.56005 17.341 9.5631 17.4121C10.4757 16.8558 11.7227 16.3282 13.2628 16.1082C15.2231 14.4609 15.2352 11.5074 15.2343 11.3395C14.1273 10.7621 13.2229 9.84957 12.6557 8.73642C9.89584 8.31325 8.0487 9.86542 7.87109 10.0312Z" fill="#2794E0"/>
<path d="M8 2V8.40065C8 11.3199 6.72437 14.0934 4.50791 15.9932L1 19L1.5 7L8 2Z" fill="#4795CC"/>
<path fill-rule="evenodd" clip-rule="evenodd" d="M12.0877 0C9.76826 0 7.52099 0.806243 5.73058 2.2807L0 7L2 8L6.75306 3.92595C8.20301 2.68314 10.0497 2 11.9594 2H22L24 0H12.0877Z" fill="#F3F3F3"/>
<path d="M11.9959 2.00728C11.9959 2.00728 10.0152 1.84638 8.01397 3.04097C8.01397 5.21505 7.8656 10.1339 7.8656 10.1339C7.8656 10.1339 9.7554 8.28573 12.668 8.73828C11.7177 7.15689 12.0546 3.89109 11.9959 2.00728Z" fill="#48A1E0"/>
<path d="M14.6992 16H21L18.6913 20.4074L13.8087 23.5926H7.80872L3.5 22.5L8.19133 18.4074C10.0038 16.8539 12.3121 16 14.6992 16Z" fill="#89CBFA"/>
<path d="M22 12H18C14.6863 12 12 9.31371 12 6V2H22V12Z" fill="#67B1E6"/>
<path fill-rule="evenodd" clip-rule="evenodd" d="M24 0L22 2V11.8606C22 14.4879 20.8519 16.9841 18.8571 18.6939L15 22L16 24L20.585 19.9881C22.7552 18.0892 24 15.3459 24 12.4623V0Z" fill="#BBBBBB"/>
<path fill-rule="evenodd" clip-rule="evenodd" d="M2 8L0 7V18C0 21.3137 2.6863 24 6 24H15.9881L15 22H6C3.79086 22 2 20.2091 2 18V8Z" fill="#D9D9D9"/>
<path d="M6.04843 2.66666C7.74932 1.26593 9.88423 0.5 12.0877 0.5H23.5V12.4623C23.5 15.2018 22.3174 17.8079 20.2558 19.6118L15.8121 23.5H15H6C2.96243 23.5 0.5 21.0376 0.5 18V7.23596L6.04843 2.66666Z" stroke="#666666"/>
<path d="M4.43134 21.6673C1.9964 20.6849 1.9964 18.1394 1.9964 18.1394C1.9964 18.1394 4.46829 16.2344 6.79688 13.1602C6.79688 13.1602 6.5019 17.2392 9.53557 17.4238L4.43134 21.6673Z" fill="#48A1E0"/>
<path d="M20.9998 15.9938C21.1369 15.8431 22.0129 13.9174 22.0129 12.0038C17.0512 12.0566 16.9203 11.9357 15.2344 11.332C15.2344 11.332 15.281 14.4123 13.2629 16.1082L20.9998 15.9938Z" fill="#48A1E0"/>
<path fill-rule="evenodd" clip-rule="evenodd" d="M7.99609 3.0462C9.99731 1.85162 11.9995 2.00657 11.9995 2.00657C12.0437 2.79903 12.0324 3.5521 12.0217 4.26758C11.9963 5.96172 11.9741 7.4451 12.6992 8.74152C13.1381 9.60301 13.7157 10.3051 14.4675 10.8462C14.704 11.0153 14.9561 11.1678 15.2239 11.3044C16.6561 11.9987 17.2576 11.9925 19.047 11.9739C19.783 11.9662 20.72 11.9565 21.9985 11.9925C21.9985 12.125 21.9946 12.2572 21.9873 12.3885C21.976 12.5919 21.9566 12.7934 21.9307 12.991C21.7321 14.5088 21.1557 15.7984 21.0034 15.9993C20.2819 16.0123 19.3806 16.0056 18.4368 15.9987C16.6149 15.9852 14.6344 15.9706 13.4821 16.0934C13.4087 16.1012 13.3356 16.1101 13.2629 16.12C13.2612 16.1215 13.2595 16.1229 13.2578 16.1243C11.7177 16.3443 10.5219 16.9665 9.60938 17.5228C9.60754 17.5227 9.6057 17.5226 9.60387 17.5226C8.24649 18.3603 6.99871 19.4491 5.79803 20.4968C5.33792 20.8982 4.88473 21.2937 4.43494 21.6666C2 20.6842 2 18.1387 2 18.1387C2.33979 17.841 2.68081 17.5547 3.01848 17.2712C5.00044 15.6074 6.86688 14.0406 7.69204 10.8225C8.03435 9.48747 8.01205 8.07432 7.9845 6.32857C7.9691 5.35309 7.95207 4.27377 7.99609 3.0462ZM10.4198 15.9446C10.0605 16.1115 9.71167 16.2965 9.37269 16.4948C8.89468 16.408 8.54836 16.134 8.28665 15.6866C8.24994 15.6239 8.21498 15.5576 8.18186 15.4879C8.7519 14.8462 9.44462 14.3635 10.0318 14.0292C10.1282 13.9743 10.2212 13.9238 10.3097 13.8774L10.3065 13.9068C10.2493 14.4499 10.2409 15.1703 10.4198 15.9446ZM12.8126 15.1782C12.3111 15.2659 11.8274 15.3963 11.3604 15.5605C11.2481 14.9826 11.2559 14.4399 11.301 14.0117C11.3171 13.8593 11.3377 13.7229 11.3589 13.6061C11.4528 13.6286 11.5603 13.6539 11.6817 13.6818C12.1268 13.784 12.7587 13.9212 13.5904 14.0841C13.3914 14.4821 13.1368 14.8588 12.8126 15.1782ZM14.1992 15.0372C15.0489 14.9935 16.0845 14.9874 17.109 14.9907C17.5643 14.9922 18.019 14.9955 18.4611 14.9988L18.4614 14.9988L18.4619 14.9988C19.1447 15.0038 19.7974 15.0086 20.3757 15.0059C20.4504 14.8201 20.5338 14.59 20.6147 14.3275C20.7395 13.9225 20.8533 13.4574 20.924 12.9711C20.3199 12.9639 19.8092 12.9666 19.3655 12.9707L19.0633 12.9738C18.5274 12.9794 18.0666 12.9842 17.6611 12.9678C16.7446 12.9307 16.0678 12.7823 15.1532 12.3747C15.0359 13.1161 14.7756 14.1305 14.1992 15.0372ZM13.8735 11.6508C13.9829 11.7298 14.0955 11.806 14.2114 11.8793C14.1799 12.1609 14.1229 12.5217 14.0209 12.9149C14.0018 12.9886 13.9813 13.0628 13.9593 13.1371C13.0496 12.9611 12.3704 12.8139 11.9055 12.7071L11.9054 12.7071C12.3944 12.1542 12.8156 11.7449 13.1351 11.4593C13.2222 11.3813 13.3017 11.3126 13.3731 11.2527C13.5327 11.3931 13.6996 11.5258 13.8735 11.6508ZM11.5421 8.64147C11.1457 7.6813 11.0425 6.68151 11.0187 5.70786C11.0071 5.23144 11.0145 4.73508 11.0219 4.24462V4.24455C11.0236 4.13345 11.0253 4.02266 11.0267 3.91247C11.0304 3.62606 11.0328 3.33883 11.0305 3.04906C10.9862 3.05466 10.9407 3.06086 10.894 3.06775C10.3558 3.14702 9.67807 3.31315 8.97899 3.65144C8.95768 4.61588 8.97129 5.47688 8.98411 6.28774L8.98411 6.2878C8.99029 6.67933 8.9963 7.05918 8.9981 7.43335C9.0012 8.08023 8.99154 8.7076 8.94169 9.3222C9.57634 8.99739 10.465 8.67801 11.5421 8.64147ZM6.91884 14.7999C7.12802 15.8487 7.59455 16.6985 8.33971 17.1562C8.22926 17.2327 8.11993 17.3103 8.01168 17.3887C6.99997 18.1212 6.00899 18.9853 5.08936 19.7872C4.81832 20.0235 4.55347 20.2544 4.29612 20.475C3.72689 20.1075 3.41373 19.614 3.23255 19.1621C3.1427 18.938 3.08697 18.7264 3.05265 18.5516C3.24349 18.3895 3.4369 18.2278 3.63161 18.065C4.76666 17.1159 5.94594 16.1299 6.91884 14.7999ZM7.78985 13.4003C7.78933 13.7533 7.81397 14.0828 7.86073 14.3849C8.42272 13.8542 9.02747 13.4502 9.53712 13.1601C9.57835 13.1367 9.61904 13.1139 9.65912 13.0918C9.17919 12.9557 8.62278 12.8227 8.09999 12.7545C8.00669 12.9644 7.90389 13.178 7.78985 13.4003ZM12.0519 9.64723C12.2393 9.96468 12.4469 10.2601 12.6744 10.5339C12.6105 10.5884 12.5417 10.6483 12.4685 10.7138C12.1099 11.0345 11.6438 11.489 11.108 12.0995C10.8037 11.3871 10.6597 10.769 10.5933 10.3023C10.5644 10.0995 10.5502 9.92506 10.544 9.78379C10.9894 9.67456 11.4952 9.61382 12.0519 9.64723ZM8.86919 10.5233C9.04276 10.4061 9.27775 10.2647 9.56606 10.1297C9.57528 10.2272 9.58742 10.3319 9.60324 10.4431C9.67009 10.9132 9.8025 11.5005 10.0563 12.1655C9.59794 12.0317 9.03375 11.8877 8.46843 11.7977C8.5927 11.4152 8.6942 11.0202 8.78337 10.5828C8.80991 10.5639 8.83853 10.544 8.86919 10.5233Z" fill="black" fill-opacity="0.2"/>
</g>
<defs>
<clipPath id="clip0_38_17">
<rect width="24" height="24" fill="white"/>
</clipPath>
</defs>
</svg>
