<svg width="16" height="16" viewBox="0 0 16 16" fill="none" xmlns="http://www.w3.org/2000/svg">
<g clip-path="url(#clip0_542_1462)">
<path d="M12 7C12 6.34339 11.8707 5.69321 11.6194 5.08658C11.3681 4.47995 10.9998 3.92876 10.5355 3.46447C10.0712 3.00017 9.52004 2.63188 8.91342 2.3806C8.30679 2.12933 7.65661 2 7 2L7 7L12 7Z" fill="#89CBFA"/>
<path d="M7 0.00577742L7 1.00579C10.3 1.00579 12.99 3.70579 13 7.00579L11 7.00579L13.5 11.0058L16 7.00579L14 7.00579C13.99 3.14579 10.86 0.00577759 7 0.00577742C7 0.0257704 7 -0.0142316 7 0.00577742Z" fill="#D9D9D9"/>
</g>
<defs>
<clipPath id="clip0_542_1462">
<rect width="16" height="16" fill="white"/>
</clipPath>
</defs>
</svg>
