<svg width="16" height="16" viewBox="0 0 16 16" fill="none" xmlns="http://www.w3.org/2000/svg">
<g clip-path="url(#clip0_542_1453)">
<path d="M8 12C9.32608 12 10.5979 11.4732 11.5355 10.5355C12.4732 9.59785 13 8.32608 13 7C13 5.67392 12.4732 4.40215 11.5355 3.46447C10.5979 2.52678 9.32608 2 8 2L8 7L8 12Z" fill="#67B1E6"/>
<path d="M8 6.11959e-07L8 1C11.31 0.999999 14 3.69 14 7C14 10.3 11.3 12.99 7.99998 13L7.99998 11L3.99998 13.5L7.99998 16L7.99998 14C11.86 13.99 15 10.86 15 7C15 3.13 11.87 2.73633e-07 8 6.11959e-07Z" fill="#666666"/>
</g>
<defs>
<clipPath id="clip0_542_1453">
<rect width="16" height="16" fill="white"/>
</clipPath>
</defs>
</svg>
