<svg width="16" height="16" viewBox="0 0 16 16" fill="none" xmlns="http://www.w3.org/2000/svg">
<g clip-path="url(#clip0_14040_9541)">
<path d="M11 13.9999H16C15.0515 11.3732 12.2664 7.49618 6.41939 8.94771C7.98338 10.0706 10.9774 11.5981 11 13.9999Z" fill="#E69963"/>
<path d="M9.61561 10.6167C10.4778 11.3657 11.2725 12.3139 11.459 13.4999H15.256C14.7557 12.4046 13.9451 11.21 12.7539 10.3499C11.539 9.47259 9.89591 8.91877 7.70091 9.21021C8.31653 9.61956 9.01473 10.0948 9.61561 10.6167Z" stroke="black" stroke-opacity="0.2"/>
<path d="M6 14H0C1.84999 10.2368 7 7.5 13.5 9.99999C8.5 9.5 6.99791 12.3508 6 14Z" fill="#F7B688"/>
<path d="M7.94641 10.7962C6.84724 11.6327 6.19233 12.7072 5.71708 13.5H0.854995C2.5061 10.9175 5.9298 9.00679 10.3509 9.66882C9.37712 9.90379 8.59153 10.3052 7.94641 10.7962Z" stroke="black" stroke-opacity="0.2"/>
<path d="M5.18254 11.256L1.06152 3.3694C1.06152 3.3694 3.87676 0.371094 8.37676 0.371094C12.8768 0.371094 14.6214 2.60296 15.1825 3.25602C15.7437 3.90909 16.3431 4.94812 15.7637 7.24598C15.1842 9.54383 13.7056 10.423 12.825 10.5074C11.9444 10.5918 11.6825 9.75602 9.18254 9.75602C6.68254 9.75602 5.18254 11.256 5.18254 11.256Z" fill="#67B1E6"/>
<path fill-rule="evenodd" clip-rule="evenodd" d="M15.9871 5.9138C15.9602 6.30408 15.8899 6.74513 15.7636 7.24598C15.1841 9.54383 13.7055 10.423 12.8249 10.5074C12.4764 10.5408 12.2248 10.4301 11.8931 10.2841C11.3865 10.0612 10.6931 9.75602 9.18245 9.75602C6.92079 9.75602 5.47755 10.9836 5.22292 11.2177L3.14929 7.07047C3.14929 7.07047 4.99997 3.5 9.49997 3.5C12.5562 3.5 14.7306 4.84572 15.9871 5.9138Z" fill="#89CBFA"/>
<path fill-rule="evenodd" clip-rule="evenodd" d="M4.23364 9.35846L5.18243 11.256C5.18243 11.256 6.68243 9.75604 9.18243 9.75604C10.6931 9.75604 11.3865 10.0612 11.8931 10.2841C12.2248 10.4301 12.4764 10.5408 12.8249 10.5074C13.5292 10.4399 14.6159 9.86407 15.3193 8.46072C14.2894 7.69082 12.7628 7.00002 10.5 7.00002C7.64514 7.00002 5.45412 8.36234 4.23364 9.35846Z" fill="#4795CC"/>
<path d="M5.03947 10.5902C5.00546 10.6104 4.97329 10.6296 4.94319 10.6474C4.62228 9.94484 3.94201 8.45734 3.27257 6.99376L2.06582 4.35574L1.67126 3.49331L1.66932 3.48906C1.73342 3.43074 1.81016 3.363 1.89915 3.2879C2.21556 3.02084 2.685 2.6622 3.28982 2.30307C4.50059 1.58415 6.24015 0.871094 8.37671 0.871094C10.5388 0.871094 12.0108 1.40579 12.9999 1.9977C13.9259 2.55181 14.4497 3.16697 14.7437 3.51209C14.7647 3.53677 14.7845 3.56008 14.8033 3.58188C15.051 3.87017 15.2906 4.22262 15.414 4.74848C15.5389 5.28037 15.5543 6.03107 15.2788 7.12372C14.7421 9.25199 13.4132 9.94874 12.7772 10.0097C12.6496 10.0219 12.5546 10.0038 12.4327 9.95783C12.3643 9.93202 12.291 9.89875 12.1937 9.85346C12.1839 9.84893 12.174 9.84429 12.1638 9.83955C12.0765 9.79885 11.9739 9.75102 11.8595 9.70274C11.3231 9.47632 10.5659 9.25602 9.18249 9.25602C7.74515 9.25602 6.56873 9.74883 5.75371 10.1824C5.48403 10.3258 5.23215 10.4756 5.03947 10.5902Z" stroke="black" stroke-opacity="0.2"/>
<path fill-rule="evenodd" clip-rule="evenodd" d="M1.06213 3.37519L1.39081 4H2.50567L2.2965 3.60786C2.58002 3.37808 3.1221 2.96861 3.62139 2.67728C4.74541 2.02142 6.37115 1.37109 8.40203 1.37109C10.4761 1.37109 11.859 1.88251 12.7685 2.42675C13.5361 2.88612 14.0008 3.38666 14.2964 3.72893L15.0054 3.01995C14.2751 2.18381 12.4575 0.371094 8.40203 0.371094C3.90203 0.371094 1.06213 3.37519 1.06213 3.37519Z" fill="#CC2929"/>
<path d="M5.31438 6.08687C6.55702 8.23919 6.59505 10.5436 5.39932 11.234C4.20358 11.9243 2.22689 10.7392 0.984253 8.58687C-0.258388 6.43456 -0.296415 4.13011 0.899316 3.43976C2.09505 2.7494 4.07174 3.93456 5.31438 6.08687Z" fill="#F3F3F3"/>
<path fill-rule="evenodd" clip-rule="evenodd" d="M5.27137 9.22516C5.2593 8.4936 5.00106 7.54419 4.44835 6.58687C3.89565 5.62956 3.20255 4.93121 2.57504 4.55497C1.91428 4.15881 1.53986 4.22464 1.39932 4.30578C1.25878 4.38693 1.01455 4.67827 1.02726 5.44858C1.03933 6.18014 1.29757 7.12956 1.85028 8.08687C2.40299 9.04419 3.09608 9.74254 3.7236 10.1188C4.38435 10.5149 4.75878 10.4491 4.89932 10.368C5.03986 10.2868 5.28409 9.99547 5.27137 9.22516ZM5.39932 11.234C6.59505 10.5436 6.55702 8.23919 5.31438 6.08687C4.07174 3.93456 2.09505 2.7494 0.899316 3.43976C-0.296415 4.13011 -0.258388 6.43456 0.984253 8.58687C2.22689 10.7392 4.20358 11.9243 5.39932 11.234Z" fill="#666666"/>
</g>
<defs>
<clipPath id="clip0_14040_9541">
<rect width="16" height="16" fill="white"/>
</clipPath>
</defs>
</svg>
