<svg width="16" height="16" viewBox="0 0 16 16" fill="none" xmlns="http://www.w3.org/2000/svg">
<g clip-path="url(#clip0_75_39)">
<path d="M4.91801 6.31572C5.93316 8.074 5.96422 9.95656 4.9874 10.5205C4.01057 11.0845 2.39576 10.1163 1.38061 8.35804C0.365465 6.59975 0.3344 4.71719 1.31123 4.15322C2.28805 3.58925 3.90286 4.55743 4.91801 6.31572Z" fill="#D9D9D9"/>
<path fill-rule="evenodd" clip-rule="evenodd" d="M6.69432 9.13992C6.87282 9.262 7.06422 9.38877 7.26351 9.52077C8.86681 10.5827 10.981 11.9831 11 13.9999H16C15.0668 11.4156 12.3557 7.62096 6.69996 8.88162C6.70072 8.96671 6.69894 9.05299 6.69432 9.13992Z" fill="#E69963"/>
<path fill-rule="evenodd" clip-rule="evenodd" d="M2.46861 11.0304C1.38899 11.8564 0.549123 12.883 0 14H6C6.03781 13.9375 6.07635 13.8733 6.11577 13.8076C7.11677 12.1396 8.68946 9.51894 13.5 9.99998C10.9918 9.03529 8.68459 8.85037 6.69046 9.20329C6.63335 10.0324 6.3141 10.9093 5.4874 11.3866C4.54166 11.9326 3.47507 11.642 2.68415 11.1678C2.61185 11.1244 2.53997 11.0786 2.46861 11.0304Z" fill="#FFD2B2"/>
<path fill-rule="evenodd" clip-rule="evenodd" d="M1.39473 3.0536C2.17583 2.8658 2.98301 3.12736 3.61447 3.50596C4.43862 4.00009 5.20785 4.81773 5.78404 5.81572C6.36022 6.8137 6.6837 7.88869 6.69956 8.84949C6.70819 9.3728 6.62121 9.94343 6.37147 10.4389C7.0528 10.0876 8.00713 9.75602 9.18248 9.75602C10.6931 9.75602 11.3866 10.0612 11.8931 10.2841C12.2249 10.4301 12.4765 10.5408 12.825 10.5074C13.7055 10.423 15.1841 9.54383 15.7636 7.24598C16.3431 4.94812 15.7436 3.90909 15.1825 3.25602C15.1638 3.2343 15.1438 3.21082 15.1225 3.18574C14.5022 2.45693 12.727 0.371094 8.37671 0.371094C4.7829 0.371094 2.26363 2.28341 1.39473 3.0536Z" fill="#89CBFA"/>
<path fill-rule="evenodd" clip-rule="evenodd" d="M6.37148 10.4389C6.62121 9.94342 6.70819 9.3728 6.69956 8.84949C6.6837 7.88869 6.36022 6.8137 5.78404 5.81572C5.59125 5.48179 5.37684 5.16805 5.146 4.87987C6.16218 4.14104 7.59326 3.5 9.5 3.5C12.5563 3.5 14.7307 4.84572 15.9871 5.9138C15.9602 6.30408 15.8899 6.74513 15.7636 7.24598C15.1841 9.54383 13.7055 10.423 12.825 10.5074C12.4765 10.5408 12.2249 10.4301 11.8931 10.2841C11.3866 10.0612 10.6931 9.75602 9.18248 9.75602C8.00713 9.75602 7.05281 10.0876 6.37148 10.4389Z" fill="#B2DFFF"/>
<path fill-rule="evenodd" clip-rule="evenodd" d="M6.37148 10.4389C6.62121 9.94342 6.70819 9.37279 6.69955 8.84949C6.69438 8.53641 6.65655 8.2112 6.58796 7.88048C7.67817 7.37756 8.9971 7 10.5 7C12.7629 7 14.2894 7.69081 15.3194 8.4607C14.616 9.86406 13.5292 10.4399 12.8249 10.5074C12.4765 10.5408 12.2249 10.4301 11.8931 10.2841C11.3865 10.0612 10.6931 9.75602 9.18247 9.75602C8.00712 9.75602 7.0528 10.0876 6.37148 10.4389Z" fill="#67B1E6"/>
<path fill-rule="evenodd" clip-rule="evenodd" d="M2.88373 3.16158C3.11564 2.99531 3.37379 2.82177 3.62142 2.67728C4.74544 2.02142 6.37118 1.37109 8.40206 1.37109C10.4761 1.37109 11.8591 1.88251 12.7685 2.42675C13.5362 2.88612 14.0009 3.38666 14.2964 3.72893L15.0054 3.01995C14.2751 2.18381 12.4576 0.371094 8.40206 0.371094C4.82087 0.371094 2.29107 2.27368 1.4073 3.05062C1.9068 2.93364 2.41652 2.99957 2.88373 3.16158Z" fill="#E67373"/>
</g>
<defs>
<clipPath id="clip0_75_39">
<rect width="16" height="16" fill="white"/>
</clipPath>
</defs>
</svg>
