<svg width="16" height="16" viewBox="0 0 16 16" fill="none" xmlns="http://www.w3.org/2000/svg">
<path d="M4 0L0 4H4L8 0H4Z" fill="#F3F3F3"/>
<path d="M16 11.88L12 16V12L16 8V12" fill="#BBBBBB"/>
<path d="M0 16H12V12L4 4H0V16Z" fill="#D9D9D9"/>
<path d="M15.77 6.81L9.25 0.169998L5.41 4L12 10.59L15.77 6.81Z" fill="#67B1E6"/>
<path opacity="0.1" fill-rule="evenodd" clip-rule="evenodd" d="M12 10.59L15.77 6.81L9.25 0.169998L5.41 4L12 10.59ZM14.37 6.81L12 9.17L6.83 4L9.24 1.59L14.37 6.81Z" fill="black"/>
<path d="M15 9V12L12 15H1V4L4 1H6H7L8 0H3.59L0 3.59V16H12.41L16 12.41V12V8L15 9Z" fill="#666666"/>
</svg>
