<svg width="16" height="16" viewBox="0 0 16 16" fill="none" xmlns="http://www.w3.org/2000/svg">
<circle cx="8" cy="8" r="7" fill="white"/>
<path d="M6 6C6 6.64 6 7.3 6 8C6 8.7 6 9.33 6 10C6.64 10 7.3 10 8 10C8.7 10 9.33 10 10 10C10 9.36 10 8.7 10 8C10 7.3 10 6.67 10 6C9.36 6 8.7 6 8 6C7.3 6 6.67 6 6 6Z" fill="#666666"/>
<path fill-rule="evenodd" clip-rule="evenodd" d="M5.13412 6.05028L5.13408 6.05029H5.13408C4.42813 6.0906 3.73387 6.13025 3.08002 6.18C3.11968 5.23254 3.20981 4.28787 3.35002 3.35C4.27742 3.2008 5.21205 3.10066 6.15002 3.05L6.13458 3.25857V3.25858C6.06878 4.14582 6.00002 5.07291 6.00002 6C5.71074 6.01736 5.42146 6.03388 5.13412 6.05028ZM12.62 3.38C12.7692 4.3074 12.8694 5.24204 12.92 6.18C12.2662 6.13025 11.5719 6.0906 10.8659 6.05029C10.5786 6.03388 10.2893 6.01736 10 6C9.98266 5.71072 9.96614 5.42144 9.94973 5.13409C9.90942 4.42813 9.86977 3.73386 9.82002 3.08C10.758 3.13066 11.6926 3.2308 12.62 3.38ZM3.08002 9.82C3.13068 10.758 3.23082 11.6926 3.38002 12.62C4.30742 12.7692 5.24205 12.8693 6.18002 12.92C6.13027 12.2661 6.09062 11.5719 6.0503 10.8659C6.03389 10.5786 6.01737 10.2893 6.00002 10C5.71074 9.98264 5.42145 9.96612 5.13411 9.94971C4.42815 9.9094 3.73388 9.86975 3.08002 9.82ZM12.62 12.62C11.6926 12.7692 10.758 12.8693 9.82002 12.92C9.86977 12.2661 9.90942 11.5719 9.94973 10.8659C9.96614 10.5786 9.98266 10.2893 10 10C10.2893 9.98264 10.5786 9.96612 10.8659 9.94971C11.5719 9.9094 12.2662 9.86975 12.92 9.82C12.8694 10.758 12.7692 11.6926 12.62 12.62Z" fill="#666666"/>
<path fill-rule="evenodd" clip-rule="evenodd" d="M3.40001 3.38C2.63812 3.51377 1.88376 3.68734 1.14001 3.9C1.82128 2.76877 2.76879 1.82127 3.90001 1.14C3.69422 1.87739 3.52732 2.62509 3.40001 3.38ZM12.1 1.14C13.2312 1.82127 14.1787 2.76877 14.86 3.9C14.1163 3.68734 13.3619 3.51377 12.6 3.38C12.4727 2.62509 12.3058 1.87739 12.1 1.14ZM12.14 14.9C13.2712 14.2187 14.2187 13.2712 14.9 12.14C14.1563 12.3527 13.4019 12.5262 12.64 12.66C12.4982 13.4022 12.3179 14.1365 12.1 14.86L12.14 14.9ZM3.90001 14.86C2.7735 14.19 1.82639 13.2566 1.14001 12.14V12.1C1.88376 12.3127 2.63812 12.4862 3.40001 12.62C3.52732 13.3749 3.69422 14.1226 3.90001 14.86Z" fill="#666666"/>
<path fill-rule="evenodd" clip-rule="evenodd" d="M0.149984 9.49C-0.0472277 8.49972 -0.0472277 7.48028 0.149984 6.49C0.999984 6.36 1.99998 6.26 3.05998 6.18C2.99998 6.77 2.99998 7.38 2.99998 8C2.99998 8.62 2.99998 9.23 3.05998 9.8C1.99998 9.72 1.01998 9.62 0.149984 9.49ZM12.94 6.18C14 6.26 15 6.36 15.85 6.49V6.51C16.0472 7.50028 16.0472 8.51972 15.85 9.51C14.94 9.64 14 9.74 12.94 9.82C13 9.23 13 8.62 13 8C13 7.38 13 6.77 12.94 6.18Z" fill="#666666"/>
<path fill-rule="evenodd" clip-rule="evenodd" d="M9.50999 0.149999C9.63999 0.999999 9.73999 2 9.81999 3.06C9.22999 3 8.61999 3 7.99999 3C7.37999 3 6.76999 3 6.17999 3.06C6.25999 2 6.35999 0.999999 6.50999 0.149999C7.50027 -0.0472124 8.51972 -0.0472124 9.50999 0.149999ZM6.48999 15.85C6.35999 14.94 6.25999 14 6.17999 12.94C6.76999 13 7.37999 13 7.99999 13C8.61999 13 9.22999 13 9.79999 12.94C9.71999 14 9.61999 14.98 9.48999 15.85C8.49972 16.0472 7.48027 16.0472 6.48999 15.85Z" fill="#666666"/>
<path fill-rule="evenodd" clip-rule="evenodd" d="M0 8C0 3.58172 3.58172 0 8 0C10.1217 0 12.1566 0.842855 13.6569 2.34315C15.1571 3.84344 16 5.87827 16 8C16 12.4183 12.4183 16 8 16C3.58172 16 0 12.4183 0 8ZM1 8C1 11.866 4.13401 15 8 15C9.85652 15 11.637 14.2625 12.9497 12.9497C14.2625 11.637 15 9.85652 15 8C15 4.13401 11.866 1 8 1C4.13401 1 1 4.13401 1 8Z" fill="#666666"/>
</svg>
