<svg width="32" height="32" viewBox="0 0 32 32" fill="none" xmlns="http://www.w3.org/2000/svg">
<circle cx="16" cy="16" r="15" fill="#666666"/>
<path d="M12.05 12.05C12 13.34 12 14.66 12 16C12 17.34 12 18.66 12.05 19.95C13.34 19.95 14.66 20 16 20C17.34 20 18.66 20 20 20C20 18.71 20.05 17.39 20.05 16.05C20.05 14.71 20.05 13.39 20 12.1C18.66 12 17.34 12 16 12C14.66 12 13.34 12 12.05 12.05Z" fill="white"/>
<path fill-rule="evenodd" clip-rule="evenodd" d="M12.05 12.06C9.98001 12.12 7.99 12.21 6.13 12.35C6.23916 10.4795 6.45283 8.61662 6.77 6.77C8.61662 6.45283 10.4795 6.23916 12.35 6.13C12.21 7.99 12.11 9.98 12.05 12.06ZM25.23 6.77C25.5472 8.61662 25.7608 10.4795 25.87 12.35C24 12.21 22 12.12 19.95 12.06C19.89 9.98 19.79 7.99 19.65 6.13C21.5205 6.23916 23.3834 6.45283 25.23 6.77ZM19.65 25.87C21.5205 25.7608 23.3834 25.5472 25.23 25.23C25.5472 23.3834 25.7608 21.5205 25.87 19.65C24.01 19.79 22.02 19.88 19.95 19.94C19.89 22 19.79 24 19.65 25.87ZM6.77 25.23C6.45283 23.3834 6.23916 21.5205 6.13 19.65C8 19.79 10 19.88 12.05 19.94C12.11 22.02 12.21 24.01 12.35 25.87C10.4795 25.7608 8.61662 25.5472 6.77 25.23Z" fill="white"/>
<path fill-rule="evenodd" clip-rule="evenodd" d="M24.2 2.28C26.4648 3.63962 28.3604 5.53528 29.72 7.8C28.2351 7.36734 26.7258 7.0234 25.2 6.77C24.9504 5.2559 24.6166 3.75691 24.2 2.28ZM6.77003 6.8C5.25499 7.0447 3.75572 7.37861 2.28003 7.8C3.6351 5.5498 5.51983 3.66506 7.77003 2.31C7.35348 3.78691 7.01963 5.2859 6.77003 6.8ZM2.28003 24.2C3.63965 26.4647 5.53531 28.3604 7.80003 29.72C7.38348 28.2431 7.04963 26.7441 6.80003 25.23C5.27427 24.9766 3.76494 24.6327 2.28003 24.2ZM29.72 24.2C28.3604 26.4647 26.4648 28.3604 24.2 29.72C24.6278 28.2338 24.9717 26.7248 25.23 25.2C26.7451 24.9553 28.2443 24.6214 29.72 24.2Z" fill="white"/>
<path fill-rule="evenodd" clip-rule="evenodd" d="M0 16C0.00610014 14.9933 0.103162 13.9892 0.29 13C2 12.73 4 12.52 6.11 12.36C6 13.55 6 14.76 6 16C6 17.24 6 18.45 6.11 19.62C4 19.46 2.03 19.25 0.29 19C0.103162 18.0108 0.00610014 17.0067 0 16ZM25.89 12.38C28 12.54 29.97 12.75 31.71 13C31.8968 13.9892 31.9939 14.9933 32 16C31.9939 17.0067 31.8968 18.0108 31.71 19C30 19.27 28 19.48 25.89 19.64C26 18.45 26 17.24 26 16C26 14.76 26 13.55 25.89 12.38Z" fill="white"/>
<path fill-rule="evenodd" clip-rule="evenodd" d="M19 0.29C19.27 2 19.48 4 19.64 6.11C18.45 6 17.24 6 16 6C14.76 6 13.55 6 12.36 6.11C12.52 4 12.73 2 13 0.29C13.9892 0.103162 14.9933 0.00610014 16 0C17.0067 0.00610014 18.0108 0.103162 19 0.29ZM12.98 31.71C12.73 29.97 12.52 28 12.36 25.89C13.55 26 14.76 26 16 26C17.24 26 18.45 26 19.62 25.89C19.46 28 19.25 29.97 19 31.71C18.0108 31.8968 17.0067 31.9939 16 32C14.9866 31.9951 13.9758 31.898 12.98 31.71Z" fill="white"/>
<path fill-rule="evenodd" clip-rule="evenodd" d="M0 16C0 7.16344 7.16344 0 16 0C20.2435 0 24.3131 1.68571 27.3137 4.68629C30.3143 7.68687 32 11.7565 32 16C32 24.8366 24.8366 32 16 32C7.16344 32 0 24.8366 0 16ZM1 16C1 24.2843 7.71573 31 16 31C24.2843 31 31 24.2843 31 16C31 7.71573 24.2843 1 16 1C7.71573 1 1 7.71573 1 16Z" fill="white"/>
</svg>
