<svg width="16" height="16" viewBox="0 0 16 16" fill="none" xmlns="http://www.w3.org/2000/svg">
<g clip-path="url(#clip0_484_3298)">
<path fill-rule="evenodd" clip-rule="evenodd" d="M1 3V12H4V3H1ZM3 11H2V9H3V11ZM2 6H3V4H2V6Z" fill="#D9D9D9"/>
<rect x="5" y="1" width="5" height="1" fill="#D9D9D9"/>
<path d="M10 3V7H7V12H5V3H10Z" fill="#D9D9D9"/>
<path d="M5 14V13H7L7.01 14H5Z" fill="#D9D9D9"/>
<path fill-rule="evenodd" clip-rule="evenodd" d="M11 7V3H14V7H11ZM12 6H13V4H12V6Z" fill="#D9D9D9"/>
<rect x="8" y="8" width="8" height="8" fill="#D9D9D9"/>
<rect x="10" y="11" width="1" height="1" fill="#178FE6"/>
<rect x="12" y="11" width="2" height="1" fill="#178FE6"/>
<rect x="10" y="13" width="1" height="1" fill="#666666"/>
<rect x="12" y="13" width="2" height="1" fill="#666666"/>
<path d="M8 8V10H16V8H8Z" fill="#999999"/>
</g>
<defs>
<clipPath id="clip0_484_3298">
<rect width="16" height="16" fill="white"/>
</clipPath>
</defs>
</svg>
