<svg width="32" height="32" viewBox="0 0 32 32" fill="none" xmlns="http://www.w3.org/2000/svg">
<g clip-path="url(#clip0_484_3296)">
<rect x="9" y="1" width="12" height="3" fill="#D9D9D9"/>
<path fill-rule="evenodd" clip-rule="evenodd" d="M1 5V25H8V5H1ZM6 22H3V18H6V22ZM3 12H6V8H3V12Z" fill="#D9D9D9"/>
<path d="M21 5H9V25H14V15H21V5Z" fill="#D9D9D9"/>
<path d="M14 26H9V29H14V26Z" fill="#D9D9D9"/>
<path fill-rule="evenodd" clip-rule="evenodd" d="M22 15V5H29V15H22ZM24 12H27V8H24V12Z" fill="#D9D9D9"/>
<rect x="15" y="19" width="15" height="11" fill="#D9D9D9"/>
<rect x="17" y="21" width="2" height="2" fill="#178FE6"/>
<rect x="20" y="22" width="8" height="1" fill="#178FE6"/>
<rect x="17" y="25" width="2" height="2" fill="#666666"/>
<rect x="20" y="26" width="8" height="1" fill="#666666"/>
<path fill-rule="evenodd" clip-rule="evenodd" d="M15 19V16H30V19H15ZM16 17V18H18V17H16Z" fill="#999999"/>
</g>
<defs>
<clipPath id="clip0_484_3296">
<rect width="32" height="32" fill="white"/>
</clipPath>
</defs>
</svg>
