<svg width="16" height="16" viewBox="0 0 16 16" fill="none" xmlns="http://www.w3.org/2000/svg">
<g clip-path="url(#clip0_542_1605)">
<path d="M10.8333 14.5H0.5V3.25L4.16667 0.5H14.5V11.75L10.8333 14.5Z" stroke="#D9D9D9"/>
<path d="M5 8H13L10 10H2L5 8Z" fill="#B2DFFF"/>
<path d="M5 2H13L10 4H2L5 2Z" fill="#B2DFFF"/>
<path d="M2 10L10 10V13H2V10Z" fill="#89CBFA"/>
<path d="M2 4L10 4V7H2V4Z" fill="#89CBFA"/>
<path d="M10 10L13 8V11L10 13V10Z" fill="#67B1E6"/>
<path d="M10 4L13 2V5L10 7V4Z" fill="#67B1E6"/>
</g>
<defs>
<clipPath id="clip0_542_1605">
<rect width="16" height="16" fill="white"/>
</clipPath>
</defs>
</svg>
