<svg width="16" height="17" viewBox="0 0 16 17" fill="none" xmlns="http://www.w3.org/2000/svg">
<path d="M16 8.00181H8L12 1.07181C13.2164 1.77411 14.2265 2.78429 14.9287 4.00079C15.6308 5.21729 16.0003 6.59721 16 8.00181Z" fill="#FF8533"/>
<path d="M12 1.0718L8 8.0018L4 1.0718C5.21615 0.36965 6.59571 0 8 0C9.40429 0 10.7838 0.36965 12 1.0718Z" fill="#FFBB33"/>
<path d="M8 8.00181H2.01806e-07C-0.000315245 6.59721 0.369185 5.21729 1.07135 4.00079C1.77351 2.78429 2.78358 1.77411 4 1.07181L8 8.00181Z" fill="#3ECC77"/>
<path d="M8 8.0018L4 14.9318C2.78358 14.2295 1.77351 13.2193 1.07135 12.0028C0.369185 10.7863 -0.000315245 9.4064 2.01806e-07 8.0018H8Z" fill="#0AB6CC"/>
<path d="M12 14.9318C10.7838 15.6339 9.40429 16.0036 8 16.0036C6.59571 16.0036 5.21615 15.6339 4 14.9318L8 8.0018L12 14.9318Z" fill="#7143FF"/>
<path d="M16 8.0018C16.0003 9.4064 15.6308 10.7863 14.9287 12.0028C14.2265 13.2193 13.2164 14.2295 12 14.9318L8 8.0018H16Z" fill="#E54E4E"/>
<path d="M8 1.0018C9.38447 1.0018 10.7379 1.41234 11.889 2.18151C13.0401 2.95068 13.9373 4.04393 14.4672 5.32302C14.997 6.6021 15.1356 8.00957 14.8655 9.36743C14.5954 10.7253 13.9287 11.9726 12.9498 12.9515C11.9708 13.9305 10.7235 14.5972 9.36564 14.8673C8.00777 15.1374 6.6003 14.9988 5.32122 14.469C4.04214 13.9391 2.94889 13.0419 2.17972 11.8908C1.41055 10.7396 1 9.38627 1 8.0018C1 6.14529 1.7375 4.36481 3.05026 3.05205C4.36301 1.7393 6.14349 1.0018 8 1.0018ZM8 0.00180054C6.41775 0.00180054 4.87103 0.470992 3.55544 1.35004C2.23985 2.22909 1.21447 3.47852 0.608967 4.94033C0.00346625 6.40214 -0.15496 8.01067 0.153721 9.56252C0.462403 11.1144 1.22433 12.5398 2.34315 13.6587C3.46197 14.7775 4.88743 15.5394 6.43928 15.8481C7.99113 16.1568 9.59966 15.9983 11.0615 15.3928C12.5233 14.7873 13.7727 13.762 14.6518 12.4464C15.5308 11.1308 16 9.58405 16 8.0018C16 5.88007 15.1571 3.84524 13.6569 2.34495C12.1566 0.844655 10.1217 0.00180054 8 0.00180054V0.00180054Z" fill="black" fill-opacity="0.2"/>
</svg>
