<svg width="16" height="17" viewBox="0 0 16 17" fill="none" xmlns="http://www.w3.org/2000/svg">
<path d="M16 8.00181H8L12 1.07181C13.2164 1.77411 14.2265 2.78429 14.9287 4.00079C15.6308 5.21729 16.0003 6.59721 16 8.00181Z" fill="#FF9543"/>
<path d="M12 1.0718L8 8.0018L4 1.0718C5.21615 0.36965 6.59571 0 8 0C9.40429 0 10.7838 0.36965 12 1.0718Z" fill="#FFC33F"/>
<path d="M8 8.00181H2.01806e-07C-0.000315245 6.59721 0.369185 5.21729 1.07135 4.00079C1.77351 2.78429 2.78358 1.77411 4 1.07181L8 8.00181Z" fill="#4ECD83"/>
<path d="M8 8.0018L4 14.9318C2.78358 14.2295 1.77351 13.2193 1.07135 12.0028C0.369185 10.7863 -0.000315245 9.4064 2.01806e-07 8.0018H8Z" fill="#13B0CE"/>
<path d="M12 14.9318C10.7838 15.6339 9.40429 16.0036 8 16.0036C6.59571 16.0036 5.21615 15.6339 4 14.9318L8 8.0018L12 14.9318Z" fill="#814DFF"/>
<path d="M16 8.0018C16.0003 9.4064 15.6308 10.7863 14.9287 12.0028C14.2265 13.2193 13.2164 14.2295 12 14.9318L8 8.0018H16Z" fill="#E75958"/>
</svg>
