<svg width="32" height="32" viewBox="0 0 32 32" fill="none" xmlns="http://www.w3.org/2000/svg">
<path d="M32 16H16L24 2C26.4328 3.41879 28.453 5.45957 29.8573 7.91713C31.2616 10.3747 32.0006 13.1624 32 16Z" fill="#FF9543"/>
<path d="M24 2.14311L16 16L8 2.14311C10.4323 0.739134 13.1914 0 16 0C18.8086 0 21.5677 0.739134 24 2.14311Z" fill="#FFC33F"/>
<path d="M16 16H4.03612e-07C-0.00063049 13.1624 0.738371 10.3747 2.1427 7.91713C3.54702 5.45957 5.56716 3.41879 8 2L16 16Z" fill="#4ECD83"/>
<path d="M16 16L8 30C5.56716 28.5812 3.54702 26.5404 2.1427 24.0829C0.738371 21.6253 -0.00063049 18.8376 4.03612e-07 16H16Z" fill="#13B0CE"/>
<path d="M24 29.8569C21.5677 31.2609 18.8086 32 16 32C13.1914 32 10.4323 31.2609 8 29.8569L16 16L24 29.8569Z" fill="#814DFF"/>
<path d="M32 16C32.0006 18.8376 31.2616 21.6253 29.8573 24.0829C28.453 26.5404 26.4328 28.5812 24 30L16 16H32Z" fill="#E75958"/>
</svg>
