<svg width="32" height="32" viewBox="0 0 32 32" fill="none" xmlns="http://www.w3.org/2000/svg">
<path d="M32 16H16L23.8669 2.00001C26.2997 3.42654 28.453 5.40199 29.8573 7.87299C31.2616 10.344 32.0006 13.1469 32 16Z" fill="#FF8533"/>
<path d="M24 2.14311L16 16L8 2.14311C10.4323 0.739134 13.1914 0 16 0C18.8086 0 21.5677 0.739134 24 2.14311Z" fill="#FFBB33"/>
<path d="M16 16H4.03612e-07C-0.00063049 13.1624 0.738371 10.3747 2.1427 7.91713C3.54702 5.45956 5.6409 3.52816 8.07373 2.10938L16 16Z" fill="#3ECC77"/>
<path d="M16 16L8.03165 29.8688C5.59881 28.45 3.54702 26.5404 2.1427 24.0829C0.738371 21.6253 -0.00063049 18.8376 4.03612e-07 16H16Z" fill="#0AB6CC"/>
<path d="M24 29.8569C21.5677 31.2609 18.8086 32 16 32C13.1914 32 10.4323 31.2609 8 29.8569L16 16L24 29.8569Z" fill="#7143FF"/>
<path d="M32 16C32.0006 18.8376 31.2616 21.6253 29.8573 24.0829C28.453 26.5404 26.3604 28.4718 23.9275 29.8906L16 16H32Z" fill="#E54E4E"/>
<path d="M16 1C18.9667 1 21.8668 1.87973 24.3336 3.52796C26.8003 5.17618 28.7229 7.51886 29.8582 10.2597C30.9935 13.0006 31.2906 16.0166 30.7118 18.9264C30.133 21.8361 28.7044 24.5088 26.6066 26.6066C24.5088 28.7044 21.8361 30.133 18.9264 30.7118C16.0166 31.2906 13.0006 30.9935 10.2598 29.8582C7.51886 28.7229 5.17618 26.8003 3.52796 24.3336C1.87974 21.8668 1.00001 18.9667 1.00001 16C1.00001 12.0218 2.58036 8.20644 5.39341 5.3934C8.20645 2.58035 12.0218 1 16 1ZM16 0C12.8355 0 9.74207 0.938384 7.11088 2.69649C4.4797 4.45459 2.42894 6.95345 1.21793 9.87706C0.0069325 12.8007 -0.309921 16.0177 0.307443 19.1214C0.924806 22.2251 2.44866 25.0761 4.6863 27.3137C6.92394 29.5513 9.77487 31.0752 12.8786 31.6926C15.9823 32.3099 19.1993 31.9931 22.1229 30.7821C25.0466 29.5711 27.5454 27.5203 29.3035 24.8891C31.0616 22.2579 32 19.1645 32 16C32 11.7565 30.3143 7.68687 27.3137 4.68629C24.3131 1.68571 20.2435 0 16 0Z" fill="black" fill-opacity="0.2"/>
</svg>
