<svg width="16" height="16" viewBox="0 0 16 16" fill="none" xmlns="http://www.w3.org/2000/svg">
<g clip-path="url(#clip0_75_111)">
<path d="M5 9C5 11.2091 3.88071 13 2.5 13C1.11929 13 0 11.2091 0 9C0 6.79086 1.11929 5 2.5 5C3.88071 5 5 6.79086 5 9Z" fill="#D9D9D9"/>
<path fill-rule="evenodd" clip-rule="evenodd" d="M1.98318 4.05109C2.14907 4.01777 2.32144 4 2.50001 4C3.65957 4 4.55806 4.74924 5.11577 5.64157C5.68229 6.548 6.00001 7.73799 6.00001 9C6.00001 10.262 5.68229 11.452 5.11577 12.3584C4.70086 13.0223 4.09732 13.607 3.338 13.8628C6.61706 15.7571 8.1306 14.2694 9.49781 12.9256C10.2879 12.149 11.0292 11.4204 12.0341 11.4204C12.6862 11.4204 12.9618 11.6141 13.1847 11.7708C13.4501 11.9573 13.6408 12.0913 14.3031 11.7836C15.4884 11.2329 17.9484 5.25163 13.0845 2.37549C12.293 1.9075 10.7788 1.28079 7.9637 1.28079C4.67595 1.28079 2.61345 3.3236 1.98318 4.05109Z" fill="#67B1E6"/>
<path fill-rule="evenodd" clip-rule="evenodd" d="M4.34899 13.2698C4.05299 13.5281 3.71466 13.7359 3.33798 13.8628C6.61705 15.7571 8.13059 14.2694 9.4978 12.9256C10.2879 12.149 11.0292 11.4204 12.0341 11.4204C12.6862 11.4204 12.9618 11.6141 13.1847 11.7708C13.3453 11.8837 13.4786 11.9773 13.7056 11.9655V10.9141C13.5952 10.838 13.4188 10.7246 13.2105 10.6363C12.8855 10.4983 12.5056 10.4204 12.0341 10.4204C10.8712 10.4204 10.0155 11.074 9.38437 11.6493C9.18669 11.8295 8.97269 12.0396 8.77318 12.2355C8.66397 12.3427 8.55887 12.4459 8.4634 12.5374C8.16746 12.8209 7.89025 13.0664 7.60267 13.265C7.05836 13.6408 6.48322 13.8483 5.69834 13.7251C5.32253 13.666 4.87726 13.5278 4.34899 13.2698Z" fill="#E67373"/>
<path fill-rule="evenodd" clip-rule="evenodd" d="M1.9864 4.05044C2.70442 3.22862 4.72571 1.29874 7.87404 1.29874C10.4739 1.29874 12.293 1.90749 13.0844 2.37549C14.4247 3.16802 15.2194 4.20714 15.6426 5.30828C14.1803 4.81708 12.6238 4.56795 11.1075 4.66641C8.83679 4.81386 7.01957 5.7703 5.66863 6.84227C5.52644 6.40615 5.34072 6.00151 5.11576 5.64157C4.55805 4.74924 3.65956 4 2.5 4C2.32259 4 2.1513 4.01754 1.9864 4.05044Z" fill="#89CBFA"/>
<path fill-rule="evenodd" clip-rule="evenodd" d="M5.52493 6.4485C5.83288 7.20732 6 8.08472 6 9C6 9.74604 5.88897 10.4669 5.68115 11.1189C7.94523 11.3933 9.11779 10.2581 10.2431 9.16856C10.933 8.50069 11.6051 7.85 12.5 7.5517C13.7107 7.14812 15.1996 7.77377 15.943 8.15868C16.0411 7.18286 15.9547 6.12658 15.5463 5.12964C13.6666 4.29161 11.5869 3.93604 9.7556 4.41024C7.93471 4.88172 6.56112 5.61321 5.52493 6.4485Z" fill="#B2DFFF"/>
<path fill-rule="evenodd" clip-rule="evenodd" d="M12.5755 3.23628C13.1087 3.55162 13.536 3.90839 13.8736 4.29277L14.64 3.64854C14.2346 3.1836 13.7226 2.75283 13.0845 2.37551C12.293 1.90751 10.3124 1.27689 7.96551 1.27689C4.67726 1.27689 2.6134 3.32297 1.98305 4.05111C2.14898 4.01778 2.32139 4 2.5 4C2.78557 4 3.05531 4.04544 3.30803 4.12728C3.49148 3.96103 3.70826 3.78116 3.95728 3.60115C4.8836 2.93149 6.22993 2.27689 7.96551 2.27689C10.1741 2.27689 11.9698 2.87817 12.5755 3.23628Z" fill="#E67373"/>
</g>
<defs>
<clipPath id="clip0_75_111">
<rect width="16" height="16" fill="white"/>
</clipPath>
</defs>
</svg>
