<svg width="16" height="16" viewBox="0 0 16 16" fill="none" xmlns="http://www.w3.org/2000/svg">
<path d="M1.77732 4.30468C1.77732 4.30468 3.96369 1.28091 7.96369 1.28091C10.7787 1.28091 12.293 1.90762 13.0845 2.37562C17.9484 5.25175 15.4884 11.233 14.3031 11.7837C13.0845 12.3499 13.4625 11.4206 12.0341 11.4206C8.97142 11.4206 8.35772 18.188 1.34558 12.4576L1.77732 4.30468Z" fill="#4795CC"/>
<path fill-rule="evenodd" clip-rule="evenodd" d="M7.87404 1.29886C3.87404 1.29886 1.69331 4.41411 1.69331 4.41411L1.35547 12.5039C1.81728 12.84 2.25247 13.1334 2.66307 13.3879L2.77078 10.1222C2.77078 10.1222 5.61011 5.02349 11.1075 4.66653C12.6238 4.56807 14.1803 4.8172 15.6426 5.30841C15.2194 4.20726 14.4247 3.16815 13.0844 2.37561C12.293 1.90762 10.4739 1.29886 7.87404 1.29886Z" fill="#67B1E6"/>
<path fill-rule="evenodd" clip-rule="evenodd" d="M15.5464 5.12974C15.9547 6.12668 16.0412 7.18297 15.943 8.15878C15.1997 7.77388 13.7107 7.14822 12.5 7.5518C11.6051 7.85011 10.933 8.5008 10.2432 9.16867C8.71952 10.6438 7.10935 12.2027 2.82068 10.2334C3.53455 8.25629 5.315 5.56017 9.75563 4.41034C11.587 3.93615 13.6667 4.29171 15.5464 5.12974Z" fill="#89CBFA"/>
<path d="M2.18196 4.59839C2.18189 4.59849 2.18195 4.5984 2.18215 4.59814L2.18196 4.59839ZM2.26828 4.48858C2.32918 4.41415 2.42185 4.30577 2.54551 4.17462C2.79583 3.90915 3.17096 3.55272 3.66435 3.19605C4.65103 2.48276 6.09772 1.77699 7.96552 1.77699C10.2432 1.77699 12.1314 2.39295 12.83 2.806C15.0599 4.12456 15.6075 6.13074 15.4639 7.9115C15.3914 8.80967 15.1417 9.64061 14.8443 10.273C14.6956 10.5892 14.5392 10.8466 14.3947 11.0339C14.2414 11.2325 14.1327 11.3116 14.0924 11.3303C13.8159 11.4587 13.6983 11.4683 13.659 11.4664L13.6574 11.4663C13.6406 11.4656 13.6217 11.4648 13.5294 11.4017C13.5156 11.3923 13.4999 11.3811 13.4821 11.3685C13.3825 11.2981 13.2217 11.1843 13.0152 11.0966C12.7604 10.9885 12.4484 10.9206 12.0341 10.9206C11.0698 10.9206 10.3357 11.4588 9.72121 12.0189C9.52903 12.1941 9.32971 12.3899 9.13568 12.5805C9.02436 12.6899 8.91478 12.7975 8.8093 12.8986C8.50694 13.1882 8.20717 13.4553 7.88678 13.6765C7.26143 14.1083 6.55896 14.3664 5.62078 14.2191C4.69155 14.0732 3.48044 13.5218 1.85839 12.229L2.26828 4.48858Z" stroke="black" stroke-opacity="0.2"/>
<path fill-rule="evenodd" clip-rule="evenodd" d="M5.69834 13.7252C4.92388 13.6036 3.85446 13.1454 2.37141 11.9963L2.37532 11.9224H1.37392L1.34558 12.4576C6.05693 16.3077 7.87984 14.516 9.4978 12.9257C10.2879 12.1491 11.0292 11.4205 12.0341 11.4205C12.6862 11.4205 12.9618 11.6142 13.1847 11.7709C13.3453 11.8838 13.4786 11.9774 13.7056 11.9656V10.9142C13.5952 10.8381 13.4188 10.7247 13.2105 10.6364C12.8855 10.4984 12.5056 10.4205 12.0341 10.4205C10.8712 10.4205 10.0155 11.0741 9.38438 11.6494C9.18669 11.8296 8.9727 12.0397 8.77319 12.2356C8.66397 12.3428 8.55888 12.446 8.46341 12.5375C8.16747 12.821 7.89026 13.0665 7.60267 13.2651C7.05836 13.6409 6.48322 13.8484 5.69834 13.7252Z" fill="#CC2929"/>
<path fill-rule="evenodd" clip-rule="evenodd" d="M13.8736 4.29289C13.536 3.90851 13.1088 3.55174 12.5755 3.2364C11.9699 2.8783 10.1741 2.27701 7.96552 2.27701C6.22994 2.27701 4.88361 2.93162 3.95728 3.60127C3.49403 3.93616 3.14231 4.27055 2.9093 4.51766C2.85148 4.57899 2.80124 4.63465 2.75869 4.68325L2.7575 4.7056H1.7561L1.77733 4.3047C1.77733 4.3047 3.96553 1.27701 7.96552 1.27701C10.3124 1.27701 12.293 1.90763 13.0845 2.37563C13.7226 2.75296 14.2346 3.18373 14.64 3.64866L13.8736 4.29289Z" fill="#CC2929"/>
<path d="M5 8.5C5 10.9853 3.88071 13 2.5 13C1.11929 13 0 10.9853 0 8.5C0 6.01472 1.11929 4 2.5 4C3.88071 4 5 6.01472 5 8.5Z" fill="#F3F3F3"/>
<path fill-rule="evenodd" clip-rule="evenodd" d="M3.39361 11.1963C3.74894 10.5567 4 9.60541 4 8.5C4 7.39459 3.74894 6.44325 3.39361 5.80366C3.01946 5.1302 2.66228 5 2.5 5C2.33772 5 1.98054 5.1302 1.60639 5.80366C1.25106 6.44325 1 7.39459 1 8.5C1 9.60541 1.25106 10.5567 1.60639 11.1963C1.98054 11.8698 2.33772 12 2.5 12C2.66228 12 3.01946 11.8698 3.39361 11.1963ZM2.5 13C3.88071 13 5 10.9853 5 8.5C5 6.01472 3.88071 4 2.5 4C1.11929 4 0 6.01472 0 8.5C0 10.9853 1.11929 13 2.5 13Z" fill="#666666"/>
</svg>
