<svg width="16" height="16" viewBox="0 0 16 16" fill="none" xmlns="http://www.w3.org/2000/svg">
<g clip-path="url(#clip0_51_38)">
<rect x="6" y="2" width="8" height="8" fill="#67B1E6"/>
<path d="M2 5.5L6 2V10L2 14V5.5Z" fill="#4795CC"/>
<path d="M6 10H14L9.42942 14H1.54672L6 10Z" fill="#89CBFA"/>
<path fill-rule="evenodd" clip-rule="evenodd" d="M16 0L14 2V10L9.41396 13.9987H8.91396L10.6369 15.9251L16 11.3333V9.33333V0Z" fill="#BBBBBB"/>
<path fill-rule="evenodd" clip-rule="evenodd" d="M8 0H5.66667L0 4.66667L2 5.5L6 2H13.9963L16 0H8Z" fill="#F3F3F3"/>
<path fill-rule="evenodd" clip-rule="evenodd" d="M2 5.5L0 4.66666V16L10.637 16L9.43619 14H9.13699H2V5.5Z" fill="#D9D9D9"/>
<path d="M0.5 15.5L0.500008 4.90262L5.84605 0.5H15.5L15.5 9.33333V11.1044L10.4069 15.5H0.5Z" stroke="#666666"/>
</g>
<defs>
<clipPath id="clip0_51_38">
<rect width="16" height="16" fill="white"/>
</clipPath>
</defs>
</svg>
