<svg width="24" height="24" viewBox="0 0 24 24" fill="none" xmlns="http://www.w3.org/2000/svg">
<g clip-path="url(#clip0_49_19)">
<path d="M2 8L9 2V16L2 22V8Z" fill="#4795CC"/>
<rect x="9" y="2" width="13" height="14" fill="#67B1E6"/>
<path d="M9 16H22L15 22H2L9 16Z" fill="#89CBFA"/>
<path fill-rule="evenodd" clip-rule="evenodd" d="M24 0L22 2V16L14.9984 21.9929L16.1627 23.8577L24 17V14V0Z" fill="#BBBBBB"/>
<path fill-rule="evenodd" clip-rule="evenodd" d="M12 0H8.5L0 7L2 8L9 2H22L24 0H12Z" fill="#F3F3F3"/>
<path fill-rule="evenodd" clip-rule="evenodd" d="M2 8L0 7V21V24H2L16.0365 23.4986L15.1634 21.842L15 22H2V8Z" fill="#D9D9D9"/>
<mask id="path-7-inside-1_49_19" fill="white">
<path fill-rule="evenodd" clip-rule="evenodd" d="M12 0H8.5L0 7V21V24H2H15V25L24 17V14V0H12Z"/>
</mask>
<path d="M8.5 0V-1H8.14123L7.86429 -0.77193L8.5 0ZM0 7L-0.635707 6.22807L-1 6.52808V7H0ZM0 24H-1V25H0V24ZM15 24H16V23H15V24ZM15 25H14V27.2268L15.6644 25.7474L15 25ZM24 17L24.6644 17.7474L25 17.4491V17H24ZM24 0H25V-1H24V0ZM8.5 1H12V-1H8.5V1ZM0.635707 7.77193L9.13571 0.77193L7.86429 -0.77193L-0.635707 6.22807L0.635707 7.77193ZM-1 7V21H1V7H-1ZM-1 21V24H1V21H-1ZM0 25H2V23H0V25ZM2 25H15V23H2V25ZM16 25V24H14V25H16ZM23.3356 16.2526L14.3356 24.2526L15.6644 25.7474L24.6644 17.7474L23.3356 16.2526ZM23 14V17H25V14H23ZM23 0V14H25V0H23ZM12 1H24V-1H12V1Z" fill="#666666" mask="url(#path-7-inside-1_49_19)"/>
</g>
<defs>
<clipPath id="clip0_49_19">
<rect width="24" height="24" fill="white"/>
</clipPath>
</defs>
</svg>
