<svg width="16" height="16" viewBox="0 0 16 16" fill="none" xmlns="http://www.w3.org/2000/svg">
<path d="M10.7 2.12V0.83L10.08 0.2L9.88 0H8.71L7.6 0.57L6.49 1.71L5.95 2.86L5.61 3.86V3.92H3V4.92H5.34L4.34 8.92L3.79 11.7L3.27 13.35L2.73 14.43L1.73 15.49H0.73L0.63 15.39H1.54V13.88H0V15.17L0.62 15.8L0.81 16H2L3.13 15.43L4.24 14.29L4.78 13.14L5.34 11.46L6.38 7L6.79 4.92H10V4H7L7.43 2.64L8 1.52L9 0.45H10L10.1 0.55H9.17V2.12H10.7Z" fill="#D9D9D9"/>
<path d="M15.53 6H15.39H14.65H14.53L13.68 6.47L12.85 7.41L12.75 7.65L12.71 7.55V7.49L12.28 6.49L11.44 6.01L11.42 6H11.36H10.54H10.49L9.65 6.48L8.69 8.13L9.13 8.37L9.91 7.02L10.67 6.59H11.43L11.63 6.83V8.38L11.23 10.18L10.83 11.08L10.06 11.96L9.28 12.41H9.14V12.4V11.17L8.99 11.18H8V11.37V12.09V12.23V12.27V12.46L8.47 13H8.61H9.35H9.47L10.32 12.53L11.14 11.59L11.24 11.35L11.29 11.44V11.51L11.72 12.5L12.56 12.99L12.58 13H12.64H13.46H13.51L14.36 12.52L15.29 10.92L14.87 10.63L14.09 11.98L13.32 12.41H12.57L12.37 12.18V10.62L12.77 8.82L13.16 7.93L13.96 7.03L14.73 6.59H14.86V7.58V7.72L15.01 7.96H16V7.82V7.62V6.91V6.76V6.73V6.54L15.53 6Z" fill="#D9D9D9"/>
</svg>
