<svg width="32" height="32" viewBox="0 0 32 32" fill="none" xmlns="http://www.w3.org/2000/svg">
<path d="M19.93 0H17.6L15.37 1.15L13.15 3.43L12.07 5.73L11.39 7.8L11.24 8.31L8.8 18.01L7.71 23.59L6.68 26.9L5.59 29.06L3.56 31.19H1.59L1.29 30.88H3V28H0V30.51L1.6 32H3.91L6.17 30.85L8.38 28.57L9.46 26.27L10.58 22.89L12.73 13.99L13.79 8.61L13.91 8.1L14.86 5.1L15.93 2.96L17.97 0.81H19.95L20.25 1.12H18V4H21.37V1.49L19.93 0Z" fill="#D9D9D9"/>
<rect x="6" y="8" width="14" height="2" fill="#D9D9D9"/>
<path d="M30.78 12H29.06L27.37 13L25.71 15.03L25.51 15.53L24.69 13.54L24.39 13.03L22.76 12.03L22.72 12H20.98L19.3 13.03L17.37 16.56L17.31 16.72L18.25 17.28L19.81 14.39L21.34 13.47H22.85L23.27 13.97V17.1L22.45 20.96L21.66 22.88L20.12 24.77L18.57 25.73H18.28V25.71V23.29V23.09H17.98H16V23.29V25.06V25.26V25.36V25.56L17.22 27.2H18.94L20.63 26.19L22.28 24.19L22.49 23.66L23.31 25.64L23.42 25.71L23.61 26.16L25.24 27.17L25.29 27.2H27.02L28.71 26.16L30.59 22.75L30.66 22.6L29.75 21.92L28.18 24.81L26.64 25.73H25.14L24.73 25.25V22.09L25.55 18.23L26.33 16.33L27.92 14.4L29.45 13.47H29.72V13.48V15.38V15.58V15.68V15.88L30.02 16.4H32V16.2V16.1V15.9V14.14V13.94V13.84V13.63L30.78 12Z" fill="#D9D9D9"/>
</svg>
