<svg width="16" height="16" viewBox="0 0 16 16" fill="none" xmlns="http://www.w3.org/2000/svg">
<g clip-path="url(#clip0_10427_37689)">
<path d="M6 8.7V9L3.8 11.2L3 5L5 3L5.1 3.2L6 8.7Z" fill="#BBBBBB"/>
<path d="M6.00001 9.10001V11H4.10001L6.00001 9.10001Z" fill="#F3F3F3"/>
<path d="M12.1 3L11.7 5H9.40001L6.60001 7.5L6.00001 8V8.7L5.80001 7.7V7.4L5.10001 3.2V3H12.1Z" fill="#D9D9D9"/>
<path d="M5.99999 8.69999V9.79999L5.29999 11L4.89999 11.8L3.29999 10.7L5.09999 7.89999L5.99999 8.69999Z" fill="#C9C9C9"/>
<path d="M6.60001 7.4L5.90001 2C5.30001 2.2 4.70001 2.5 4.20001 2.9L5.10001 8L6.60001 7.4Z" fill="#C9C9C9"/>
<path d="M6.60001 7.39999V7.49999L6.00001 7.99999V8.69999L5.10001 7.89999L5.80001 7.69999L6.60001 7.39999Z" fill="#DEDEDE"/>
<path d="M6 11V13H5.2C3.4 13 1.9 11.7 1.7 9.9L1 5H3C3 5 3.8 9.8 3.8 9.9C4 10.5 4.6 11 5.3 11H6Z" fill="#D9D9D9"/>
<path d="M6 1.39999C5.1 1.39999 4.2 1.49999 3.6 2.19999L1 4.99999H3L4.3 3.79999C4.8 3.29999 5.4 2.99999 6.1 2.99999H12.2L13.8 1.39999H6Z" fill="#F3F3F3"/>
<path d="M13.7 1.29999L13.1 4.99999H11.7L12.1 2.99999L13.7 1.29999Z" fill="#BBBBBB"/>
<path d="M6.60001 7.40001L6.00001 8.00001V8.90001C5.60001 8.70001 5.20001 8.40001 5.10001 7.90001C5.30001 7.70001 5.50001 7.50001 5.80001 7.40001C6.20001 7.30001 6.40001 7.30001 6.60001 7.40001Z" fill="#DEDEDE"/>
<path d="M6 0.5C4.8 0.5 3.7 1 2.8 1.8L0 4.6L0.7 10C1 12.3 2.9 14 5.2 14H6V13H5.2C3.4 13 1.9 11.7 1.7 9.9L1 5L3.5 2.5C4.1 1.9 5 1.5 5.9 1.5H13.5L13.1 5H14.1L14.7 0.5H6Z" fill="#666666"/>
<path d="M11 7V6H10L7 9V10H10V9L12 7H11Z" fill="white"/>
<path d="M7 9C7.3 9.2 7.6 9.5 8 9.6V9.4L8.4 9L10.4 7H11V6H10L7 9Z" fill="#4795CC"/>
<path d="M13 13L10 15.5V9L13 6V13Z" fill="#4795CC"/>
<path d="M10 9V15.5C9.1 16.2 7.9 16.2 7 15.5V9C7.9 9.7 9.1 9.7 10 9Z" fill="#67B1E6"/>
<path opacity="0.2" d="M12 7V12.5L9.4 14.7C9.1 14.9 8.8 15 8.5 15C8.3 15 8.2 15 8 14.9V9.4L10.4 7H11V6H10L7 9V15.5C7.9 16.2 9.1 16.2 10 15.5L13 13V6L12 7Z" fill="black"/>
<path opacity="0.2" d="M10 9C9.6 9.3 9 9.5 8.5 9.5C8.3 9.5 8.2 9.5 8 9.4V10.4C8.2 10.4 8.3 10.4 8.5 10.4C9.3 10.4 10 10.1 10.6 9.7H10.7H10.8L12 8.4V7L10 9Z" fill="black"/>
<path d="M14 7V6H13L10 9V10H13V9L15 7H14Z" fill="white"/>
<path d="M10 9C10.3 9.2 10.6 9.7 11 9.8V9.4L11.4 9L13.4 7H14V6H13L10 9Z" fill="#4795CC"/>
<path d="M16 13L13 15.5V9L16 6V13Z" fill="#4795CC"/>
<path d="M13 9V15.5C12.1 16.2 10.9 16.2 10 15.5V9C10.9 9.7 12.1 9.7 13 9Z" fill="#67B1E6"/>
<path opacity="0.2" d="M15 7V12.5L12.4 14.7C12.1 14.9 11.8 15 11.5 15C11.3 15 11.2 15 11 14.9V9.4L13.4 7H14V6H13L10 9V15.5C10.9 16.2 12.1 16.2 13 15.5L16 13V6L15 7Z" fill="black"/>
<path opacity="0.2" d="M13 9C12.6 9.3 12 9.5 11.5 9.5C11.3 9.5 11.2 9.5 11 9.4V10.4C11.2 10.4 11.3 10.4 11.5 10.4C12.3 10.4 13 10.1 13.6 9.7L15 8.4V7L13 9Z" fill="black"/>
<path opacity="0.1" d="M8.5 12H8V13H8.5C9 13 9.5 12.9 10 12.8V11.8C9.5 12 9 12 8.5 12Z" fill="black"/>
<path opacity="0.1" d="M11.5 12H11V13H11.5C12 13 12.5 12.9 13 12.8V11.8C12.5 12 12 12 11.5 12Z" fill="black"/>
<path opacity="0.3" d="M12 7L11 8H9.39999L10.4 7H12Z" fill="black"/>
<path opacity="0.3" d="M15 7L14 8H12.4L13.4 7H15Z" fill="black"/>
</g>
<defs>
<clipPath id="clip0_10427_37689">
<rect width="16" height="16" fill="white"/>
</clipPath>
</defs>
</svg>
