<svg width="16" height="16" viewBox="0 0 16 16" fill="none" xmlns="http://www.w3.org/2000/svg">
<g clip-path="url(#clip0_10427_37686)">
<path d="M4 2L5 8L3 10L2 4L4 2Z" fill="#BBBBBB"/>
<path d="M5.59 8L5.07 8.52L5 8.65V10H3L5 8H5.59Z" fill="#F3F3F3"/>
<path d="M11 2L10.5 5H8.59L5.59 8H5L4.99 7.91L4.97 7.79L4.94 7.67V7.66L4.78 6.68L4.74 6.45L4.04 2.22L4 2H11Z" fill="#D9D9D9"/>
<path d="M5.36 8.00001L5.07 8.52001L5 8.65001L4.26 10H4.25L3.81 10.8L2.25 9.70001L2.8 8.82001H2.81L4.01 6.92001L4.94 7.67001L5.36 8.00001Z" fill="#C9C9C9"/>
<path d="M5.55 6.44L4 6.92L3.2 1.83C3.67735 1.45091 4.2243 1.16894 4.81 1L5.55 6.44Z" fill="#C9C9C9"/>
<path d="M5.55 6.44L7.14 6.45L5.59 8H5.36L5.55 6.44Z" fill="#C9C9C9"/>
<path d="M5.54999 6.44L5.35999 8L4.00999 6.92L5.54999 6.44Z" fill="#DEDEDE"/>
<path d="M5 10V12H4.12C3.25778 11.9994 2.42542 11.6841 1.77916 11.1133C1.1329 10.5426 0.717169 9.75554 0.61 8.9L0 4H2L2.79 8.76C2.79 8.76 2.79 8.76 2.79 8.82C2.85322 9.15752 3.03829 9.46003 3.31 9.67C3.56796 9.8854 3.89395 10.0023 4.23 10H5Z" fill="#D9D9D9"/>
<path d="M4.9 0.5C4.00258 0.504848 3.14347 0.864308 2.51 1.5L0 4H2L3.25 2.75C3.73001 2.26988 4.38108 2.0001 5.06 2H11L12.5 0.5H4.9Z" fill="#F3F3F3"/>
<path d="M12.5 0.5L11.84 5.75L11.59 6H11V5H10.5L11 2L12.5 0.5Z" fill="#BBBBBB"/>
<path d="M4 6.91999C4.18276 6.6996 4.42552 6.53695 4.69886 6.45175C4.9722 6.36655 5.26438 6.36247 5.54 6.43999C5.64108 6.69467 5.67754 6.97042 5.64613 7.24262C5.61472 7.51482 5.51642 7.77502 5.36 7.99999C5.0522 7.97374 4.75899 7.85726 4.51708 7.66516C4.27516 7.47305 4.0953 7.21384 4 6.91999Z" fill="#DEDEDE"/>
<path d="M10.59 7L9 8.59V10H6V9L9 6H10V7H10.59Z" fill="white"/>
<path d="M6 9C6.29515 9.22759 6.63643 9.388 7 9.47V9.41L7.41 9L9.41 7H10V6H9L6 9Z" fill="#67B1E6"/>
<path d="M9 9V15.47C8.5751 15.8125 8.04577 15.9993 7.5 15.9993C6.95423 15.9993 6.4249 15.8125 6 15.47V9C6.12227 9.09482 6.25279 9.17848 6.39 9.25L6.6 9.34C6.72802 9.39824 6.8622 9.44185 7 9.47C7.1636 9.51027 7.33151 9.53042 7.5 9.53C8.0449 9.52435 8.5725 9.33793 9 9Z" fill="#89CBFA"/>
<path opacity="0.2" d="M7.5 11C6.99291 11.007 6.48754 10.9396 6 10.8V11.8C6.98862 12.0134 8.01138 12.0134 9 11.8V10.8C8.51246 10.9396 8.00709 11.007 7.5 11Z" fill="black"/>
<path d="M14 7V6H13L10 9V10H13V9L15 7H14Z" fill="white"/>
<path d="M10 9C10.2951 9.22759 10.6364 9.388 11 9.47V9.41L11.41 9L13.41 7H14V6H13L10 9Z" fill="#67B1E6"/>
<path d="M16 12.99L13 15.47V9L16 6V12.99Z" fill="#67B1E6"/>
<path d="M13 9V15.47C12.5751 15.8125 12.0458 15.9993 11.5 15.9993C10.9542 15.9993 10.4249 15.8125 10 15.47V9C10.4249 9.34253 10.9542 9.52933 11.5 9.52933C12.0458 9.52933 12.5751 9.34253 13 9Z" fill="#89CBFA"/>
<path opacity="0.2" d="M11.5 11C10.9929 11.007 10.4875 10.9396 10 10.8V11.8C10.9886 12.0134 12.0114 12.0134 13 11.8V10.8C12.5125 10.9396 12.0071 11.007 11.5 11Z" fill="black"/>
</g>
<defs>
<clipPath id="clip0_10427_37686">
<rect width="16" height="16" fill="white"/>
</clipPath>
</defs>
</svg>
