<svg width="32" height="32" viewBox="0 0 32 32" fill="none" xmlns="http://www.w3.org/2000/svg">
<g clip-path="url(#clip0_10427_37688)">
<path d="M9 2V15L4.59 21L3 8L9 2Z" fill="#BBBBBB"/>
<path d="M18.59 15L15 18.59V21H4.59L5.13 20.26L5.3 20L9 15H18.59Z" fill="#F3F3F3"/>
<path d="M23 2L22.23 12L22.15 13H20.59L18.59 15H9V2H23Z" fill="#D9D9D9"/>
<path d="M7 2.39999L9 13.2L12.2 12L11.2 1.29999L7 2.39999Z" fill="#C9C9C9"/>
<path d="M3.70001 18.7L7.00001 22.3L11.4 15L9.00001 13.2L3.70001 18.7Z" fill="#CFCFCF"/>
<path d="M15 21V24H6.1C4.96436 23.9979 3.86892 23.5794 3.02115 22.8238C2.17338 22.0682 1.63216 21.0279 1.5 19.9L0 8H3L4.56 17.81L4.7 18.7C4.78307 19.1783 4.98993 19.6265 5.3 20C5.53798 20.305 5.84101 20.553 6.18701 20.726C6.533 20.899 6.91324 20.9926 7.3 21H15Z" fill="#D9D9D9"/>
<path d="M5.9 2.1L0 8H3L7.6 3.4C8.47248 2.51662 9.65847 2.01347 10.9 2H23L25 0H11C9.09207 0.0124875 7.26354 0.76541 5.9 2.1Z" fill="#F3F3F3"/>
<path d="M23 12V13H20.59L18.59 15H11.4L12.2 12H23Z" fill="#D1D1D1"/>
<path d="M9 13.2C9.3535 12.7044 9.84682 12.3254 10.4169 12.1116C10.9869 11.8979 11.6077 11.859 12.2 12C12.3144 12.5277 12.3016 13.075 12.1624 13.5967C12.0233 14.1183 11.762 14.5994 11.4 15C10.8438 15.0745 10.2807 14.9276 9.83178 14.591C9.38288 14.2543 9.08418 13.7548 9 13.2Z" fill="#DEDEDE"/>
<path d="M25 0L24.13 14H23V13H22.15L22.23 12L23 2L25 0Z" fill="#BBBBBB"/>
<path d="M24.59 15L21 18.59V20H16V19L20 15H24.59Z" fill="white"/>
<path d="M21 19V31.37C20.239 31.8022 19.375 32.0199 18.5 32C17.625 32.0199 16.761 31.8022 16 31.37V19C16.3111 19.1903 16.6478 19.3351 17 19.43C17.4882 19.5662 17.9931 19.6335 18.5 19.63C19.375 19.6499 20.239 19.4322 21 19Z" fill="#89CBFA"/>
<path d="M16 19C16.3111 19.1903 16.6478 19.3351 17 19.43L21.41 15H22V14H21L16 19Z" fill="#67B1E6"/>
<path opacity="0.2" d="M21 22V23.39C20.2352 23.8106 19.3726 24.0211 18.5 24C17.6274 24.0211 16.7648 23.8106 16 23.39V22C16 22.29 16.88 23 18.5 23C20.12 23 21 22.29 21 22Z" fill="black"/>
<path d="M32 15V20H22V19L26 15H32Z" fill="white"/>
<path d="M32 26.37L27 31.37V19L32 14V26.37Z" fill="#67B1E6"/>
<path d="M27 19V31.37C26.2315 31.7831 25.3725 31.9994 24.5 31.9994C23.6275 31.9994 22.7685 31.7831 22 31.37V19C22.7685 19.4131 23.6275 19.6294 24.5 19.6294C25.3725 19.6294 26.2315 19.4131 27 19Z" fill="#89CBFA"/>
<path d="M22 19C22.3111 19.1903 22.6478 19.3351 23 19.43L27.41 15H28V14H27L22 19Z" fill="#67B1E6"/>
<path opacity="0.2" d="M27 22V23.39C26.2276 23.7906 25.3702 23.9997 24.5 23.9997C23.6298 23.9997 22.7724 23.7906 22 23.39V22C22 22.29 22.88 23 24.5 23C26.12 23 27 22.29 27 22Z" fill="black"/>
</g>
<defs>
<clipPath id="clip0_10427_37688">
<rect width="32" height="32" fill="white"/>
</clipPath>
</defs>
</svg>
