<svg width="32" height="32" viewBox="0 0 32 32" fill="none" xmlns="http://www.w3.org/2000/svg">
<g clip-path="url(#clip0_10427_37687)">
<path d="M10.05 3V16L5.63999 22L4.04999 9L10.05 3Z" fill="#BBBBBB"/>
<path d="M18.59 16L16 18.59V22H5.64001L6.18001 21.26L6.35001 21L10.05 16H12.05C12.1698 16.01 12.2902 16.01 12.41 16H18.59Z" fill="#F3F3F3"/>
<path d="M24.05 3L23.28 13H21.59L18.59 16H10.05V3H24.05Z" fill="#D9D9D9"/>
<path d="M8.04999 3.39999L10.05 14.2L13.25 13L12.25 2.29999L8.04999 3.39999Z" fill="#C9C9C9"/>
<path d="M4.75 19.7L8.05 23.3L12.45 16L10.05 14.2L4.75 19.7Z" fill="#CFCFCF"/>
<path d="M16 22V25H7.11999C6.83813 24.9991 6.55695 24.9723 6.27999 24.92C6.04168 24.8767 5.8075 24.8131 5.57999 24.73C5.22919 24.6093 4.89361 24.4482 4.57999 24.25C4.27778 24.0567 4.00211 23.8247 3.75999 23.56C3.086 22.8233 2.66245 21.8922 2.54999 20.9L1.04999 9H4.04999L5.60999 18.81L5.74999 19.7C5.83305 20.1783 6.03991 20.6265 6.34999 21C6.58797 21.305 6.891 21.553 7.23699 21.726C7.58299 21.899 7.96323 21.9926 8.34999 22H16Z" fill="#D9D9D9"/>
<path d="M6.99999 3.1L1.04999 9H4.04999L8.64999 4.4C9.08798 3.95661 9.60962 3.60455 10.1847 3.36423C10.7597 3.12391 11.3767 3.00011 12 3H24.1L26.1 1H12.1C10.1921 1.01249 8.36353 1.76541 6.99999 3.1Z" fill="#F3F3F3"/>
<path d="M21.59 13L18.59 16H12.45L13.25 13H21.59Z" fill="#D1D1D1"/>
<path d="M24.05 13H24V14H24.05V13Z" fill="#D1D1D1"/>
<path d="M10.05 14.2C10.4035 13.7044 10.8968 13.3254 11.4669 13.1116C12.0369 12.8979 12.6577 12.859 13.25 13C13.3644 13.5277 13.3515 14.075 13.2124 14.5967C13.0733 15.1183 12.812 15.5994 12.45 16C11.8938 16.0745 11.3307 15.9276 10.8818 15.591C10.4329 15.2543 10.1342 14.7548 10.05 14.2Z" fill="#DEDEDE"/>
<path d="M26.05 1L25.24 14H24V13H23.28L24.05 3L26.05 1Z" fill="#BBBBBB"/>
<path d="M12 0C9.83539 0.0124724 7.7613 0.870099 6.22 2.39L0 8.64L1.55 21C1.71063 22.3686 2.36505 23.6316 3.39051 24.5522C4.41597 25.4727 5.74204 25.9875 7.12 26H16V25H7.12C6.83814 24.9991 6.55696 24.9723 6.28 24.92C6.04169 24.8767 5.80751 24.8131 5.58 24.73C5.22738 24.6137 4.89127 24.4524 4.58 24.25C4.27779 24.0567 4.00213 23.8247 3.76 23.56C3.074 22.8302 2.64555 21.896 2.54 20.9L1.05 9L6.92 3.1C7.42129 2.59936 7.99837 2.18089 8.63 1.86C8.83778 1.74177 9.05523 1.64141 9.28 1.56C9.49254 1.4608 9.71339 1.3805 9.94 1.32C10.3938 1.16333 10.8632 1.05605 11.34 1C11.5597 0.985075 11.7803 0.985075 12 1H25.94V1.12L25.13 14H25.58L26.17 13.41L27 0H12Z" fill="#666666"/>
<path d="M27 15V20H17V19L21 15H27Z" fill="white"/>
<path d="M27 26.37L22 31.37V19L27 14V26.37Z" fill="#4795CC"/>
<path d="M22 19V31.37C21.239 31.8022 20.375 32.0199 19.5 32C18.625 32.0199 17.761 31.8022 17 31.37V19C17.761 19.4322 18.625 19.6499 19.5 19.63C20.375 19.6499 21.239 19.4322 22 19Z" fill="#67B1E6"/>
<path opacity="0.1" d="M22 22V23.39C21.2352 23.8106 20.3726 24.0211 19.5 24C18.9939 24.0017 18.4897 23.9378 18 23.81V22.81C18.4827 22.9748 18.99 23.056 19.5 23.05C21.12 23 22 22.29 22 22Z" fill="black"/>
<path d="M17 19C17.3111 19.1903 17.6478 19.3351 18 19.43L22.41 15H23V14H22L17 19Z" fill="#4795CC"/>
<path opacity="0.2" d="M27 14L26 15L22 19C21.239 19.4322 20.375 19.6499 19.5 19.63C18.9927 19.6296 18.4879 19.559 18 19.42L22.41 15H23V14H22L17 19V31.37C17.761 31.8022 18.625 32.0199 19.5 32C20.375 32.0199 21.239 31.8022 22 31.37L27 26.37V14ZM21.38 30.58C20.7969 30.8711 20.1515 31.0152 19.5 31C18.9892 31.005 18.4815 30.9204 18 30.75V20.46C18.4919 20.5736 18.9952 20.6306 19.5 20.63C20.5519 20.6445 21.5883 20.375 22.5 19.85L22.6 19.79L26 16.42V26L21.38 30.58Z" fill="black"/>
<path d="M32 15V20H22V19L26 15H32Z" fill="white"/>
<path d="M32 26.37L27 31.37V19L32 14V26.37Z" fill="#4795CC"/>
<path d="M27 19V31.37C26.2315 31.7831 25.3725 31.9994 24.5 31.9994C23.6275 31.9994 22.7685 31.7831 22 31.37V19C22.7685 19.4131 23.6275 19.6294 24.5 19.6294C25.3725 19.6294 26.2315 19.4131 27 19Z" fill="#67B1E6"/>
<path opacity="0.1" d="M27 22V23.39C26.2352 23.8106 25.3726 24.0211 24.5 24C23.9939 24.0017 23.4897 23.9378 23 23.81V22.81C23.4827 22.9748 23.99 23.056 24.5 23.05C26.12 23 27 22.29 27 22Z" fill="black"/>
<path d="M22 19C22.3111 19.1903 22.6478 19.3351 23 19.43L27.41 15H28V14H27L22 19Z" fill="#4795CC"/>
<path opacity="0.2" d="M32 14L31 15L27 19C26.239 19.4322 25.375 19.6499 24.5 19.63C23.9927 19.6296 23.4879 19.559 23 19.42L27.41 15H28V14H27L22 19V31.37C22.7685 31.7831 23.6275 31.9994 24.5 31.9994C25.3725 31.9994 26.2315 31.7831 27 31.37L32 26.37V14ZM26.38 30.58C25.7969 30.8711 25.1515 31.0152 24.5 31C23.9892 31.005 23.4815 30.9204 23 30.75V20.46C23.4919 20.5736 23.9952 20.6306 24.5 20.63C25.5519 20.6445 26.5883 20.375 27.5 19.85L27.6 19.79L31 16.42V26L26.38 30.58Z" fill="black"/>
<path opacity="0.3" d="M26 15L25 16H21.4L22.4 15H26Z" fill="black"/>
<path opacity="0.3" d="M31 15L30 16H26.4L27.4 15H31Z" fill="black"/>
</g>
<defs>
<clipPath id="clip0_10427_37687">
<rect width="32" height="32" fill="white"/>
</clipPath>
</defs>
</svg>
