<svg width="16" height="16" viewBox="0 0 16 16" fill="none" xmlns="http://www.w3.org/2000/svg">
<g clip-path="url(#clip0_14040_9535)">
<path d="M1.77728 6.30468C1.77728 6.30468 3.95444 2.98071 7.95444 2.98071C10.8333 2.98071 12.293 3.90762 13.0844 4.37562C17.9484 7.25175 15.6376 13.4185 13.6632 13.9667C11.7704 14.3798 11.7621 11.9012 8.50231 11.9012C5.24248 11.9012 3.99993 15 2.49994 15C0.999945 15 1.77728 6.30468 1.77728 6.30468Z" fill="#67B1E6"/>
<path fill-rule="evenodd" clip-rule="evenodd" d="M15.5066 11.7891C15.0532 12.9346 14.3386 13.7793 13.6633 13.9668C12.7936 14.1566 12.3217 13.7358 11.7495 13.2255C11.0764 12.6253 10.2643 11.9012 8.50241 11.9012C6.56012 11.9012 5.33398 13.0013 4.34284 13.8906C4.0439 14.1588 3.76633 14.4078 3.49695 14.6017C3.54484 13.8263 3.59061 13.3143 3.59061 13.3143C3.59061 13.3143 5.76777 9.99036 9.76777 9.99036C12.5492 9.99036 14.0059 10.8556 14.8151 11.3362C14.8434 11.3531 14.871 11.3694 14.8977 11.3853C15.1148 11.5136 15.3175 11.6485 15.5066 11.7891Z" fill="#4795CC"/>
<path fill-rule="evenodd" clip-rule="evenodd" d="M3.49686 14.6017C3.46477 14.6248 3.43281 14.6471 3.40094 14.6685C3.33168 12.2193 3.59051 9.32397 3.59051 9.32397C3.59051 9.32397 5.76768 6 9.76768 6C12.5491 6 14.0058 6.86523 14.815 7.34587L14.8977 7.3949C15.2507 7.60365 15.5659 7.82974 15.8462 8.06975C16.1271 9.37815 15.9315 10.7157 15.5065 11.7891C15.3174 11.6485 15.1147 11.5136 14.8977 11.3853L14.815 11.3362C14.0058 10.8556 12.5491 9.99036 9.76768 9.99036C5.76768 9.99036 3.59051 13.3143 3.59051 13.3143C3.59051 13.3143 3.54475 13.8263 3.49686 14.6017Z" fill="#89CBFA"/>
<path fill-rule="evenodd" clip-rule="evenodd" d="M1.77728 6.30468C1.77728 6.30468 0.999945 15 2.49994 15C3.10619 15 3.6704 14.4938 4.34273 13.8906C5.33387 13.0013 6.56001 11.9012 8.50231 11.9012C10.2642 11.9012 11.0763 12.6253 11.7494 13.2255C12.3216 13.7358 12.7935 14.1566 13.6632 13.9667C15.6376 13.4185 17.9484 7.25175 13.0844 4.37562C13.0576 4.35978 13.0301 4.34341 13.0017 4.32658C12.1925 3.84595 10.7358 2.98071 7.95444 2.98071C3.95444 2.98071 1.77728 6.30468 1.77728 6.30468ZM13.4153 12.9968C13.5539 12.9461 13.8799 12.7166 14.2313 12.1284C14.5745 11.5539 14.8513 10.7799 14.9442 9.93489C15.1265 8.27583 14.6051 6.43655 12.5754 5.23639C12.5464 5.2192 12.5165 5.20141 12.4857 5.18308C11.7386 4.73867 10.4646 3.98071 7.95444 3.98071C6.24619 3.98071 4.91505 4.68791 3.98853 5.42519C3.52601 5.79323 3.17403 6.16165 2.93982 6.43541C2.86375 6.52432 2.80065 6.6026 2.75074 6.66684C2.74857 6.6944 2.74626 6.72387 2.74385 6.75516C2.72588 6.98836 2.70177 7.32252 2.67743 7.72386C2.62863 8.52839 2.57944 9.59464 2.57611 10.6555C2.57273 11.729 2.61687 12.7463 2.74017 13.4744C2.76574 13.6253 2.79274 13.7512 2.81927 13.8543C2.87252 13.8193 2.93354 13.7761 3.00319 13.7226C3.21355 13.5611 3.40261 13.3909 3.62973 13.1863C3.7907 13.0414 3.97079 12.8792 4.19114 12.6907C5.15793 11.8637 6.51322 10.9012 8.50231 10.9012C9.45162 10.9012 10.2078 11.0833 10.8373 11.3743C11.4589 11.6616 11.9112 12.0351 12.2556 12.3378C12.3231 12.3971 12.3839 12.451 12.4392 12.5001C12.698 12.7296 12.8386 12.8543 12.9975 12.9414C13.1053 13.0006 13.2095 13.0359 13.4153 12.9968ZM2.94583 14.2015C2.94582 14.2016 2.94474 14.2 2.94265 14.1966C2.9448 14.1996 2.94585 14.2014 2.94583 14.2015ZM2.61174 6.85575C2.61165 6.85588 2.61169 6.85583 2.61184 6.8556L2.61174 6.85575Z" fill="black" fill-opacity="0.2"/>
<path fill-rule="evenodd" clip-rule="evenodd" d="M13.981 5.01901C13.7132 4.78688 13.4152 4.57114 13.0845 4.37561L13.0018 4.32658C12.1926 3.84595 10.7359 2.98071 7.95451 2.98071C4.70256 2.98071 2.5 5.18307 1.5 6.5L2.875 6.52344C3.07781 6.3502 3.74075 5.68428 4 5.5C5.07074 4.73891 6.23466 3.98071 7.95451 3.98071C10.4646 3.98071 11.7387 4.73866 12.4857 5.18307L12.5755 5.23639C12.8297 5.38667 13.0611 5.55164 13.2711 5.7289L13.981 5.01901Z" fill="#CC2929"/>
<path d="M4.5 10.5C4.5 11.674 4.23456 12.7122 3.83069 13.4392C3.41741 14.1831 2.92632 14.5 2.5 14.5C2.07368 14.5 1.58259 14.1831 1.16931 13.4392C0.765443 12.7122 0.5 11.674 0.5 10.5C0.5 9.32597 0.765443 8.2878 1.16931 7.56084C1.58259 6.81694 2.07368 6.5 2.5 6.5C2.92632 6.5 3.41741 6.81694 3.83069 7.56084C4.23456 8.2878 4.5 9.32597 4.5 10.5Z" fill="#F3F3F3" stroke="#666666"/>
</g>
<defs>
<clipPath id="clip0_14040_9535">
<rect width="16" height="16" fill="white"/>
</clipPath>
</defs>
</svg>
