<svg width="16" height="16" viewBox="0 0 16 16" fill="none" xmlns="http://www.w3.org/2000/svg">
<g clip-path="url(#clip0_75_76)">
<path d="M5 10C5 12.2091 3.88071 14 2.5 14C1.11929 14 0 12.2091 0 10C0 7.79086 1.11929 6 2.5 6C3.88071 6 5 7.79086 5 10Z" fill="#D9D9D9"/>
<path fill-rule="evenodd" clip-rule="evenodd" d="M2.91003 5.03195C3.87238 5.18375 4.62566 5.85741 5.11576 6.64157C5.68228 7.548 6 8.73799 6 10C6 11.1478 5.73719 12.236 5.26342 13.1055C6.09494 12.4614 7.11629 11.9012 8.50236 11.9012C10.2643 11.9012 11.0763 12.6253 11.7494 13.2255C12.3217 13.7358 12.7935 14.1566 13.6633 13.9667C15.6377 13.4185 17.9485 7.25175 13.0845 4.37562C13.0577 4.35978 13.0301 4.34341 13.0018 4.32658C12.1926 3.84595 10.7359 2.98071 7.9545 2.98071C5.63962 2.98071 3.93524 4.09397 2.91003 5.03195Z" fill="#89CBFA"/>
<path fill-rule="evenodd" clip-rule="evenodd" d="M5.91308 11.13C5.79973 11.8539 5.5781 12.528 5.2634 13.1056C6.09492 12.4615 7.11629 11.9012 8.50239 11.9012C10.2643 11.9012 11.0763 12.6253 11.7495 13.2255C12.3217 13.7358 12.7936 14.1566 13.6633 13.9668C14.3386 13.7793 15.0532 12.9346 15.5066 11.7891C15.3175 11.6485 15.1148 11.5136 14.8977 11.3853L14.815 11.3362C14.0058 10.8556 12.5491 9.99036 9.76775 9.99036C8.19321 9.99036 6.90111 10.5054 5.91308 11.13Z" fill="#67B1E6"/>
<path fill-rule="evenodd" clip-rule="evenodd" d="M5.50987 7.41174C5.82743 8.17892 6 9.0699 6 10C6 10.3854 5.97037 10.7641 5.91308 11.13C6.90111 10.5054 8.19321 9.99036 9.76774 9.99036C12.5491 9.99036 14.0058 10.8556 14.815 11.3362L14.8977 11.3853C15.1147 11.5136 15.3175 11.6485 15.5066 11.7891C15.9316 10.7157 16.1272 9.37815 15.8463 8.06975C15.566 7.82974 15.2507 7.60365 14.8977 7.3949L14.815 7.34587C14.0058 6.86523 12.5491 6 9.76774 6C7.96918 6 6.53915 6.67203 5.50987 7.41174Z" fill="#B2DFFF"/>
<path fill-rule="evenodd" clip-rule="evenodd" d="M13.0845 4.37561C13.4151 4.57114 13.7132 4.78688 13.981 5.01901L13.2711 5.7289C13.0611 5.55164 12.8297 5.38667 12.5755 5.23639L12.4857 5.18307C11.7387 4.73866 10.4646 3.98071 7.95451 3.98071C6.24877 3.98071 5.08987 4.72652 4.02636 5.48127C3.68427 5.24993 3.29677 5.08622 2.86852 5.02574C4.05949 3.97426 5.77029 2.98071 7.95451 2.98071C10.7359 2.98071 12.1926 3.84595 13.0018 4.32658L13.0845 4.37561Z" fill="#E67373"/>
</g>
<defs>
<clipPath id="clip0_75_76">
<rect width="16" height="16" fill="white"/>
</clipPath>
</defs>
</svg>
