<?xml version="1.0" encoding="UTF-8"?>
<svg
  xmlns="http://www.w3.org/2000/svg"
  width="16px"
  height="17px"
  viewBox="0 0 16 17"
  version="1.1"
>
  <g
    id="Migration-Workflows"
    stroke="none"
    strokeWidth="1"
    fill="none"
    fillRule="evenodd"
  >
    <g
      id="ME-Migration-Workflows-1.3b-4"
      transform="translate(-530.000000, -280.000000)"
      fill="#62676B"
      fillRule="nonzero"
    >
      <g id="Group" transform="translate(268.000000, 164.000000)">
        <g id="Group-5" transform="translate(255.500000, 109.566406)">
          <g id="repeat" transform="translate(6.500000, 6.500000)">
            <path
              d="M15.5294118,1.29411765 L15.5294118,5.82352941 C15.5294118,6.17747059 15.2362941,6.47058824 14.8823529,6.47058824 L10.3529412,6.47058824 C10.0902353,6.47058824 9.85729412,6.30882353 9.75635294,6.06617647 C9.65541176,5.83388235 9.70588235,5.55047059 9.89805882,5.36864706 L11.2931176,3.97358824 C10.3425882,3.09423529 9.08923529,2.58823529 7.76470588,2.58823529 C4.91376471,2.58823529 2.58823529,4.91376471 2.58823529,7.76470588 C2.58823529,10.6156471 4.91376471,12.9411765 7.76470588,12.9411765 C9.372,12.9411765 10.8582941,12.2132353 11.8489412,10.9294706 C11.8994118,10.8589412 11.9906471,10.8181765 12.0812353,10.8084706 C12.1724706,10.8084706 12.2630588,10.8388824 12.3342353,10.8997059 L13.7195882,12.2947647 C13.8405882,12.4060588 13.8405882,12.5982353 13.7396471,12.7295882 C12.2637059,14.509 10.0798824,15.5300588 7.76470588,15.5300588 C3.48829412,15.5300588 -3.4482221e-15,12.0417647 -3.4482221e-15,7.76535294 C-3.4482221e-15,3.48894118 3.48829412,0.000647058824 7.76470588,0.000647058824 C9.75635294,0.000647058824 11.6871765,0.799117647 13.1132941,2.14435294 L14.4274706,0.839882353 C14.6092941,0.647705882 14.8927059,0.597235294 15.1353529,0.698176471 C15.3676471,0.799117647 15.5294118,1.03205882 15.5294118,1.29476471 L15.5294118,1.29411765 Z"
              id="Path"
            />
          </g>
        </g>
      </g>
    </g>
  </g>
</svg>