<svg width="32" height="32" viewBox="0 0 32 32" fill="none" xmlns="http://www.w3.org/2000/svg">
<g clip-path="url(#clip0_68_10026)">
<path d="M1 9H21L29 1H9L1 9Z" fill="#F3F3F3"/>
<path d="M27.7702 13L25.0099 23.2629L22.3688 13H18V29H21.0979V18.5314L23.2823 26.7143H26.5986L26.5787 26.6914L28.7234 18.76V29H32V13H27.7702Z" fill="#3F653A"/>
<path d="M1 9H21V12H17V29H1V9Z" fill="#D9D9D9"/>
<path d="M21 12H23.144L25.0313 19.3334L27.0036 12H29V1L21 9V12Z" fill="#BBBBBB"/>
<path d="M1 9L9 1H29V12H28V2H9.41L2 9.41V28H17V29H1V9Z" fill="#666666"/>
<rect x="18" y="30" width="14" height="2" fill="#EDD768"/>
</g>
<defs>
<clipPath id="clip0_68_10026">
<rect width="32" height="32" fill="white"/>
</clipPath>
</defs>
</svg>
