<svg width="16" height="16" viewBox="0 0 16 16" fill="none" xmlns="http://www.w3.org/2000/svg">
<path fill-rule="evenodd" clip-rule="evenodd" d="M13.3034 14.0208L1.98967 2.70711L2.69678 2L4.51226 3.81548C4.51228 3.81547 4.5123 3.81546 4.51232 3.81545L5.27697 4.5801C5.27695 4.58011 5.27693 4.58012 5.27691 4.58013L6.26169 5.56491L6.26174 5.56487L6.98403 6.28716L6.98397 6.28719L9.72306 9.02629L9.7231 9.02623L10.4454 9.74851L10.4453 9.74856L11.6992 11.0025C11.6993 11.0025 11.6993 11.0024 11.6993 11.0024L12.4334 11.7366C12.4334 11.7366 12.4334 11.7366 12.4334 11.7366L14.0105 13.3137L13.3034 14.0208ZM5.10162 7.23318C5.03534 7.48102 5 7.74151 5 8.01025C5 9.66711 6.34315 11.0103 8 11.0103C8.26874 11.0103 8.52923 10.9749 8.77708 10.9086L7.87485 10.0064C6.86997 9.94436 6.0659 9.14029 6.00385 8.13541L5.10162 7.23318ZM9.99615 7.88506C9.93408 6.88021 9.13004 6.07617 8.12519 6.01411L7.22295 5.11187C7.47079 5.04559 7.73127 5.01025 8 5.01025C9.65685 5.01025 11 6.3534 11 8.01025C11 8.27899 10.9647 8.53947 10.8984 8.7873L9.99615 7.88506ZM0 8.01025C0.673632 6.74789 1.61081 5.67813 2.72409 4.85565L3.44009 5.57164C2.5333 6.21701 1.75134 7.04285 1.1511 8.0136C2.61033 10.4026 5.17947 11.9135 7.9997 12.0097C8.56355 11.9901 9.11735 11.9141 9.65426 11.7858L10.4681 12.5996C9.67785 12.8431 8.84896 12.9839 8 13.0103C4.62698 12.9076 1.57036 10.9972 0 8.01025ZM14.8495 8.01193C14.2544 8.98535 13.4751 9.81304 12.5698 10.4587L13.2857 11.1746C14.3983 10.3508 15.3328 9.27742 16 8.01025C14.4201 5.03215 11.3692 3.12534 8 3.01025C7.15391 3.04122 6.32801 3.18469 5.54041 3.42932L6.35294 4.24185C6.88783 4.11221 7.43947 4.03386 8.00122 4.01095C10.8189 4.119 13.3836 5.62885 14.8495 8.01193Z" fill="#666666"/>
</svg>
