<svg width="182" height="147" viewBox="0 0 182 147" fill="none" xmlns="http://www.w3.org/2000/svg">
<path d="M65.1 84.7L82 87V24L45.5 28.5L27 55L65.1 84.7Z" fill="#CCD9E0"/>
<path d="M98.9 86.2L82 88.5V24L118.5 30L129 51L98.9 86.2Z" fill="#E7F0F4"/>
<path d="M82.66 24.78L118.06 30.6L128.21 50.9L98.56 85.58L82.66 87.74V24.74V24.78ZM82 24V88.5L98.9 86.2L129 51L118.5 30L82 24Z" fill="#8CA9B8"/>
<path opacity="0.2" d="M82 81.5V24L93 86L82 81.5Z" fill="#5A7D91"/>
<path d="M82.5 101.5L60 88.5L82 76L104 88.5L82.5 101.5Z" fill="#CBD9DF"/>
<path d="M82.5 101.5L60 88.5L82 76L104 88.5L82.5 101.5Z" stroke="#8CA9B8" stroke-width="0.66" stroke-linecap="round" stroke-linejoin="round"/>
<path opacity="0.3" d="M154.94 101.32L177.22 89.7L125.71 61L33 116.69L81.61 144.76L98.59 133.07L126.52 146.63L181.77 114.73L154.94 101.32Z" fill="#5A7D91"/>
<path d="M129 104.5V51.5L74 83V136L129 104.5Z" fill="#CBD8DF"/>
<path d="M27 55V108L74 135.5V82.5L27 55Z" fill="#E7F0F4"/>
<path d="M129 51V104L74 135.5V82.5L105.5 74L129 51ZM129 50.34C128.828 50.3409 128.663 50.4091 128.54 50.53L105.16 73.41L73.83 81.86C73.6891 81.8976 73.5646 81.9807 73.476 82.0965C73.3873 82.2123 73.3395 82.3542 73.34 82.5V135.5C73.3403 135.616 73.3709 135.729 73.4288 135.829C73.4867 135.929 73.5699 136.012 73.67 136.07C73.77 136.129 73.8839 136.16 74 136.16C74.1161 136.16 74.23 136.129 74.33 136.07L129.33 104.57C129.431 104.513 129.515 104.43 129.573 104.33C129.631 104.23 129.661 104.116 129.66 104V51C129.661 50.8703 129.623 50.7432 129.552 50.6347C129.481 50.5262 129.379 50.4411 129.26 50.39C129.174 50.3758 129.086 50.3758 129 50.39V50.34Z" fill="#8CA9B8"/>
<path d="M31.5 104.73V95.88L45.5 104.28V113.12L31.5 104.73Z" fill="#E7F0F4"/>
<path d="M32 96.77L45 104.57V112.24L32 104.45V96.77ZM31 95V105L46 114V104L31 95Z" fill="#5A7D91"/>
<path d="M33.4 106.4L33.04 106.19V96.68L33.4 96.89V106.4Z" fill="#5A7D91"/>
<path d="M35.69 107.72L35.45 107.58V98.07L35.69 98.2V107.72Z" fill="#5A7D91"/>
<path d="M42.17 111.47L41.93 111.33V101.81L42.17 101.95V111.47Z" fill="#5A7D91"/>
<path d="M33.64 106.54L33.52 106.47V96.96L33.64 97.03V106.54Z" fill="#5A7D91"/>
<path d="M36.05 107.93L35.93 107.86V98.34L36.05 98.41V107.93Z" fill="#5A7D91"/>
<path d="M36.41 108.14L36.29 108.07V98.55L36.41 98.62V108.14Z" fill="#5A7D91"/>
<path d="M39.29 109.8L39.17 109.73V100.22L39.29 100.29V109.8Z" fill="#5A7D91"/>
<path d="M39.65 110.01L39.53 109.94V100.42L39.65 100.5V110.01Z" fill="#5A7D91"/>
<path d="M42.89 111.88L42.78 111.81V102.3L42.89 102.37V111.88Z" fill="#5A7D91"/>
<path d="M43.38 112.16L43.26 112.09V102.58L43.38 102.64V112.16Z" fill="#5A7D91"/>
<path d="M44.58 112.85L44.46 112.78V103.27L44.58 103.34V112.85Z" fill="#5A7D91"/>
<path d="M40.49 110.49L40.37 110.42V100.91L40.49 100.98V110.49Z" fill="#5A7D91"/>
<path d="M41.69 111.19L41.57 111.12V101.61L41.69 101.67V111.19Z" fill="#5A7D91"/>
<path d="M34.84 107.23L34.48 107.03V97.51L34.84 97.72V107.23Z" fill="#5A7D91"/>
<path d="M37.25 108.62L36.77 108.34V98.83L37.25 99.11V108.62Z" fill="#5A7D91"/>
<path d="M41.21 110.91L40.73 110.63V101.12L41.21 101.4V110.91Z" fill="#5A7D91"/>
<path d="M34.36 106.96L33.88 106.68V97.17L34.36 97.44V106.96Z" fill="#5A7D91"/>
<path d="M38.81 109.52L38.33 109.25V99.73L38.81 100.01V109.52Z" fill="#5A7D91"/>
<path d="M38.09 109.11L37.73 108.9V99.39L38.09 99.59V109.11Z" fill="#5A7D91"/>
<path d="M44.1 112.58L43.74 112.37V102.85L44.1 103.06V112.58Z" fill="#5A7D91"/>
<path d="M120.34 66.14V82.63L83.66 104.83V87.38L120.34 66.14ZM121 65L83 87V106L121 83V65Z" fill="#8CA9B8"/>
<path d="M115.24 75.72L88.84 90.85V89.21L115.24 74.08V75.72Z" fill="#8CA6B5"/>
<path d="M115.24 79L88.84 94.14V92.5L115.24 77.36V79Z" fill="#8CA6B5"/>
<path d="M107.08 86.96L88.84 97.42V95.78L107.08 85.32V86.96Z" fill="#8CA6B5"/>
<path opacity="0.2" d="M27 55C27 55 32.69 92.64 36.46 113.76L74 135.5V82.5L27 55Z" fill="#5A7D91"/>
<path d="M92.52 119.41L79.52 126.94C79.25 127.1 79.04 126.94 79.04 126.58V115.5C79.0415 115.321 79.0858 115.145 79.1693 114.987C79.2529 114.828 79.3731 114.692 79.52 114.59L92.52 107.06C92.78 106.9 93 107.06 93 107.42V118.5C92.9961 118.679 92.9508 118.854 92.8675 119.012C92.7841 119.17 92.6652 119.306 92.52 119.41Z" fill="#46697F"/>
<path d="M90.93 110.2H90.85C90.8205 110.192 90.7895 110.192 90.76 110.2L87.11 112.34L81 120.34V123.89L87.13 115.89L90.3 114.02H90.37C90.3791 114.015 90.3895 114.012 90.4 114.012C90.4105 114.012 90.4209 114.015 90.43 114.02C90.4464 114.016 90.4636 114.016 90.48 114.02C90.48 114.02 90.48 114.02 90.48 114.1C90.4832 114.14 90.4832 114.18 90.48 114.22C90.4627 114.26 90.4391 114.297 90.41 114.33L87.41 118.2C87.2471 118.42 87.1563 118.686 87.15 118.96V120.29L90.97 118.05V110.36C90.9756 110.327 90.9756 110.293 90.97 110.26C90.9646 110.236 90.9503 110.214 90.93 110.2Z" fill="#CBD8DF"/>
<path d="M129 51L153 57L98 89L74 82.5L129 51ZM129 50.34C128.884 50.3405 128.77 50.3715 128.67 50.43L73.67 81.93C73.5572 81.9933 73.4663 82.0893 73.4092 82.2054C73.352 82.3214 73.3314 82.452 73.35 82.58C73.3638 82.711 73.4172 82.8347 73.5029 82.9347C73.5886 83.0347 73.7027 83.1063 73.83 83.14L97.83 89.64H98C98.1162 89.641 98.2304 89.6099 98.33 89.55L153.33 57.55C153.444 57.485 153.535 57.3872 153.592 57.2694C153.649 57.1517 153.669 57.0194 153.65 56.89C153.635 56.759 153.58 56.6359 153.492 56.5374C153.404 56.439 153.288 56.37 153.16 56.34L129.16 50.34H129Z" fill="#8CA9B8"/>
<path d="M27 55L74 82.5L54 88L7 60L27 55ZM27 54.34H26.84L6.84 59.34C6.7137 59.3707 6.59949 59.4386 6.51215 59.5348C6.4248 59.6311 6.36832 59.7513 6.35 59.88C6.32902 60.0098 6.34733 60.143 6.40256 60.2624C6.4578 60.3818 6.54745 60.4819 6.66 60.55L53.66 88.55C53.7637 88.6089 53.8808 88.6399 54 88.64H54.18L74.18 83.14C74.304 83.1052 74.4149 83.0343 74.4986 82.9364C74.5823 82.8385 74.635 82.7179 74.65 82.59C74.6693 82.4605 74.6491 82.3283 74.592 82.2105C74.5349 82.0928 74.4436 81.995 74.33 81.93L27.33 54.43C27.2304 54.3701 27.1162 54.339 27 54.34Z" fill="#8CA9B8"/>
<path d="M102 6L149 33L129 51L82 24L102 6ZM102 5.34C101.837 5.34053 101.681 5.40106 101.56 5.51L81.56 23.51C81.4816 23.5792 81.4208 23.6661 81.3825 23.7635C81.3442 23.8608 81.3297 23.9659 81.34 24.07C81.3532 24.173 81.3898 24.2716 81.447 24.3583C81.5042 24.445 81.5805 24.5174 81.67 24.57L128.67 51.57C128.79 51.641 128.93 51.6715 129.068 51.6571C129.207 51.6427 129.337 51.5841 129.44 51.49L149.44 33.49C149.518 33.4208 149.579 33.3339 149.618 33.2365C149.656 33.1392 149.67 33.0341 149.66 32.93C149.647 32.827 149.61 32.7284 149.553 32.6417C149.496 32.555 149.42 32.4826 149.33 32.43L102.33 5.43C102.23 5.37152 102.116 5.34048 102 5.34Z" fill="#8CA9B8"/>
<path d="M57 2L82 24L27 55L3.00001 34L57 2ZM57 1.34C56.8808 1.34012 56.7637 1.37113 56.66 1.43L2.66001 33.43C2.5711 33.4847 2.49599 33.5592 2.44049 33.6477C2.385 33.7361 2.35062 33.8361 2.34001 33.94C2.33171 34.0448 2.3482 34.1502 2.38816 34.2475C2.42812 34.3447 2.49041 34.4313 2.57001 34.5L26.57 55.5C26.6901 55.6023 26.8423 55.6589 27 55.66C27.1129 55.6597 27.2235 55.6286 27.32 55.57L82.32 24.57C82.4124 24.5198 82.4915 24.4482 82.5506 24.3612C82.6098 24.2742 82.6473 24.1744 82.66 24.07C82.6696 23.9645 82.6547 23.8582 82.6165 23.7593C82.5784 23.6605 82.518 23.5717 82.44 23.5L57.44 1.5C57.3153 1.39913 57.1604 1.34282 57 1.34Z" fill="#8CA9B8"/>
<path d="M82 24L102 6L149 33L129 51L82 24Z" fill="white"/>
<path d="M3 34L57 2L82 24L27 55L3 34Z" fill="white"/>
<path d="M74 82.5L129 51L153 57L98 89L74 82.5Z" fill="white"/>
<path d="M74 82.5L27 55L7 60L54 88L74 82.5Z" fill="white"/>
<path d="M57 1.99999L82 24L102 5.99999L149 33L129 51L153 57L129 71V104L74 135.5L27 108V72L7 60L27 55L3 34L57 1.99999ZM57.14 0.459991L56.36 0.919991L2.36 32.92L0.880005 33.8L2.18 34.94L24.38 54.37L6.7 58.79L3.77 59.52L6.36 61.07L25.75 72.71V108.71L26.37 109.07L73.37 136.57L73.99 136.94L74.62 136.58L129.62 105.07L130.25 104.71V71.71L153.63 58.07L156.28 56.52L153.28 55.78L131.56 50.35L149.82 33.92L151.1 32.77L149.6 31.91L102.6 4.90999L101.82 4.44999L101.14 5.05999L82 22.33L57.83 1.05999L57.14 0.459991Z" fill="#5A7D91"/>
</svg>
