<svg width="16" height="16" viewBox="0 0 16 16" fill="none" xmlns="http://www.w3.org/2000/svg">
<path d="M14 4H0L4 0H14V4Z" fill="#F3F3F3"/>
<path d="M14 4H0L4 0H14V4Z" fill="#F3F3F3"/>
<path fill-rule="evenodd" clip-rule="evenodd" d="M10 4H0V14H7V10H10V7V4Z" fill="#D9D9D9"/>
<path fill-rule="evenodd" clip-rule="evenodd" d="M10 4V7H14V0L10 4Z" fill="#BBBBBB"/>
<path fill-rule="evenodd" clip-rule="evenodd" d="M4 0L0 4V9V14H7V13H1V9V4.4L4.4 1H13V6V7H14V5V0H4Z" fill="#666666"/>
<path fill-rule="evenodd" clip-rule="evenodd" d="M11 8H13V11H16V13H13V16H11V13H8V11H11V8Z" fill="#24B353"/>
</svg>
