<svg width="32" height="32" viewBox="0 0 32 32" fill="none" xmlns="http://www.w3.org/2000/svg">
<path d="M30 8H0L8 0H30V8Z" fill="#F3F3F3"/>
<path fill-rule="evenodd" clip-rule="evenodd" d="M22 15H27V21H30V13V0L22 8V15Z" fill="#BBBBBB"/>
<path fill-rule="evenodd" clip-rule="evenodd" d="M22 8L0 7.99997V30H21V27H15V21H21L20.9787 15H22V8Z" fill="#D9D9D9"/>
<path fill-rule="evenodd" clip-rule="evenodd" d="M8 0L0 8V30H21V29H1V8.39189L8.4 0.999988H29V21H30V0H8Z" fill="#666666"/>
<path fill-rule="evenodd" clip-rule="evenodd" d="M22 16H26V22H32V26H26V32H22V26H16V22H22V16Z" fill="#24B353"/>
<path fill-rule="evenodd" clip-rule="evenodd" d="M25 23V17H23V23H17V25H23V31H25V25H31V23H25ZM32 22V26H26V32H22V26H16V22H22V16H26V22H32Z" fill="black" fill-opacity="0.1"/>
</svg>
