<svg xmlns="http://www.w3.org/2000/svg" viewBox="0 0 157 157"><title>157x157</title><g id="0659d147-ce10-464f-9765-559a2993eb0e" data-name="Hole Shape"><path d="M87.5,54.5v20h-9v52.25l-18,12.75-18-12.75V74.5h-9v-20Z" fill="#c8c8c8" stroke="#979797" stroke-linejoin="bevel" stroke-width="3"/></g><g id="53c8c27e-9336-4591-ad6c-35c72599f9b3" data-name="BreakHole"><line x1="78.5" y1="116" x2="78.5" y2="121" fill="none" stroke="#c8c8c8" stroke-miterlimit="10" stroke-width="3"/></g><g id="88bcd8a5-b9fb-40b2-985e-2a743244f8a5" data-name="Threads"><line x1="48" y1="77" x2="73" y2="77" fill="none" stroke="#a0a0a0" stroke-miterlimit="10" stroke-width="2"/><line x1="52" y1="84" x2="70" y2="84" fill="none" stroke="#a0a0a0" stroke-miterlimit="10" stroke-width="2"/><line x1="48" y1="91" x2="73" y2="91" fill="none" stroke="#a0a0a0" stroke-miterlimit="10" stroke-width="2"/><line x1="52" y1="98" x2="70" y2="98" fill="none" stroke="#a0a0a0" stroke-miterlimit="10" stroke-width="2"/><line x1="48" y1="105" x2="73" y2="105" fill="none" stroke="#a0a0a0" stroke-miterlimit="10" stroke-width="2"/><line x1="52" y1="112" x2="70" y2="112" fill="none" stroke="#a0a0a0" stroke-miterlimit="10" stroke-width="2"/></g><g id="c66f107f-5137-4474-a69a-56cc760e1773" data-name="Indicating Lines"><g id="6c525e2a-a528-4e8c-9f77-4eb18c65e571" data-name="LINE"><line x1="83" y1="145.5" x2="157" y2="145.5" fill="none" stroke="#7c7c7c" stroke-miterlimit="10"/></g><g id="54d08a6c-9103-4e0a-89f7-817b697354ff" data-name="LINE"><line x1="103.66" y1="64.5" x2="157" y2="64.5" fill="none" stroke="#7c7c7c" stroke-miterlimit="10"/></g><g id="5f18b182-6d65-4b91-8540-47def092f7dd" data-name="LINE"><line x1="92" y1="37.5" x2="157" y2="37.5" fill="none" stroke="#7c7c7c" stroke-miterlimit="10"/></g><polyline points="157 10.5 19.5 10.5 19.5 51" fill="none" stroke="#7c7c7c" stroke-miterlimit="10"/><g id="41b8286b-fbbc-443b-bf7f-254b7a44712d" data-name="LINE"><polyline points="71.44 118.5 63.33 126.61 71.44 118.5 157 118.5" fill="none" stroke="#7c7c7c" stroke-miterlimit="10"/></g></g><g id="d7e27a37-9862-4fa2-b08e-045e900c8eea" data-name="Dim Ends"><g id="bc1de0a5-f56b-4f5b-846a-c6dcfe5b91f2" data-name="SPLINE"><line x1="13" y1="53.5" x2="28" y2="53.5" fill="none" stroke="red" stroke-miterlimit="10"/></g><g id="1d0af2cc-cb22-44db-bede-d69dcc9d37c6" data-name="POLYLINE"><line x1="32.5" y1="49" x2="32.5" y2="32" fill="none" stroke="red" stroke-miterlimit="10"/></g><g id="50b745c7-6146-47ea-b0a1-8b060a7b5783" data-name="POLYLINE"><line x1="88.5" y1="49" x2="88.5" y2="32" fill="none" stroke="red" stroke-miterlimit="10"/></g><g id="9cc13157-db08-4360-9302-9b960689066f" data-name="SPLINE"><line x1="108" y1="76.5" x2="91" y2="76.5" fill="none" stroke="red" stroke-miterlimit="10"/></g><g id="1997ef31-26be-4ff1-8a8a-39c3abd43984" data-name="SPLINE"><line x1="108" y1="53.5" x2="91" y2="53.5" fill="none" stroke="red" stroke-miterlimit="10"/></g><g id="dbf53c67-e4a6-4f4b-a7c0-8a98c324e290" data-name="LINE"><line x1="37" y1="126.5" x2="13" y2="126.5" fill="none" stroke="red" stroke-miterlimit="10"/></g><g id="a90ca89b-e061-490a-ba5d-59bab6ceec6e" data-name="LINE"><line x1="79.5" y1="152" x2="79.5" y2="139" fill="none" stroke="red" stroke-miterlimit="10"/></g><g id="713ec3aa-e500-4d4c-9ca3-8f9bbd960003" data-name="LINE"><line x1="41.5" y1="152" x2="41.5" y2="139" fill="none" stroke="red" stroke-miterlimit="10"/></g></g><g id="98fdc136-c1e9-4375-ba56-108adf4ed48a" data-name="Dims"><g id="34bf6ff4-494e-48ff-bb5c-dcfc7a05d1c0" data-name="POLYLINE"><line x1="38.31" y1="37" x2="82.69" y2="37" fill="none" stroke="#5286b8" stroke-miterlimit="10" stroke-width="2"/><polygon points="39.18 39.99 34 37 39.18 34.01 39.18 39.99" fill="#5286b8"/><polygon points="81.82 39.99 87 37 81.82 34.01 81.82 39.99" fill="#5286b8"/></g><g id="d8f0e2e8-5865-41ed-b067-1f3babb09a1a" data-name="LINE"><line x1="100" y1="59.31" x2="100" y2="70.69" fill="none" stroke="#5286b8" stroke-miterlimit="10" stroke-width="2"/><polygon points="97.01 60.18 100 55 102.99 60.18 97.01 60.18" fill="#5286b8"/><polygon points="97.01 69.82 100 75 102.99 69.82 97.01 69.82" fill="#5286b8"/></g><g id="c66406d2-1926-4005-8104-d57ac651108b" data-name="SPLINE"><line x1="47.31" y1="146" x2="73.69" y2="146" fill="none" stroke="#5286b8" stroke-miterlimit="10" stroke-width="2"/><polygon points="48.18 148.99 43 146 48.18 143.01 48.18 148.99" fill="#5286b8"/><polygon points="72.82 148.99 78 146 72.82 143.01 72.82 148.99" fill="#5286b8"/></g><g id="09a81391-77e6-4a49-853c-3e796872b388" data-name="SPLINE"><path d="M52.83,128.84a12.47,12.47,0,0,1,7.67-2.4,12.46,12.46,0,0,1,7.68,2.4" fill="none" stroke="#5286b8" stroke-miterlimit="10" stroke-width="2"/><polygon points="55.63 130.44 49.84 131.95 51.43 126.18 55.63 130.44" fill="#5286b8"/><polygon points="65.37 130.44 71.16 131.95 69.57 126.18 65.37 130.44" fill="#5286b8"/></g><g id="6a6102ef-4c14-49c8-9e29-09161ae229ff" data-name="LINE"><line x1="20" y1="120.69" x2="20" y2="59.31" fill="none" stroke="#5286b8" stroke-miterlimit="10" stroke-width="2"/><polygon points="22.99 119.82 20 125 17.01 119.82 22.99 119.82" fill="#5286b8"/><polygon points="22.99 60.18 20 55 17.01 60.18 22.99 60.18" fill="#5286b8"/></g></g></svg>