<svg xmlns="http://www.w3.org/2000/svg" viewBox="0 0 157 157"><title>157x157</title><g id="ffbe698e-16e2-4d27-9238-75e72381d6a9" data-name="Hole Shape"><polygon points="87.5 54.5 78.5 63.5 78.5 78.5 78.5 126.75 78.5 133.5 42.5 133.5 42.5 126.75 42.5 78.5 42.5 63.5 33.5 54.5 87.5 54.5" fill="#c8c8c8" stroke="#979797" stroke-linejoin="bevel" stroke-width="3"/></g><g id="02da14cd-6ad1-43b4-a529-eb415ce3b607" data-name="BreakHole"><polyline points="78.5 67 78.5 63.5 79.72 62.28" fill="none" stroke="#c8c8c8" stroke-miterlimit="10" stroke-width="3"/></g><g id="5c0271cd-9b6b-4537-b04e-26bb5688a415" data-name="Threads"><line x1="48" y1="91" x2="73" y2="91" fill="none" stroke="#a0a0a0" stroke-miterlimit="10" stroke-width="2"/><line x1="52" y1="98" x2="70" y2="98" fill="none" stroke="#a0a0a0" stroke-miterlimit="10" stroke-width="2"/><line x1="48" y1="105" x2="73" y2="105" fill="none" stroke="#a0a0a0" stroke-miterlimit="10" stroke-width="2"/><line x1="52" y1="112" x2="70" y2="112" fill="none" stroke="#a0a0a0" stroke-miterlimit="10" stroke-width="2"/><line x1="48" y1="119" x2="73" y2="119" fill="none" stroke="#a0a0a0" stroke-miterlimit="10" stroke-width="2"/><line x1="52" y1="126" x2="70" y2="126" fill="none" stroke="#a0a0a0" stroke-miterlimit="10" stroke-width="2"/><line x1="52" y1="84" x2="70" y2="84" fill="none" stroke="#a0a0a0" stroke-miterlimit="10" stroke-width="2"/></g><g id="619bdfa7-ad50-4474-9844-bbbe3bc3c34c" data-name="Indicating Lines"><g id="d89483e3-742a-405b-86b9-155141826a73" data-name="LINE"><line x1="83" y1="145.5" x2="157" y2="145.5" fill="none" stroke="#7c7c7c" stroke-miterlimit="10"/></g><g id="bac6bfb0-d83a-4b62-9601-fb2126fce9f7" data-name="LINE"><line x1="92" y1="37.5" x2="157" y2="37.5" fill="none" stroke="#7c7c7c" stroke-miterlimit="10"/></g><polyline points="157 10.5 19.5 10.5 19.5 51" fill="none" stroke="#7c7c7c" stroke-miterlimit="10"/><g id="dadb070e-078a-40cd-8d82-2b89574cb210" data-name="LINE"><polyline points="64.77 64.5 60.5 68.77 64.77 64.5 157 64.5" fill="none" stroke="#7c7c7c" stroke-miterlimit="10"/></g></g><g id="0c093fd5-6e52-46b6-a50f-19ef63e4247f" data-name="Dim Ends"><g id="5455b938-4e8d-4f4b-9b75-00cf199e7013" data-name="SPLINE"><line x1="13" y1="53.5" x2="28" y2="53.5" fill="none" stroke="red" stroke-miterlimit="10"/></g><g id="22d563e4-d734-47a3-8d34-576761dc60df" data-name="POLYLINE"><line x1="32.5" y1="49" x2="32.5" y2="32" fill="none" stroke="red" stroke-miterlimit="10"/></g><g id="83096564-4fb1-4286-b9ff-fb9bc408d0d6" data-name="POLYLINE"><line x1="88.5" y1="49" x2="88.5" y2="32" fill="none" stroke="red" stroke-miterlimit="10"/></g><g id="6b40dfed-1507-42c3-9ca1-80ab9a37b7dc" data-name="LINE"><line x1="37" y1="133.5" x2="13" y2="133.5" fill="none" stroke="red" stroke-miterlimit="10"/></g><g id="afd21b81-f9cd-41b8-8ceb-ffa6ea3908d6" data-name="LINE"><line x1="79.5" y1="152" x2="79.5" y2="139" fill="none" stroke="red" stroke-miterlimit="10"/></g><g id="50c97ef9-e9ce-4b6b-aa60-25004c727bb4" data-name="LINE"><line x1="41.5" y1="152" x2="41.5" y2="139" fill="none" stroke="red" stroke-miterlimit="10"/></g><g id="c0f4b38e-0a4b-471e-a71a-bc1fd60ad14c" data-name="LINE"><line x1="64.74" y1="76.26" x2="74.26" y2="66.74" fill="none" stroke="red" stroke-linecap="square" stroke-miterlimit="10" stroke-width="0.75"/></g><g id="a6814c43-e36d-4cde-a797-35fa56f2f881" data-name="LINE"><line x1="56.26" y1="76.26" x2="46.74" y2="66.74" fill="none" stroke="red" stroke-linecap="square" stroke-miterlimit="10" stroke-width="0.75"/></g></g><g id="bb09eaaf-d64b-43ab-8227-bbae22c20078" data-name="Dims"><g id="96fee910-5132-4e4b-b48e-5090c2983f81" data-name="POLYLINE"><line x1="38.31" y1="37" x2="82.69" y2="37" fill="none" stroke="#5286b8" stroke-miterlimit="10" stroke-width="2"/><polygon points="39.18 39.99 34 37 39.18 34.01 39.18 39.99" fill="#5286b8"/><polygon points="81.82 39.99 87 37 81.82 34.01 81.82 39.99" fill="#5286b8"/></g><g id="7ee95aa4-d17d-4748-8064-47aafa20714c" data-name="SPLINE"><line x1="47.31" y1="146" x2="73.69" y2="146" fill="none" stroke="#5286b8" stroke-miterlimit="10" stroke-width="2"/><polygon points="48.18 148.99 43 146 48.18 143.01 48.18 148.99" fill="#5286b8"/><polygon points="72.82 148.99 78 146 72.82 143.01 72.82 148.99" fill="#5286b8"/></g><g id="0d761c5b-970c-4169-af13-0fc4ce3293af" data-name="LINE"><line x1="20" y1="127.69" x2="20" y2="59.31" fill="none" stroke="#5286b8" stroke-miterlimit="10" stroke-width="2"/><polygon points="22.99 126.82 20 132 17.01 126.82 22.99 126.82" fill="#5286b8"/><polygon points="22.99 60.18 20 55 17.01 60.18 22.99 60.18" fill="#5286b8"/></g><g id="420bdff4-993b-43a5-9ae4-1caf5341c7f1" data-name="ARC"><path d="M66,70a12.76,12.76,0,0,0-11,0" fill="none" stroke="#5286b8" stroke-miterlimit="10" stroke-width="2"/><polygon points="66.86 67.13 69.5 72.5 63.53 72.11 66.86 67.13" fill="#5286b8"/><polygon points="54.15 67.13 51.5 72.5 57.47 72.11 54.15 67.13" fill="#5286b8"/></g></g></svg>