<svg xmlns="http://www.w3.org/2000/svg" viewBox="0 0 157 157"><title>157x157</title><g id="0bce9966-b641-4962-b6e5-5a81b3a1a8f8" data-name="Hole Shape"><path d="M87.5,54.5v20h-9v52.25l-18,12.75-18-12.75V74.5h-9v-20Z" fill="#c8c8c8" stroke="#979797" stroke-linejoin="bevel" stroke-width="3"/></g><g id="6372575b-4b12-490b-92a5-46221ae7fe77" data-name="BreakHole"><line x1="78.5" y1="116" x2="78.5" y2="121" fill="none" stroke="#c8c8c8" stroke-miterlimit="10" stroke-width="3"/></g><g id="04796247-00ec-48a8-8b6f-94a4ec3656c2" data-name="Threads"><line x1="48" y1="77" x2="73" y2="77" fill="none" stroke="#a0a0a0" stroke-miterlimit="10" stroke-width="2"/><line x1="52" y1="84" x2="70" y2="84" fill="none" stroke="#a0a0a0" stroke-miterlimit="10" stroke-width="2"/><line x1="48" y1="91" x2="73" y2="91" fill="none" stroke="#a0a0a0" stroke-miterlimit="10" stroke-width="2"/><line x1="52" y1="98" x2="70" y2="98" fill="none" stroke="#a0a0a0" stroke-miterlimit="10" stroke-width="2"/><line x1="48" y1="105" x2="73" y2="105" fill="none" stroke="#a0a0a0" stroke-miterlimit="10" stroke-width="2"/><line x1="52" y1="112" x2="70" y2="112" fill="none" stroke="#a0a0a0" stroke-miterlimit="10" stroke-width="2"/></g><g id="a8207fec-6395-4377-8f7b-f0291624270f" data-name="Indicating Lines"><g id="28d7de4c-d349-4b87-934f-69d0b5dac046" data-name="LINE"><line x1="83" y1="145.5" x2="157" y2="145.5" fill="none" stroke="#7c7c7c" stroke-miterlimit="10"/></g><g id="bb859e1f-5a4a-43bf-88b4-bcd2ea5d2f52" data-name="LINE"><line x1="108" y1="64.5" x2="157" y2="64.5" fill="none" stroke="#7c7c7c" stroke-miterlimit="10"/></g><g id="31adcc73-86df-481f-b409-d25e43b2044c" data-name="LINE"><line x1="92" y1="37.5" x2="157" y2="37.5" fill="none" stroke="#7c7c7c" stroke-miterlimit="10"/></g><g id="8e36f261-c399-4ec4-86c6-b015348ca4bd" data-name="LINE"><line x1="100" y1="91.5" x2="157" y2="91.5" fill="none" stroke="#7c7c7c" stroke-miterlimit="10"/></g><polyline points="157 10.5 19.5 10.5 19.5 51" fill="none" stroke="#7c7c7c" stroke-miterlimit="10"/><g id="6930d303-efb8-46f0-8ab5-af33af30288a" data-name="LINE"><polyline points="71.44 118.5 63.33 126.61 71.44 118.5 157 118.5" fill="none" stroke="#7c7c7c" stroke-miterlimit="10"/></g></g><g id="21aaa1f8-bee8-4786-b789-9fd80d268905" data-name="Dim Ends"><g id="64672606-08ef-4abe-8b7e-c0d76c88e621" data-name="SPLINE"><line x1="13" y1="53.5" x2="28" y2="53.5" fill="none" stroke="red" stroke-miterlimit="10"/></g><g id="125a7e82-1647-4d20-9324-da37e238d17a" data-name="POLYLINE"><line x1="32.5" y1="49" x2="32.5" y2="32" fill="none" stroke="red" stroke-miterlimit="10"/></g><g id="1e56d0be-b4b4-4a9c-9e3e-74fb7f50c2ab" data-name="POLYLINE"><line x1="88.5" y1="49" x2="88.5" y2="32" fill="none" stroke="red" stroke-miterlimit="10"/></g><g id="4100a881-15b9-447b-8f89-1521b8757da3" data-name="SPLINE"><line x1="108" y1="76.5" x2="99" y2="76.5" fill="none" stroke="red" stroke-miterlimit="10"/></g><g id="42a4ea11-953c-4279-8182-2430756c2da3" data-name="SPLINE"><line x1="108" y1="53.5" x2="91" y2="53.5" fill="none" stroke="red" stroke-miterlimit="10"/></g><g id="8d4c1c6c-32c6-4066-9f35-b99e15a06994" data-name="LINE"><line x1="85" y1="112.5" x2="108" y2="112.5" fill="none" stroke="red" stroke-miterlimit="10"/></g><g id="821b8061-2764-4e4d-befa-253686381623" data-name="LINE"><line x1="37" y1="126.5" x2="13" y2="126.5" fill="none" stroke="red" stroke-miterlimit="10"/></g><g id="2ef1b1f1-e264-4943-80c6-04fa8ef2b013" data-name="LINE"><line x1="79.5" y1="152" x2="79.5" y2="139" fill="none" stroke="red" stroke-miterlimit="10"/></g><g id="b5a89c4c-1cfe-4ae9-bc0a-398ff6524710" data-name="LINE"><line x1="41.5" y1="152" x2="41.5" y2="139" fill="none" stroke="red" stroke-miterlimit="10"/></g></g><g id="6367b102-fcf1-42c9-8253-2ab6b300db34" data-name="Dims"><g id="fdadc446-80ad-46c4-86c8-f722c8229a97" data-name="POLYLINE"><line x1="38.31" y1="37" x2="82.69" y2="37" fill="none" stroke="#5286b8" stroke-miterlimit="10" stroke-width="2"/><polygon points="39.18 39.99 34 37 39.18 34.01 39.18 39.99" fill="#5286b8"/><polygon points="81.82 39.99 87 37 81.82 34.01 81.82 39.99" fill="#5286b8"/></g><g id="f2f6b4ef-5f59-4f13-8006-e613db3e1144" data-name="LINE"><line x1="96" y1="106.69" x2="96" y2="59.31" fill="none" stroke="#5286b8" stroke-miterlimit="10" stroke-width="2"/><polygon points="98.99 105.82 96 111 93.01 105.82 98.99 105.82" fill="#5286b8"/><polygon points="98.99 60.18 96 55 93.01 60.18 98.99 60.18" fill="#5286b8"/></g><g id="5439d95e-f517-4556-9bdd-c3319a41c64e" data-name="LINE"><line x1="104" y1="59.31" x2="104" y2="70.69" fill="none" stroke="#5286b8" stroke-miterlimit="10" stroke-width="2"/><polygon points="101.01 60.18 104 55 106.99 60.18 101.01 60.18" fill="#5286b8"/><polygon points="101.01 69.82 104 75 106.99 69.82 101.01 69.82" fill="#5286b8"/></g><g id="83e087a2-049f-44ce-ada7-86af9895f8c3" data-name="SPLINE"><line x1="47.31" y1="146" x2="73.69" y2="146" fill="none" stroke="#5286b8" stroke-miterlimit="10" stroke-width="2"/><polygon points="48.18 148.99 43 146 48.18 143.01 48.18 148.99" fill="#5286b8"/><polygon points="72.82 148.99 78 146 72.82 143.01 72.82 148.99" fill="#5286b8"/></g><g id="275b6452-a362-49de-9be3-319737e9d3fb" data-name="SPLINE"><path d="M52.83,128.84a12.47,12.47,0,0,1,7.67-2.4,12.46,12.46,0,0,1,7.68,2.4" fill="none" stroke="#5286b8" stroke-miterlimit="10" stroke-width="2"/><polygon points="55.63 130.44 49.84 131.95 51.43 126.18 55.63 130.44" fill="#5286b8"/><polygon points="65.37 130.44 71.16 131.95 69.57 126.18 65.37 130.44" fill="#5286b8"/></g><g id="3a6f669c-cf8d-437e-94c7-4fb09c8e721b" data-name="LINE"><line x1="20" y1="120.69" x2="20" y2="59.31" fill="none" stroke="#5286b8" stroke-miterlimit="10" stroke-width="2"/><polygon points="22.99 119.82 20 125 17.01 119.82 22.99 119.82" fill="#5286b8"/><polygon points="22.99 60.18 20 55 17.01 60.18 22.99 60.18" fill="#5286b8"/></g></g></svg>