<svg xmlns="http://www.w3.org/2000/svg" viewBox="0 0 157 157"><title>157x157</title><g id="a4687cab-d268-424b-8b29-b854fffd62df" data-name="Hole Shape"><path d="M87.5,54.5l-9,9v63.25l-18,12.75-18-12.75V63.5l-9-9Z" fill="#c8c8c8" stroke="#979797" stroke-linejoin="bevel" stroke-width="3"/></g><g id="15663dab-2c8e-4d2f-9921-8b69cb8e8a5a" data-name="BreakHole"><polyline points="78.5 67 78.5 63.5 79.72 62.28" fill="none" stroke="#c8c8c8" stroke-miterlimit="10" stroke-width="3"/><line x1="78.5" y1="116" x2="78.5" y2="121" fill="none" stroke="#c8c8c8" stroke-miterlimit="10" stroke-width="3"/></g><g id="ab9cd417-1785-4e54-8d6c-7a38bd76dde0" data-name="Threads"><line x1="52" y1="84" x2="70" y2="84" fill="none" stroke="#a0a0a0" stroke-miterlimit="10" stroke-width="2"/><line x1="48" y1="91" x2="73" y2="91" fill="none" stroke="#a0a0a0" stroke-miterlimit="10" stroke-width="2"/><line x1="52" y1="98" x2="70" y2="98" fill="none" stroke="#a0a0a0" stroke-miterlimit="10" stroke-width="2"/><line x1="48" y1="105" x2="73" y2="105" fill="none" stroke="#a0a0a0" stroke-miterlimit="10" stroke-width="2"/><line x1="52" y1="112" x2="70" y2="112" fill="none" stroke="#a0a0a0" stroke-miterlimit="10" stroke-width="2"/></g><g id="1a4ec768-9e6f-4e93-adc3-d90c766b5212" data-name="Indicating Lines"><g id="88bfc6e1-c080-441e-b385-120e5e0547f8" data-name="LINE"><line x1="83" y1="145.5" x2="157" y2="145.5" fill="none" stroke="#7c7c7c" stroke-miterlimit="10"/></g><g id="5212d325-33ec-47a6-9a17-ea66259e99f9" data-name="LINE"><line x1="92" y1="37.5" x2="157" y2="37.5" fill="none" stroke="#7c7c7c" stroke-miterlimit="10"/></g><g id="4e6a709a-5a74-4dc0-89f2-96742151d340" data-name="LINE"><line x1="100" y1="91.5" x2="157" y2="91.5" fill="none" stroke="#7c7c7c" stroke-miterlimit="10"/></g><polyline points="157 10.5 19.5 10.5 19.5 51" fill="none" stroke="#7c7c7c" stroke-miterlimit="10"/><g id="8e1cdad0-d4e8-4fec-9643-112c040b0e3c" data-name="LINE"><polyline points="71.44 118.5 63.33 126.61 71.44 118.5 157 118.5" fill="none" stroke="#7c7c7c" stroke-miterlimit="10"/></g><g id="3e2e382f-a198-4590-b4d6-a2b76bbbd983" data-name="LINE"><polyline points="64.77 64.5 60.5 68.77 64.77 64.5 157 64.5" fill="none" stroke="#7c7c7c" stroke-miterlimit="10"/></g></g><g id="7f26c7fd-9cae-4d14-800f-cf5ae88e9b41" data-name="Dim Ends"><g id="136763aa-f40f-4916-a426-2fce06c9227c" data-name="SPLINE"><line x1="13" y1="53.5" x2="28" y2="53.5" fill="none" stroke="red" stroke-miterlimit="10"/></g><g id="0547da09-f994-4e52-9309-8b98ab322186" data-name="POLYLINE"><line x1="32.5" y1="49" x2="32.5" y2="32" fill="none" stroke="red" stroke-miterlimit="10"/></g><g id="75bf1714-ea35-4a9c-8475-6d1d82442d20" data-name="POLYLINE"><line x1="88.5" y1="49" x2="88.5" y2="32" fill="none" stroke="red" stroke-miterlimit="10"/></g><g id="f013b448-59eb-49d6-9aec-87b1806e9167" data-name="SPLINE"><line x1="108" y1="53.5" x2="91" y2="53.5" fill="none" stroke="red" stroke-miterlimit="10"/></g><g id="cbff311e-d694-4544-a426-97dd32d55a7c" data-name="LINE"><line x1="85" y1="112.5" x2="108" y2="112.5" fill="none" stroke="red" stroke-miterlimit="10"/></g><g id="0b7f6aad-a968-4d27-afd0-f77a2789d126" data-name="LINE"><line x1="37" y1="126.5" x2="13" y2="126.5" fill="none" stroke="red" stroke-miterlimit="10"/></g><g id="eb172dd5-3cc8-4681-a0a2-8d314b5b1564" data-name="LINE"><line x1="79.5" y1="152" x2="79.5" y2="139" fill="none" stroke="red" stroke-miterlimit="10"/></g><g id="5ccf096a-4b35-436b-b157-7ab13d8a61af" data-name="LINE"><line x1="41.5" y1="152" x2="41.5" y2="139" fill="none" stroke="red" stroke-miterlimit="10"/></g><g id="5ce61432-39eb-4d1f-bcc5-df88ee9cbf4d" data-name="LINE"><line x1="64.74" y1="76.26" x2="74.26" y2="66.74" fill="none" stroke="red" stroke-linecap="square" stroke-miterlimit="10" stroke-width="0.75"/></g><g id="9f4a2f27-e052-43fd-acb4-afa2f824e817" data-name="LINE"><line x1="56.26" y1="76.26" x2="46.74" y2="66.74" fill="none" stroke="red" stroke-linecap="square" stroke-miterlimit="10" stroke-width="0.75"/></g></g><g id="b7c40733-9025-42de-971c-587ee0f14b87" data-name="Dims"><g id="c293f3d0-0f1e-4b6c-ac14-4c51416e98b4" data-name="POLYLINE"><line x1="38.31" y1="37" x2="82.69" y2="37" fill="none" stroke="#5286b8" stroke-miterlimit="10" stroke-width="2"/><polygon points="39.18 39.99 34 37 39.18 34.01 39.18 39.99" fill="#5286b8"/><polygon points="81.82 39.99 87 37 81.82 34.01 81.82 39.99" fill="#5286b8"/></g><g id="aa37d41c-5b8e-49ff-8c1e-9ded5cdc8cc4" data-name="LINE"><line x1="96" y1="106.69" x2="96" y2="59.31" fill="none" stroke="#5286b8" stroke-miterlimit="10" stroke-width="2"/><polygon points="98.99 105.82 96 111 93.01 105.82 98.99 105.82" fill="#5286b8"/><polygon points="98.99 60.18 96 55 93.01 60.18 98.99 60.18" fill="#5286b8"/></g><g id="9972f6b5-29bc-4c22-bd33-788350177d74" data-name="SPLINE"><line x1="47.31" y1="146" x2="73.69" y2="146" fill="none" stroke="#5286b8" stroke-miterlimit="10" stroke-width="2"/><polygon points="48.18 148.99 43 146 48.18 143.01 48.18 148.99" fill="#5286b8"/><polygon points="72.82 148.99 78 146 72.82 143.01 72.82 148.99" fill="#5286b8"/></g><g id="83ced7ad-6bdb-4c03-90a1-09678735fa91" data-name="SPLINE"><path d="M52.83,128.84a12.47,12.47,0,0,1,7.67-2.4,12.47,12.47,0,0,1,7.68,2.4" fill="none" stroke="#5286b8" stroke-miterlimit="10" stroke-width="2"/><polygon points="55.63 130.44 49.84 131.95 51.43 126.18 55.63 130.44" fill="#5286b8"/><polygon points="65.37 130.44 71.16 131.95 69.57 126.18 65.37 130.44" fill="#5286b8"/></g><g id="f4838727-2a6b-4e2f-8c35-51080d98fed3" data-name="LINE"><line x1="20" y1="120.69" x2="20" y2="59.31" fill="none" stroke="#5286b8" stroke-miterlimit="10" stroke-width="2"/><polygon points="22.99 119.82 20 125 17.01 119.82 22.99 119.82" fill="#5286b8"/><polygon points="22.99 60.18 20 55 17.01 60.18 22.99 60.18" fill="#5286b8"/></g><g id="a8a0f3b4-60ff-4f7f-9d29-8e433fe297e6" data-name="ARC"><path d="M66,70a12.76,12.76,0,0,0-11,0" fill="none" stroke="#5286b8" stroke-miterlimit="10" stroke-width="2"/><polygon points="66.86 67.13 69.5 72.5 63.53 72.11 66.86 67.13" fill="#5286b8"/><polygon points="54.15 67.13 51.5 72.5 57.47 72.11 54.15 67.13" fill="#5286b8"/></g></g></svg>