<svg xmlns="http://www.w3.org/2000/svg" viewBox="0 0 157 157"><title>157x157</title><g id="81bac0b0-7f96-4700-8391-8967b713e0c5" data-name="Hole Shape"><rect x="42.5" y="54.5" width="36" height="79" fill="#c8c8c8" stroke="#979797" stroke-linejoin="bevel" stroke-width="3"/></g><g id="c7a757ba-a396-4612-906b-d8ac95a426c8" data-name="Threads"><line x1="48" y1="77" x2="73" y2="77" fill="none" stroke="#a0a0a0" stroke-miterlimit="10" stroke-width="2"/><line x1="52" y1="84" x2="70" y2="84" fill="none" stroke="#a0a0a0" stroke-miterlimit="10" stroke-width="2"/><line x1="48" y1="91" x2="73" y2="91" fill="none" stroke="#a0a0a0" stroke-miterlimit="10" stroke-width="2"/><line x1="52" y1="98" x2="70" y2="98" fill="none" stroke="#a0a0a0" stroke-miterlimit="10" stroke-width="2"/><line x1="48" y1="105" x2="73" y2="105" fill="none" stroke="#a0a0a0" stroke-miterlimit="10" stroke-width="2"/><line x1="52" y1="112" x2="70" y2="112" fill="none" stroke="#a0a0a0" stroke-miterlimit="10" stroke-width="2"/></g><g id="879acb5f-1a47-4bdd-ad1f-581c437fdbf5" data-name="Indicating Lines"><g id="45e03de9-7f45-403f-91b2-a6f5799679ad" data-name="LINE"><line x1="83" y1="145.5" x2="157" y2="145.5" fill="none" stroke="#7c7c7c" stroke-miterlimit="10"/></g><g id="5283fc0e-8c7d-4b31-943c-da027487294d" data-name="LINE"><line x1="107" y1="64.5" x2="157" y2="64.5" fill="none" stroke="#7c7c7c" stroke-miterlimit="10"/></g><g id="55786e6e-76bb-429f-8a54-1ee842ad8783" data-name="LINE"><line x1="96.5" y1="91.5" x2="157" y2="91.5" fill="none" stroke="#7c7c7c" stroke-miterlimit="10"/></g><polyline points="157 10.5 24.5 10.5 24.5 51" fill="none" stroke="#7c7c7c" stroke-miterlimit="10"/></g><g id="7daf379c-372a-403a-8147-2040ae48384c" data-name="Dim Ends"><g id="7a4afd81-4618-4963-b48c-97bde4fd6f60" data-name="SPLINE"><line x1="13" y1="53.5" x2="37" y2="53.5" fill="none" stroke="red" stroke-miterlimit="10"/></g><g id="ffb7b282-27a3-4d32-9719-934e0d0ad372" data-name="SPLINE"><line x1="108" y1="76.5" x2="97.5" y2="76.5" fill="none" stroke="red" stroke-miterlimit="10"/></g><g id="66a1cb8e-e24a-4123-968a-6939b236bc80" data-name="SPLINE"><line x1="108" y1="53.5" x2="85" y2="53.5" fill="none" stroke="red" stroke-miterlimit="10"/></g><g id="30bb7f4a-4f55-4ff8-a96e-2721551809bc" data-name="LINE"><line x1="37" y1="133.5" x2="13" y2="133.5" fill="none" stroke="red" stroke-miterlimit="10"/></g><g id="3ab8c354-edac-4725-a811-6d4a94334da0" data-name="LINE"><line x1="79.5" y1="152" x2="79.5" y2="139" fill="none" stroke="red" stroke-miterlimit="10"/></g><g id="35923f9d-3b2a-43d2-bfe2-81a39d33b147" data-name="LINE"><line x1="41.5" y1="152" x2="41.5" y2="139" fill="none" stroke="red" stroke-miterlimit="10"/></g></g><g id="030bc0fa-1afb-4c88-ba3a-ac62724eb769" data-name="Dims"><g id="1f96f7af-8c9f-4aa1-92a0-696a8e1470b5" data-name="LINE"><line x1="103" y1="59.31" x2="103" y2="70.69" fill="none" stroke="#5286b8" stroke-miterlimit="10" stroke-width="2"/><polygon points="100.01 60.18 103 55 105.99 60.18 100.01 60.18" fill="#5286b8"/><polygon points="100.01 69.82 103 75 105.99 69.82 100.01 69.82" fill="#5286b8"/></g><g id="17fb7157-d5e3-4398-8502-d168d52d04e4" data-name="SPLINE"><line x1="47.31" y1="146" x2="73.69" y2="146" fill="none" stroke="#5286b8" stroke-miterlimit="10" stroke-width="2"/><polygon points="48.18 148.99 43 146 48.18 143.01 48.18 148.99" fill="#5286b8"/><polygon points="72.82 148.99 78 146 72.82 143.01 72.82 148.99" fill="#5286b8"/></g><g id="fa9f5163-ff98-4017-8798-4533d85612b0" data-name="LINE"><line x1="24" y1="127.57" x2="24" y2="59.31" fill="none" stroke="#5286b8" stroke-miterlimit="10" stroke-width="2"/><polygon points="26.99 126.69 24 131.88 21.01 126.69 26.99 126.69" fill="#5286b8"/><polygon points="26.99 60.18 24 55 21.01 60.18 26.99 60.18" fill="#5286b8"/></g><g id="7b9035e8-4020-4d69-bbcb-ac4827bc16f3" data-name="LINE"><line x1="85" y1="112.5" x2="108" y2="112.5" fill="none" stroke="red" stroke-miterlimit="10"/></g><g id="5d137a73-4423-40f5-b3fd-24dc082537f3" data-name="LINE"><line x1="92" y1="106.69" x2="92" y2="59.31" fill="none" stroke="#5286b8" stroke-miterlimit="10" stroke-width="2"/><polygon points="94.99 105.82 92 111 89.01 105.82 94.99 105.82" fill="#5286b8"/><polygon points="94.99 60.18 92 55 89.01 60.18 94.99 60.18" fill="#5286b8"/></g></g></svg>