<svg xmlns="http://www.w3.org/2000/svg" viewBox="0 0 157 157"><title>157x157</title><g id="a8f80148-d6bd-45db-bbc3-29d8000cbc22" data-name="Hole Shape"><path d="M87.5,54.5l-9,9v63.25l-18,12.75-18-12.75V63.5l-9-9Z" fill="#c8c8c8" stroke="#979797" stroke-linejoin="bevel" stroke-width="3"/></g><g id="06704273-2e77-4ca9-88cd-7521bef01ecd" data-name="BreakHole"><polyline points="78.5 67 78.5 63.5 79.72 62.28" fill="none" stroke="#c8c8c8" stroke-miterlimit="10" stroke-width="3"/><line x1="78.5" y1="116" x2="78.5" y2="121" fill="none" stroke="#c8c8c8" stroke-miterlimit="10" stroke-width="3"/></g><g id="85a089b4-737d-43cf-92e3-fff1cbea17ec" data-name="Threads"><line x1="52" y1="84" x2="70" y2="84" fill="none" stroke="#a0a0a0" stroke-miterlimit="10" stroke-width="2"/><line x1="48" y1="91" x2="73" y2="91" fill="none" stroke="#a0a0a0" stroke-miterlimit="10" stroke-width="2"/><line x1="52" y1="98" x2="70" y2="98" fill="none" stroke="#a0a0a0" stroke-miterlimit="10" stroke-width="2"/><line x1="48" y1="105" x2="73" y2="105" fill="none" stroke="#a0a0a0" stroke-miterlimit="10" stroke-width="2"/><line x1="52" y1="112" x2="70" y2="112" fill="none" stroke="#a0a0a0" stroke-miterlimit="10" stroke-width="2"/></g><g id="faa0bda1-b848-48e9-838a-e83bfd573298" data-name="Indicating Lines"><g id="cd8e3fa9-c8e7-4b03-814c-f7c353cb2eac" data-name="LINE"><line x1="83" y1="145.5" x2="157" y2="145.5" fill="none" stroke="#7c7c7c" stroke-miterlimit="10"/></g><g id="3c60c1d5-b28f-4ad4-b85b-805fd3ceef25" data-name="LINE"><line x1="92" y1="37.5" x2="157" y2="37.5" fill="none" stroke="#7c7c7c" stroke-miterlimit="10"/></g><polyline points="157 10.5 19.5 10.5 19.5 51" fill="none" stroke="#7c7c7c" stroke-miterlimit="10"/><g id="dc408fcd-c5ba-4dc4-b1a2-601759b0311f" data-name="LINE"><polyline points="71.44 118.5 63.33 126.61 71.44 118.5 157 118.5" fill="none" stroke="#7c7c7c" stroke-miterlimit="10"/></g><g id="63f94e02-0440-4114-83d3-d53871b4cc9c" data-name="LINE"><polyline points="64.77 64.5 60.5 68.77 64.77 64.5 157 64.5" fill="none" stroke="#7c7c7c" stroke-miterlimit="10"/></g></g><g id="dec8a705-6e40-4595-b868-19117e101181" data-name="Dim Ends"><g id="350daec2-89dd-4101-baf9-dfff098fb2f4" data-name="SPLINE"><line x1="13" y1="53.5" x2="28" y2="53.5" fill="none" stroke="red" stroke-miterlimit="10"/></g><g id="d33bb04a-7f28-452a-b511-8083c6a63817" data-name="POLYLINE"><line x1="32.5" y1="49" x2="32.5" y2="32" fill="none" stroke="red" stroke-miterlimit="10"/></g><g id="37a633e9-27c2-4757-9aa0-3e87169096b2" data-name="POLYLINE"><line x1="88.5" y1="49" x2="88.5" y2="32" fill="none" stroke="red" stroke-miterlimit="10"/></g><g id="d25deb93-a8bf-46e8-b201-1680d661d092" data-name="LINE"><line x1="37" y1="126.5" x2="13" y2="126.5" fill="none" stroke="red" stroke-miterlimit="10"/></g><g id="cba2e49c-963d-49b2-bf0e-ff9794b277e9" data-name="LINE"><line x1="79.5" y1="152" x2="79.5" y2="139" fill="none" stroke="red" stroke-miterlimit="10"/></g><g id="245f3fd7-779d-45f1-a565-6bee896f8379" data-name="LINE"><line x1="41.5" y1="152" x2="41.5" y2="139" fill="none" stroke="red" stroke-miterlimit="10"/></g><g id="a84cfc54-0b27-4406-bd52-d771944e4e32" data-name="LINE"><line x1="64.74" y1="76.26" x2="74.26" y2="66.74" fill="none" stroke="red" stroke-linecap="square" stroke-miterlimit="10" stroke-width="0.75"/></g><g id="2a78b69a-786d-4e3a-9ce6-bcbd2339355e" data-name="LINE"><line x1="56.26" y1="76.26" x2="46.74" y2="66.74" fill="none" stroke="red" stroke-linecap="square" stroke-miterlimit="10" stroke-width="0.75"/></g></g><g id="0b5825ae-7ea6-45b9-8dc5-622193ef8493" data-name="Dims"><g id="337a92ee-8c2a-425f-af48-120f97c0f090" data-name="POLYLINE"><line x1="38.31" y1="37" x2="82.69" y2="37" fill="none" stroke="#5286b8" stroke-miterlimit="10" stroke-width="2"/><polygon points="39.18 39.99 34 37 39.18 34.01 39.18 39.99" fill="#5286b8"/><polygon points="81.82 39.99 87 37 81.82 34.01 81.82 39.99" fill="#5286b8"/></g><g id="6158a7cc-e6f6-457b-a45a-9bc256764a8d" data-name="SPLINE"><line x1="47.31" y1="146" x2="73.69" y2="146" fill="none" stroke="#5286b8" stroke-miterlimit="10" stroke-width="2"/><polygon points="48.18 148.99 43 146 48.18 143.01 48.18 148.99" fill="#5286b8"/><polygon points="72.82 148.99 78 146 72.82 143.01 72.82 148.99" fill="#5286b8"/></g><g id="65f78fba-c752-44ba-9911-f40e797e8992" data-name="SPLINE"><path d="M52.83,128.84a12.47,12.47,0,0,1,7.67-2.4,12.47,12.47,0,0,1,7.68,2.4" fill="none" stroke="#5286b8" stroke-miterlimit="10" stroke-width="2"/><polygon points="55.63 130.44 49.84 131.95 51.43 126.18 55.63 130.44" fill="#5286b8"/><polygon points="65.37 130.44 71.16 131.95 69.57 126.18 65.37 130.44" fill="#5286b8"/></g><g id="8a65f7d9-e4f3-4afd-9140-604f380e2428" data-name="LINE"><line x1="20" y1="120.69" x2="20" y2="59.31" fill="none" stroke="#5286b8" stroke-miterlimit="10" stroke-width="2"/><polygon points="22.99 119.82 20 125 17.01 119.82 22.99 119.82" fill="#5286b8"/><polygon points="22.99 60.18 20 55 17.01 60.18 22.99 60.18" fill="#5286b8"/></g><g id="ebaf2d0e-0505-487c-b26d-644db5fd0592" data-name="ARC"><path d="M66,70a12.76,12.76,0,0,0-11,0" fill="none" stroke="#5286b8" stroke-miterlimit="10" stroke-width="2"/><polygon points="66.86 67.13 69.5 72.5 63.53 72.11 66.86 67.13" fill="#5286b8"/><polygon points="54.15 67.13 51.5 72.5 57.47 72.11 54.15 67.13" fill="#5286b8"/></g></g></svg>