<svg xmlns="http://www.w3.org/2000/svg" viewBox="0 0 157 157"><title>157x157</title><g id="008d45a8-2feb-4328-bf02-f1b03bee15e2" data-name="Hole Shape"><polygon points="87.5 54.5 87.5 74.5 78.5 74.5 78.5 126.75 78.5 133.5 42.5 133.5 42.5 126.75 42.5 74.5 33.5 74.5 33.5 54.5 87.5 54.5" fill="#c8c8c8" stroke="#979797" stroke-linejoin="bevel" stroke-width="3"/></g><g id="13d77b41-4b6c-455a-936b-cec59d65d763" data-name="Indicating Lines"><g id="04694eac-accc-4c19-b1a3-b5c77e3ca605" data-name="LINE"><line x1="83" y1="145.5" x2="157" y2="145.5" fill="none" stroke="#7c7c7c" stroke-miterlimit="10"/></g><g id="155bf7cf-cb0a-445d-8c26-0cd9ae4e334b" data-name="LINE"><line x1="92" y1="37.5" x2="157" y2="37.5" fill="none" stroke="#7c7c7c" stroke-miterlimit="10"/></g><polyline points="157 10.5 19.5 10.5 19.5 51" fill="none" stroke="#7c7c7c" stroke-miterlimit="10"/><g id="ead3e503-b1da-4f0e-aa09-942bdfbd0690" data-name="LINE"><line x1="103.66" y1="64.5" x2="157" y2="64.5" fill="none" stroke="#7c7c7c" stroke-miterlimit="10"/></g></g><g id="29d2c122-c1b1-410d-8420-7f42600ea638" data-name="Dim Ends"><g id="4f751cfc-403d-4e50-83b4-f5eae72b8e2d" data-name="SPLINE"><line x1="13" y1="53.5" x2="28" y2="53.5" fill="none" stroke="red" stroke-miterlimit="10"/></g><g id="ca4f46ea-e863-4e71-a974-6f5fc15e890f" data-name="POLYLINE"><line x1="32.5" y1="49" x2="32.5" y2="32" fill="none" stroke="red" stroke-miterlimit="10"/></g><g id="15079a72-65ea-4da1-8789-00e84a8715da" data-name="POLYLINE"><line x1="88.5" y1="49" x2="88.5" y2="32" fill="none" stroke="red" stroke-miterlimit="10"/></g><g id="79e69c76-6b1f-414b-96f8-c27baaa0c7f2" data-name="LINE"><line x1="79.5" y1="152" x2="79.5" y2="139" fill="none" stroke="red" stroke-miterlimit="10"/></g><g id="c0335426-91ee-4374-aa4d-2b534ee05c6a" data-name="LINE"><line x1="41.5" y1="152" x2="41.5" y2="139" fill="none" stroke="red" stroke-miterlimit="10"/></g><g id="035993a4-37c6-4ab4-bba3-ac37dfedf460" data-name="SPLINE"><line x1="108" y1="76.5" x2="91" y2="76.5" fill="none" stroke="red" stroke-miterlimit="10"/></g><g id="43eee4d3-3bac-44b6-9bb1-615862c1facf" data-name="SPLINE"><line x1="108" y1="53.5" x2="91" y2="53.5" fill="none" stroke="red" stroke-miterlimit="10"/></g><g id="7bb7b536-287f-471e-96a5-ee5104d1a5fd" data-name="LINE"><line x1="37" y1="133.5" x2="13" y2="133.5" fill="none" stroke="red" stroke-miterlimit="10"/></g></g><g id="515d9cad-229d-4d0d-9196-e0f653f5cd76" data-name="Dims"><g id="bee47003-6f4e-48ba-a232-224b34735af4" data-name="POLYLINE"><line x1="38.31" y1="37" x2="82.69" y2="37" fill="none" stroke="#5286b8" stroke-miterlimit="10" stroke-width="2"/><polygon points="39.18 39.99 34 37 39.18 34.01 39.18 39.99" fill="#5286b8"/><polygon points="81.82 39.99 87 37 81.82 34.01 81.82 39.99" fill="#5286b8"/></g><g id="1c64d7df-7049-4d15-823c-2fdfd64acb01" data-name="SPLINE"><line x1="47.31" y1="146" x2="73.69" y2="146" fill="none" stroke="#5286b8" stroke-miterlimit="10" stroke-width="2"/><polygon points="48.18 148.99 43 146 48.18 143.01 48.18 148.99" fill="#5286b8"/><polygon points="72.82 148.99 78 146 72.82 143.01 72.82 148.99" fill="#5286b8"/></g><g id="58e1600b-40bd-48d4-ba9f-d035acc0f966" data-name="LINE"><line x1="100" y1="59.31" x2="100" y2="70.69" fill="none" stroke="#5286b8" stroke-miterlimit="10" stroke-width="2"/><polygon points="97.01 60.18 100 55 102.99 60.18 97.01 60.18" fill="#5286b8"/><polygon points="97.01 69.82 100 75 102.99 69.82 97.01 69.82" fill="#5286b8"/></g><g id="3c30b312-1257-4228-ab0b-bb26c7c1d2ad" data-name="LINE"><line x1="20" y1="127.69" x2="20" y2="59.31" fill="none" stroke="#5286b8" stroke-miterlimit="10" stroke-width="2"/><polygon points="22.99 126.82 20 132 17.01 126.82 22.99 126.82" fill="#5286b8"/><polygon points="22.99 60.18 20 55 17.01 60.18 22.99 60.18" fill="#5286b8"/></g></g></svg>