<svg xmlns="http://www.w3.org/2000/svg" viewBox="0 0 157 157"><title>157x157</title><g id="4abe656b-0258-46e5-8054-b90dd058b86b" data-name="Hole Shape"><rect x="42.5" y="54.5" width="36" height="79" fill="#c8c8c8" stroke="#979797" stroke-linejoin="bevel" stroke-width="3"/></g><g id="82523f68-e537-4d11-9b59-57cf6709a5fe" data-name="Threads"><line x1="48" y1="77" x2="73" y2="77" fill="none" stroke="#a0a0a0" stroke-miterlimit="10" stroke-width="2"/><line x1="52" y1="84" x2="70" y2="84" fill="none" stroke="#a0a0a0" stroke-miterlimit="10" stroke-width="2"/><line x1="48" y1="63" x2="73" y2="63" fill="none" stroke="#a0a0a0" stroke-miterlimit="10" stroke-width="2"/><line x1="52" y1="70" x2="70" y2="70" fill="none" stroke="#a0a0a0" stroke-miterlimit="10" stroke-width="2"/><line x1="48" y1="91" x2="73" y2="91" fill="none" stroke="#a0a0a0" stroke-miterlimit="10" stroke-width="2"/><line x1="52" y1="98" x2="70" y2="98" fill="none" stroke="#a0a0a0" stroke-miterlimit="10" stroke-width="2"/><line x1="48" y1="105" x2="73" y2="105" fill="none" stroke="#a0a0a0" stroke-miterlimit="10" stroke-width="2"/><line x1="52" y1="112" x2="70" y2="112" fill="none" stroke="#a0a0a0" stroke-miterlimit="10" stroke-width="2"/><line x1="48" y1="119" x2="73" y2="119" fill="none" stroke="#a0a0a0" stroke-miterlimit="10" stroke-width="2"/><line x1="52" y1="126" x2="70" y2="126" fill="none" stroke="#a0a0a0" stroke-miterlimit="10" stroke-width="2"/></g><g id="00af5266-9b13-494a-8a1d-5f557bd3b307" data-name="Indicating Lines"><g id="507cd1e4-9ad3-4916-bfd2-91389bfe23de" data-name="LINE"><line x1="83" y1="145.5" x2="157" y2="145.5" fill="none" stroke="#7c7c7c" stroke-miterlimit="10"/></g><polyline points="157 10.5 24.5 10.5 24.5 51" fill="none" stroke="#7c7c7c" stroke-miterlimit="10"/></g><g id="cb8f9979-1b52-4664-a95d-8df3aee83e8a" data-name="Dim Ends"><g id="c9cd5b75-3125-4fec-bd30-d99941a048bd" data-name="SPLINE"><line x1="13" y1="53.5" x2="37" y2="53.5" fill="none" stroke="red" stroke-miterlimit="10"/></g><g id="1bd420fc-35df-4230-9a3b-2289ab60b04a" data-name="LINE"><line x1="79.5" y1="152" x2="79.5" y2="139" fill="none" stroke="red" stroke-miterlimit="10"/></g><g id="715ca551-54fc-4afe-9912-607dc8097499" data-name="LINE"><line x1="41.5" y1="152" x2="41.5" y2="139" fill="none" stroke="red" stroke-miterlimit="10"/></g></g><g id="3cb1958d-0787-4bb8-b548-fd5e9976c195" data-name="Dims"><g id="f77d8d05-191c-47aa-b7a4-c36d98cc1816" data-name="SPLINE"><line x1="47.31" y1="146" x2="73.69" y2="146" fill="none" stroke="#5286b8" stroke-miterlimit="10" stroke-width="2"/><polygon points="48.18 148.99 43 146 48.18 143.01 48.18 148.99" fill="#5286b8"/><polygon points="72.82 148.99 78 146 72.82 143.01 72.82 148.99" fill="#5286b8"/></g><g id="2697b0f5-5715-4293-8672-935e277305a3" data-name="LINE"><line x1="37" y1="133.5" x2="13" y2="133.5" fill="none" stroke="red" stroke-miterlimit="10"/></g><g id="3357e763-b366-406a-ae98-fb1e6d247220" data-name="LINE"><line x1="24" y1="127.57" x2="24" y2="59.31" fill="none" stroke="#5286b8" stroke-miterlimit="10" stroke-width="2"/><polygon points="26.99 126.69 24 131.88 21.01 126.69 26.99 126.69" fill="#5286b8"/><polygon points="26.99 60.18 24 55 21.01 60.18 26.99 60.18" fill="#5286b8"/></g></g></svg>