<svg xmlns="http://www.w3.org/2000/svg" viewBox="0 0 157 157"><title>157x157</title><g id="f3ae3472-dc78-4466-84ac-92a01bfb41c4" data-name="Hole Shape"><path d="M78.5,74.5v52.25l-18,12.75-18-12.75V54.5h36Z" fill="#c8c8c8" stroke="#979797" stroke-linejoin="bevel" stroke-width="3"/></g><g id="cde99f88-2337-4305-89f9-9a68811bfc60" data-name="BreakHole"><line x1="78.5" y1="116" x2="78.5" y2="121" fill="none" stroke="#c8c8c8" stroke-miterlimit="10" stroke-width="3"/></g><g id="eabf413a-feae-4aa7-a793-309e3dbd4c39" data-name="Threads"><line x1="48" y1="77" x2="73" y2="77" fill="none" stroke="#a0a0a0" stroke-miterlimit="10" stroke-width="2"/><line x1="52" y1="84" x2="70" y2="84" fill="none" stroke="#a0a0a0" stroke-miterlimit="10" stroke-width="2"/><line x1="48" y1="91" x2="73" y2="91" fill="none" stroke="#a0a0a0" stroke-miterlimit="10" stroke-width="2"/><line x1="52" y1="98" x2="70" y2="98" fill="none" stroke="#a0a0a0" stroke-miterlimit="10" stroke-width="2"/><line x1="48" y1="105" x2="73" y2="105" fill="none" stroke="#a0a0a0" stroke-miterlimit="10" stroke-width="2"/><line x1="52" y1="112" x2="70" y2="112" fill="none" stroke="#a0a0a0" stroke-miterlimit="10" stroke-width="2"/></g><g id="d20bfc64-479f-42a9-85ef-49cdb923e1bc" data-name="Indicating Lines"><g id="bc2969a6-092f-4e00-80d7-5c65ffce5c20" data-name="LINE"><line x1="83" y1="145.5" x2="157" y2="145.5" fill="none" stroke="#7c7c7c" stroke-miterlimit="10"/></g><g id="5e36b51e-6feb-4e7e-be50-f03a608be5cb" data-name="LINE"><line x1="107" y1="64.5" x2="157" y2="64.5" fill="none" stroke="#7c7c7c" stroke-miterlimit="10"/></g><g id="75695b5b-39f2-4aa8-8e67-9882aff2d5a1" data-name="LINE"><line x1="96.5" y1="91.5" x2="157" y2="91.5" fill="none" stroke="#7c7c7c" stroke-miterlimit="10"/></g><polyline points="157 10.5 24.5 10.5 24.5 51" fill="none" stroke="#7c7c7c" stroke-miterlimit="10"/><g id="78c1b003-fd13-4e35-99da-1d6ca20b0219" data-name="LINE"><polyline points="71.44 118.5 63.33 126.61 71.44 118.5 157 118.5" fill="none" stroke="#7c7c7c" stroke-miterlimit="10"/></g></g><g id="e8e2a7bd-227d-4862-9cee-1d601a468b41" data-name="Dim Ends"><g id="c0b59e48-ded1-4e1c-a57a-ba71e59f6571" data-name="SPLINE"><line x1="13" y1="53.5" x2="37" y2="53.5" fill="none" stroke="red" stroke-miterlimit="10"/></g><g id="8c50f142-ffa3-4c53-a812-02c8e10a19c6" data-name="SPLINE"><line x1="108" y1="76.5" x2="97.5" y2="76.5" fill="none" stroke="red" stroke-miterlimit="10"/></g><g id="0cdea387-bc7e-4514-bd31-4a70c0de3fd1" data-name="SPLINE"><line x1="108" y1="53.5" x2="85" y2="53.5" fill="none" stroke="red" stroke-miterlimit="10"/></g><g id="c014ce19-a518-4658-abb3-edc3b1dc2b65" data-name="LINE"><line x1="85" y1="112.5" x2="108" y2="112.5" fill="none" stroke="red" stroke-miterlimit="10"/></g><g id="d43bf632-f88f-477d-aa52-dcba58dbc817" data-name="LINE"><line x1="37" y1="126.5" x2="13" y2="126.5" fill="none" stroke="red" stroke-miterlimit="10"/></g><g id="c3c7aa29-a533-4450-964b-841426247ceb" data-name="LINE"><line x1="79.5" y1="152" x2="79.5" y2="139" fill="none" stroke="red" stroke-miterlimit="10"/></g><g id="87dfb7d8-c6c1-4a29-a673-a06bac12751b" data-name="LINE"><line x1="41.5" y1="152" x2="41.5" y2="139" fill="none" stroke="red" stroke-miterlimit="10"/></g></g><g id="830e6df9-22be-42c1-9c86-23b5ad97233a" data-name="Dims"><g id="fed58d15-d2c7-497c-b80b-e339996b060a" data-name="LINE"><line x1="92" y1="106.69" x2="92" y2="59.31" fill="none" stroke="#5286b8" stroke-miterlimit="10" stroke-width="2"/><polygon points="94.99 105.82 92 111 89.01 105.82 94.99 105.82" fill="#5286b8"/><polygon points="94.99 60.18 92 55 89.01 60.18 94.99 60.18" fill="#5286b8"/></g><g id="94a3425c-f176-451b-8e7c-a06edd0edf5b" data-name="LINE"><line x1="103" y1="59.31" x2="103" y2="70.69" fill="none" stroke="#5286b8" stroke-miterlimit="10" stroke-width="2"/><polygon points="100.01 60.18 103 55 105.99 60.18 100.01 60.18" fill="#5286b8"/><polygon points="100.01 69.82 103 75 105.99 69.82 100.01 69.82" fill="#5286b8"/></g><g id="6a62b475-fa45-4198-8d54-d68f4d345b0f" data-name="SPLINE"><line x1="47.31" y1="146" x2="73.69" y2="146" fill="none" stroke="#5286b8" stroke-miterlimit="10" stroke-width="2"/><polygon points="48.18 148.99 43 146 48.18 143.01 48.18 148.99" fill="#5286b8"/><polygon points="72.82 148.99 78 146 72.82 143.01 72.82 148.99" fill="#5286b8"/></g><g id="6df90f26-5091-4e45-822a-5328c77e68b3" data-name="SPLINE"><path d="M52.83,128.84a12.47,12.47,0,0,1,7.67-2.4,12.46,12.46,0,0,1,7.68,2.4" fill="none" stroke="#5286b8" stroke-miterlimit="10" stroke-width="2"/><polygon points="55.63 130.44 49.84 131.95 51.43 126.18 55.63 130.44" fill="#5286b8"/><polygon points="65.37 130.44 71.16 131.95 69.57 126.18 65.37 130.44" fill="#5286b8"/></g><g id="4912ee19-ebb6-42dd-97de-6d59e28256f8" data-name="LINE"><line x1="24" y1="120.69" x2="24" y2="59.31" fill="none" stroke="#5286b8" stroke-miterlimit="10" stroke-width="2"/><polygon points="26.99 119.82 24 125 21.01 119.82 26.99 119.82" fill="#5286b8"/><polygon points="26.99 60.18 24 55 21.01 60.18 26.99 60.18" fill="#5286b8"/></g></g></svg>