<svg xmlns="http://www.w3.org/2000/svg" viewBox="0 0 157 157"><title>157x157</title><g id="5feae2e7-2725-4a18-9ca0-435f626cb1f6" data-name="Hole Shape"><polygon points="87.5 54.5 87.5 74.5 78.5 74.5 78.5 126.75 78.5 133.5 42.5 133.5 42.5 126.75 42.5 74.5 33.5 74.5 33.5 54.5 87.5 54.5" fill="#c8c8c8" stroke="#979797" stroke-linejoin="bevel" stroke-width="3"/></g><g id="680961f4-0ad0-428c-aa13-50f1f3c20480" data-name="Threads"><line x1="48" y1="77" x2="73" y2="77" fill="none" stroke="#a0a0a0" stroke-miterlimit="10" stroke-width="2"/><line x1="52" y1="84" x2="70" y2="84" fill="none" stroke="#a0a0a0" stroke-miterlimit="10" stroke-width="2"/><line x1="48" y1="91" x2="73" y2="91" fill="none" stroke="#a0a0a0" stroke-miterlimit="10" stroke-width="2"/><line x1="52" y1="98" x2="70" y2="98" fill="none" stroke="#a0a0a0" stroke-miterlimit="10" stroke-width="2"/><line x1="48" y1="105" x2="73" y2="105" fill="none" stroke="#a0a0a0" stroke-miterlimit="10" stroke-width="2"/><line x1="52" y1="112" x2="70" y2="112" fill="none" stroke="#a0a0a0" stroke-miterlimit="10" stroke-width="2"/><line x1="48" y1="119" x2="73" y2="119" fill="none" stroke="#a0a0a0" stroke-miterlimit="10" stroke-width="2"/><line x1="52" y1="126" x2="70" y2="126" fill="none" stroke="#a0a0a0" stroke-miterlimit="10" stroke-width="2"/></g><g id="3b7891a4-1b21-4354-8636-d07cb4262e76" data-name="Indicating Lines"><g id="2454058c-9338-429f-ad05-9e029a38f752" data-name="LINE"><line x1="83" y1="145.5" x2="157" y2="145.5" fill="none" stroke="#7c7c7c" stroke-miterlimit="10"/></g><g id="8062f029-3548-4813-9135-d61cf998ca09" data-name="LINE"><line x1="92" y1="37.5" x2="157" y2="37.5" fill="none" stroke="#7c7c7c" stroke-miterlimit="10"/></g><polyline points="157 10.5 19.5 10.5 19.5 51" fill="none" stroke="#7c7c7c" stroke-miterlimit="10"/><g id="e7b6e12e-c2d9-4b22-84a5-f6ee0d1c2c86" data-name="LINE"><line x1="103.66" y1="64.5" x2="157" y2="64.5" fill="none" stroke="#7c7c7c" stroke-miterlimit="10"/></g></g><g id="1f0b71c1-007e-4c75-944a-bc8d6cc8bba4" data-name="Dim Ends"><g id="46b81af7-f32c-4202-839b-80320d880077" data-name="SPLINE"><line x1="13" y1="53.5" x2="28" y2="53.5" fill="none" stroke="red" stroke-miterlimit="10"/></g><g id="a388025c-68a1-45bb-9764-301c156b4e1c" data-name="POLYLINE"><line x1="32.5" y1="49" x2="32.5" y2="32" fill="none" stroke="red" stroke-miterlimit="10"/></g><g id="82acc2c1-3ed4-4cb6-9714-18b0caa20f2c" data-name="POLYLINE"><line x1="88.5" y1="49" x2="88.5" y2="32" fill="none" stroke="red" stroke-miterlimit="10"/></g><g id="19dca12b-aeea-4c5a-a3a9-5803a30b30b7" data-name="LINE"><line x1="79.5" y1="152" x2="79.5" y2="139" fill="none" stroke="red" stroke-miterlimit="10"/></g><g id="5d206dfa-1620-4bd4-80b8-538d2f4f2eea" data-name="LINE"><line x1="41.5" y1="152" x2="41.5" y2="139" fill="none" stroke="red" stroke-miterlimit="10"/></g><g id="49eb790f-2c30-47ae-845c-3039230418ec" data-name="SPLINE"><line x1="108" y1="76.5" x2="91" y2="76.5" fill="none" stroke="red" stroke-miterlimit="10"/></g><g id="4796cf6b-4fe3-4dc6-9670-ea79c6b4e55e" data-name="SPLINE"><line x1="108" y1="53.5" x2="91" y2="53.5" fill="none" stroke="red" stroke-miterlimit="10"/></g><g id="78170bbb-5dbd-4e6b-ac6c-47ae90f7d053" data-name="LINE"><line x1="37" y1="133.5" x2="13" y2="133.5" fill="none" stroke="red" stroke-miterlimit="10"/></g></g><g id="a27099f4-5351-4b26-a97e-b91f57ba1cb9" data-name="Dims"><g id="bb122f21-927e-477a-97af-f8cae3fc6800" data-name="POLYLINE"><line x1="38.31" y1="37" x2="82.69" y2="37" fill="none" stroke="#5286b8" stroke-miterlimit="10" stroke-width="2"/><polygon points="39.18 39.99 34 37 39.18 34.01 39.18 39.99" fill="#5286b8"/><polygon points="81.82 39.99 87 37 81.82 34.01 81.82 39.99" fill="#5286b8"/></g><g id="8edbc0f2-15e0-4160-a6b8-7fdfab9c9ceb" data-name="SPLINE"><line x1="47.31" y1="146" x2="73.69" y2="146" fill="none" stroke="#5286b8" stroke-miterlimit="10" stroke-width="2"/><polygon points="48.18 148.99 43 146 48.18 143.01 48.18 148.99" fill="#5286b8"/><polygon points="72.82 148.99 78 146 72.82 143.01 72.82 148.99" fill="#5286b8"/></g><g id="9f520e1e-6e71-4184-a615-9baaa4fbef29" data-name="LINE"><line x1="100" y1="59.31" x2="100" y2="70.69" fill="none" stroke="#5286b8" stroke-miterlimit="10" stroke-width="2"/><polygon points="97.01 60.18 100 55 102.99 60.18 97.01 60.18" fill="#5286b8"/><polygon points="97.01 69.82 100 75 102.99 69.82 97.01 69.82" fill="#5286b8"/></g><g id="3b2b6759-888a-4acc-bbb0-40ee847d5ff8" data-name="LINE"><line x1="20" y1="127.69" x2="20" y2="59.31" fill="none" stroke="#5286b8" stroke-miterlimit="10" stroke-width="2"/><polygon points="22.99 126.82 20 132 17.01 126.82 22.99 126.82" fill="#5286b8"/><polygon points="22.99 60.18 20 55 17.01 60.18 22.99 60.18" fill="#5286b8"/></g></g></svg>