<svg xmlns="http://www.w3.org/2000/svg" viewBox="0 0 157 157"><title>157x157</title><g id="c49ead21-48ef-43d0-a612-7eae51979871" data-name="Hole Shape"><polygon points="87.5 54.5 87.5 74.5 78.5 74.5 78.5 126.75 78.5 133.5 42.5 133.5 42.5 126.75 42.5 74.5 33.5 74.5 33.5 54.5 87.5 54.5" fill="#c8c8c8" stroke="#979797" stroke-linejoin="bevel" stroke-width="3"/></g><g id="bb655d4c-c85d-42ed-a7ce-f942a4404841" data-name="Threads"><line x1="48" y1="77" x2="73" y2="77" fill="none" stroke="#a0a0a0" stroke-miterlimit="10" stroke-width="2"/><line x1="52" y1="84" x2="70" y2="84" fill="none" stroke="#a0a0a0" stroke-miterlimit="10" stroke-width="2"/><line x1="48" y1="91" x2="73" y2="91" fill="none" stroke="#a0a0a0" stroke-miterlimit="10" stroke-width="2"/><line x1="52" y1="98" x2="70" y2="98" fill="none" stroke="#a0a0a0" stroke-miterlimit="10" stroke-width="2"/><line x1="48" y1="105" x2="73" y2="105" fill="none" stroke="#a0a0a0" stroke-miterlimit="10" stroke-width="2"/><line x1="52" y1="112" x2="70" y2="112" fill="none" stroke="#a0a0a0" stroke-miterlimit="10" stroke-width="2"/></g><g id="2765ca0f-9927-4749-ac69-56d0b98f43cd" data-name="Indicating Lines"><g id="8292104c-2cc8-45eb-9984-ffafd465c215" data-name="LINE"><line x1="83" y1="145.5" x2="157" y2="145.5" fill="none" stroke="#7c7c7c" stroke-miterlimit="10"/></g><g id="a6799fd6-40d7-4373-94fc-eaaae5286b65" data-name="LINE"><line x1="108" y1="64.5" x2="157" y2="64.5" fill="none" stroke="#7c7c7c" stroke-miterlimit="10"/></g><g id="c02ea341-6c11-4c06-aee0-b5a85364a4a7" data-name="LINE"><line x1="92" y1="37.5" x2="157" y2="37.5" fill="none" stroke="#7c7c7c" stroke-miterlimit="10"/></g><g id="f9a7b03d-46e5-4a9f-b352-e4a098b34afe" data-name="LINE"><line x1="100" y1="91.5" x2="157" y2="91.5" fill="none" stroke="#7c7c7c" stroke-miterlimit="10"/></g><polyline points="157 10.5 19.5 10.5 19.5 51" fill="none" stroke="#7c7c7c" stroke-miterlimit="10"/></g><g id="4fe5fd4a-5464-4898-8e83-adb90af408ab" data-name="Dim Ends"><g id="8b058a97-0e54-4e67-8552-be22bb211a05" data-name="SPLINE"><line x1="13" y1="53.5" x2="28" y2="53.5" fill="none" stroke="red" stroke-miterlimit="10"/></g><g id="f1681204-716a-456b-95c9-28c9a1f9a523" data-name="POLYLINE"><line x1="32.5" y1="49" x2="32.5" y2="32" fill="none" stroke="red" stroke-miterlimit="10"/></g><g id="d1d7d425-ad74-4c7d-87b9-df947cb4f8ed" data-name="POLYLINE"><line x1="88.5" y1="49" x2="88.5" y2="32" fill="none" stroke="red" stroke-miterlimit="10"/></g><g id="7602d089-91b3-474e-9b82-4dfd2ea0256a" data-name="SPLINE"><line x1="108" y1="76.5" x2="99" y2="76.5" fill="none" stroke="red" stroke-miterlimit="10"/></g><g id="bad34e31-9bad-43ca-a992-6449eb21d528" data-name="SPLINE"><line x1="108" y1="53.5" x2="91" y2="53.5" fill="none" stroke="red" stroke-miterlimit="10"/></g><g id="21e2c508-89cc-4c06-a1bf-af2a14e730bc" data-name="LINE"><line x1="85" y1="112.5" x2="108" y2="112.5" fill="none" stroke="red" stroke-miterlimit="10"/></g><g id="b66e833f-403e-4edb-acd7-ec843a06703b" data-name="LINE"><line x1="37" y1="133.5" x2="13" y2="133.5" fill="none" stroke="red" stroke-miterlimit="10"/></g><g id="d2f9c07d-d1a9-4d37-96e5-33325185c9dc" data-name="LINE"><line x1="79.5" y1="152" x2="79.5" y2="139" fill="none" stroke="red" stroke-miterlimit="10"/></g><g id="8948430a-78a8-47de-9100-1cde07c37960" data-name="LINE"><line x1="41.5" y1="152" x2="41.5" y2="139" fill="none" stroke="red" stroke-miterlimit="10"/></g></g><g id="6547e0d7-c6bb-4e5d-a35d-52737d5ea18c" data-name="Dims"><g id="d2240fb7-2439-40ef-b2b7-0b1afe9c8cd7" data-name="POLYLINE"><line x1="38.31" y1="37" x2="82.69" y2="37" fill="none" stroke="#5286b8" stroke-miterlimit="10" stroke-width="2"/><polygon points="39.18 39.99 34 37 39.18 34.01 39.18 39.99" fill="#5286b8"/><polygon points="81.82 39.99 87 37 81.82 34.01 81.82 39.99" fill="#5286b8"/></g><g id="c52d1a73-5d12-4437-9605-3c1ea94dc41c" data-name="LINE"><line x1="96" y1="106.69" x2="96" y2="59.31" fill="none" stroke="#5286b8" stroke-miterlimit="10" stroke-width="2"/><polygon points="98.99 105.82 96 111 93.01 105.82 98.99 105.82" fill="#5286b8"/><polygon points="98.99 60.18 96 55 93.01 60.18 98.99 60.18" fill="#5286b8"/></g><g id="e916fc1f-d9e3-4498-8c6d-7bd6a46ddda7" data-name="LINE"><line x1="104" y1="59.31" x2="104" y2="70.69" fill="none" stroke="#5286b8" stroke-miterlimit="10" stroke-width="2"/><polygon points="101.01 60.18 104 55 106.99 60.18 101.01 60.18" fill="#5286b8"/><polygon points="101.01 69.82 104 75 106.99 69.82 101.01 69.82" fill="#5286b8"/></g><g id="bb6fc382-f468-459e-8421-a1a8fd5e62ee" data-name="SPLINE"><line x1="47.31" y1="146" x2="73.69" y2="146" fill="none" stroke="#5286b8" stroke-miterlimit="10" stroke-width="2"/><polygon points="48.18 148.99 43 146 48.18 143.01 48.18 148.99" fill="#5286b8"/><polygon points="72.82 148.99 78 146 72.82 143.01 72.82 148.99" fill="#5286b8"/></g><g id="387f912b-84de-4e2d-a403-91fcfd61e745" data-name="LINE"><line x1="20" y1="127.69" x2="20" y2="59.31" fill="none" stroke="#5286b8" stroke-miterlimit="10" stroke-width="2"/><polygon points="22.99 126.82 20 132 17.01 126.82 22.99 126.82" fill="#5286b8"/><polygon points="22.99 60.18 20 55 17.01 60.18 22.99 60.18" fill="#5286b8"/></g></g></svg>