<svg xmlns="http://www.w3.org/2000/svg" viewBox="0 0 157 157"><title>157x157</title><g id="fe764aae-3f4d-46bd-a641-0c89b12bc6b5" data-name="Hole Shape"><polygon points="87.5 54.5 78.5 63.5 78.5 78.5 78.5 126.75 78.5 133.5 42.5 133.5 42.5 126.75 42.5 78.5 42.5 63.5 33.5 54.5 87.5 54.5" fill="#c8c8c8" stroke="#979797" stroke-linejoin="bevel" stroke-width="3"/></g><g id="59d36d55-0896-447a-a647-4867d9a36f26" data-name="BreakHole"><polyline points="78.5 67 78.5 63.5 79.72 62.28" fill="none" stroke="#c8c8c8" stroke-miterlimit="10" stroke-width="3"/></g><g id="c452390f-ab50-43e3-a14c-5d6aada678bb" data-name="Indicating Lines"><g id="dea61796-765a-4227-8ed0-41ffef6e9cf1" data-name="LINE"><line x1="83" y1="145.5" x2="157" y2="145.5" fill="none" stroke="#7c7c7c" stroke-miterlimit="10"/></g><g id="773f38dc-0bf8-4785-9b5f-456645ada31b" data-name="LINE"><line x1="92" y1="37.5" x2="157" y2="37.5" fill="none" stroke="#7c7c7c" stroke-miterlimit="10"/></g><polyline points="157 10.5 19.5 10.5 19.5 51" fill="none" stroke="#7c7c7c" stroke-miterlimit="10"/><g id="1b198ac4-9f90-43fc-9fd0-97b4553265f0" data-name="LINE"><polyline points="64.77 64.5 60.5 68.77 64.77 64.5 157 64.5" fill="none" stroke="#7c7c7c" stroke-miterlimit="10"/></g></g><g id="ad0f68ae-26dc-47a4-84fb-da034406b06b" data-name="Dim Ends"><g id="d79b37db-9c9a-44ed-b5be-778fabcfd39f" data-name="SPLINE"><line x1="13" y1="53.5" x2="28" y2="53.5" fill="none" stroke="red" stroke-miterlimit="10"/></g><g id="256aa107-8c30-4069-a50f-a41ea95c30d8" data-name="POLYLINE"><line x1="32.5" y1="49" x2="32.5" y2="32" fill="none" stroke="red" stroke-miterlimit="10"/></g><g id="041e20c0-4705-43dd-ae65-fe7ea3c21ee2" data-name="POLYLINE"><line x1="88.5" y1="49" x2="88.5" y2="32" fill="none" stroke="red" stroke-miterlimit="10"/></g><g id="ae5ec7fd-0dc1-4d4a-a280-2c5afe57b01b" data-name="LINE"><line x1="37" y1="133.5" x2="13" y2="133.5" fill="none" stroke="red" stroke-miterlimit="10"/></g><g id="2a321ebe-dd6b-4baa-a3a0-318647a8b385" data-name="LINE"><line x1="79.5" y1="152" x2="79.5" y2="139" fill="none" stroke="red" stroke-miterlimit="10"/></g><g id="e0b4560f-2698-45bf-8399-2617eaceaf72" data-name="LINE"><line x1="41.5" y1="152" x2="41.5" y2="139" fill="none" stroke="red" stroke-miterlimit="10"/></g><g id="d0ec8658-d1f2-4a4f-b40c-76e257c21d5b" data-name="LINE"><line x1="64.74" y1="76.26" x2="74.26" y2="66.74" fill="none" stroke="red" stroke-linecap="square" stroke-miterlimit="10" stroke-width="0.75"/></g><g id="c00e747d-185b-40ca-a43f-ccf37463ad36" data-name="LINE"><line x1="56.26" y1="76.26" x2="46.74" y2="66.74" fill="none" stroke="red" stroke-linecap="square" stroke-miterlimit="10" stroke-width="0.75"/></g></g><g id="a33bd686-0d67-495d-9860-dfc846564d59" data-name="Dims"><g id="5bf699f0-413e-46df-919d-7917486d31ac" data-name="POLYLINE"><line x1="38.31" y1="37" x2="82.69" y2="37" fill="none" stroke="#5286b8" stroke-miterlimit="10" stroke-width="2"/><polygon points="39.18 39.99 34 37 39.18 34.01 39.18 39.99" fill="#5286b8"/><polygon points="81.82 39.99 87 37 81.82 34.01 81.82 39.99" fill="#5286b8"/></g><g id="fee25ae9-34de-4c22-8814-2aa3dbb25ee1" data-name="SPLINE"><line x1="47.31" y1="146" x2="73.69" y2="146" fill="none" stroke="#5286b8" stroke-miterlimit="10" stroke-width="2"/><polygon points="48.18 148.99 43 146 48.18 143.01 48.18 148.99" fill="#5286b8"/><polygon points="72.82 148.99 78 146 72.82 143.01 72.82 148.99" fill="#5286b8"/></g><g id="8790fffd-def4-497c-b73c-232aea8581fa" data-name="LINE"><line x1="20" y1="127.69" x2="20" y2="59.31" fill="none" stroke="#5286b8" stroke-miterlimit="10" stroke-width="2"/><polygon points="22.99 126.82 20 132 17.01 126.82 22.99 126.82" fill="#5286b8"/><polygon points="22.99 60.18 20 55 17.01 60.18 22.99 60.18" fill="#5286b8"/></g><g id="e9ca140a-2db2-4fef-b133-5bb74bc6ec22" data-name="ARC"><path d="M66,70a12.76,12.76,0,0,0-11,0" fill="none" stroke="#5286b8" stroke-miterlimit="10" stroke-width="2"/><polygon points="66.86 67.13 69.5 72.5 63.53 72.11 66.86 67.13" fill="#5286b8"/><polygon points="54.15 67.13 51.5 72.5 57.47 72.11 54.15 67.13" fill="#5286b8"/></g></g></svg>