<svg xmlns="http://www.w3.org/2000/svg" viewBox="0 0 157 157"><title>157x157</title><g id="89535c79-28f4-4854-98bb-6e7c61a33f84" data-name="Hole Shape"><polygon points="87.5 54.5 78.5 63.5 78.5 78.5 78.5 126.75 78.5 133.5 42.5 133.5 42.5 126.75 42.5 78.5 42.5 63.5 33.5 54.5 87.5 54.5" fill="#c8c8c8" stroke="#979797" stroke-linejoin="bevel" stroke-width="3"/></g><g id="2bd481dd-aef9-4fb0-bad5-d2242526d881" data-name="BreakHole"><polyline points="78.5 67 78.5 63.5 79.72 62.28" fill="none" stroke="#c8c8c8" stroke-miterlimit="10" stroke-width="3"/></g><g id="ebe3c1f0-6ea0-4294-8503-ac46f9689595" data-name="Threads"><line x1="52" y1="84" x2="70" y2="84" fill="none" stroke="#a0a0a0" stroke-miterlimit="10" stroke-width="2"/><line x1="48" y1="91" x2="73" y2="91" fill="none" stroke="#a0a0a0" stroke-miterlimit="10" stroke-width="2"/><line x1="52" y1="98" x2="70" y2="98" fill="none" stroke="#a0a0a0" stroke-miterlimit="10" stroke-width="2"/><line x1="48" y1="105" x2="73" y2="105" fill="none" stroke="#a0a0a0" stroke-miterlimit="10" stroke-width="2"/><line x1="52" y1="112" x2="70" y2="112" fill="none" stroke="#a0a0a0" stroke-miterlimit="10" stroke-width="2"/></g><g id="8369dbd7-18b4-4345-9302-34bdaacebce7" data-name="Indicating Lines"><g id="113149d6-7044-4e4f-a92f-7a81438f7aeb" data-name="LINE"><line x1="83" y1="145.5" x2="157" y2="145.5" fill="none" stroke="#7c7c7c" stroke-miterlimit="10"/></g><g id="c8fa8739-66d7-4d72-8049-1bdd6a02ba86" data-name="LINE"><line x1="92" y1="37.5" x2="157" y2="37.5" fill="none" stroke="#7c7c7c" stroke-miterlimit="10"/></g><g id="ec58d309-4cb8-4889-b048-a1044e5c1dd5" data-name="LINE"><line x1="100" y1="91.5" x2="157" y2="91.5" fill="none" stroke="#7c7c7c" stroke-miterlimit="10"/></g><polyline points="157 10.5 19.5 10.5 19.5 51" fill="none" stroke="#7c7c7c" stroke-miterlimit="10"/><g id="233f5bc1-9a98-4b62-8c0b-317e252e46db" data-name="LINE"><polyline points="64.77 64.5 60.5 68.77 64.77 64.5 157 64.5" fill="none" stroke="#7c7c7c" stroke-miterlimit="10"/></g></g><g id="9690e56b-a1c8-4770-abdf-addf9741b20c" data-name="Dim Ends"><g id="168dd8e4-598c-4b48-9f04-3befa8373fb2" data-name="SPLINE"><line x1="13" y1="53.5" x2="28" y2="53.5" fill="none" stroke="red" stroke-miterlimit="10"/></g><g id="e084e7cd-f44f-48c2-b22f-608f512acd52" data-name="POLYLINE"><line x1="32.5" y1="49" x2="32.5" y2="32" fill="none" stroke="red" stroke-miterlimit="10"/></g><g id="586c90fe-03ce-474b-9f08-cd4f31a45579" data-name="POLYLINE"><line x1="88.5" y1="49" x2="88.5" y2="32" fill="none" stroke="red" stroke-miterlimit="10"/></g><g id="c590d421-b241-4231-ba77-9bc848003005" data-name="SPLINE"><line x1="108" y1="53.5" x2="91" y2="53.5" fill="none" stroke="red" stroke-miterlimit="10"/></g><g id="53164f10-5b74-48eb-86c0-b67838b6da1f" data-name="LINE"><line x1="85" y1="112.5" x2="108" y2="112.5" fill="none" stroke="red" stroke-miterlimit="10"/></g><g id="5585bb5f-9b4a-49d6-8a76-1fc418bab2ed" data-name="LINE"><line x1="37" y1="133.5" x2="13" y2="133.5" fill="none" stroke="red" stroke-miterlimit="10"/></g><g id="f9672f0a-e85e-41d9-9e37-bd3389aafa06" data-name="LINE"><line x1="79.5" y1="152" x2="79.5" y2="139" fill="none" stroke="red" stroke-miterlimit="10"/></g><g id="c8b3c6d2-d609-4ea1-97ee-288fc7e6d677" data-name="LINE"><line x1="41.5" y1="152" x2="41.5" y2="139" fill="none" stroke="red" stroke-miterlimit="10"/></g><g id="beb23a37-8801-4e67-9539-e0ee0aaac3fc" data-name="LINE"><line x1="64.74" y1="76.26" x2="74.26" y2="66.74" fill="none" stroke="red" stroke-linecap="square" stroke-miterlimit="10" stroke-width="0.75"/></g><g id="8bf286e3-a6e6-4d9c-ab6f-fb7c6d56e050" data-name="LINE"><line x1="56.26" y1="76.26" x2="46.74" y2="66.74" fill="none" stroke="red" stroke-linecap="square" stroke-miterlimit="10" stroke-width="0.75"/></g></g><g id="3454863c-7d78-416d-ad66-651c49428f63" data-name="Dims"><g id="f5f179f7-fd3d-4075-a88d-e3b305583193" data-name="POLYLINE"><line x1="38.31" y1="37" x2="82.69" y2="37" fill="none" stroke="#5286b8" stroke-miterlimit="10" stroke-width="2"/><polygon points="39.18 39.99 34 37 39.18 34.01 39.18 39.99" fill="#5286b8"/><polygon points="81.82 39.99 87 37 81.82 34.01 81.82 39.99" fill="#5286b8"/></g><g id="6de801e7-d073-4f51-acdc-b07011c919e1" data-name="LINE"><line x1="96" y1="106.69" x2="96" y2="59.31" fill="none" stroke="#5286b8" stroke-miterlimit="10" stroke-width="2"/><polygon points="98.99 105.82 96 111 93.01 105.82 98.99 105.82" fill="#5286b8"/><polygon points="98.99 60.18 96 55 93.01 60.18 98.99 60.18" fill="#5286b8"/></g><g id="22a9f67f-965f-4403-a005-db5d11e73aab" data-name="SPLINE"><line x1="47.31" y1="146" x2="73.69" y2="146" fill="none" stroke="#5286b8" stroke-miterlimit="10" stroke-width="2"/><polygon points="48.18 148.99 43 146 48.18 143.01 48.18 148.99" fill="#5286b8"/><polygon points="72.82 148.99 78 146 72.82 143.01 72.82 148.99" fill="#5286b8"/></g><g id="5611369a-47ae-4fd2-8482-09a581389e19" data-name="LINE"><line x1="20" y1="127.69" x2="20" y2="59.31" fill="none" stroke="#5286b8" stroke-miterlimit="10" stroke-width="2"/><polygon points="22.99 126.82 20 132 17.01 126.82 22.99 126.82" fill="#5286b8"/><polygon points="22.99 60.18 20 55 17.01 60.18 22.99 60.18" fill="#5286b8"/></g><g id="f81709db-9b27-42bb-ae28-f97e5f5008c4" data-name="ARC"><path d="M66,70a12.76,12.76,0,0,0-11,0" fill="none" stroke="#5286b8" stroke-miterlimit="10" stroke-width="2"/><polygon points="66.86 67.13 69.5 72.5 63.53 72.11 66.86 67.13" fill="#5286b8"/><polygon points="54.15 67.13 51.5 72.5 57.47 72.11 54.15 67.13" fill="#5286b8"/></g></g></svg>