<svg xmlns="http://www.w3.org/2000/svg" viewBox="0 0 157 157"><title>157x157</title><g id="e62d8f2b-8556-4629-bff7-c478195d4b37" data-name="Hole Shape"><path d="M78.5,74.5v52.25l-18,12.75-18-12.75V54.5h36Z" fill="#c8c8c8" stroke="#979797" stroke-linejoin="bevel" stroke-width="3"/></g><g id="2d31dd77-0349-4ab3-9e48-031ace0c0e11" data-name="BreakHole"><line x1="78.5" y1="116" x2="78.5" y2="121" fill="none" stroke="#c8c8c8" stroke-miterlimit="10" stroke-width="3"/></g><g id="13b82fab-efe2-4394-a8a8-2518a7a2669a" data-name="Threads"><line x1="48" y1="77" x2="73" y2="77" fill="none" stroke="#a0a0a0" stroke-miterlimit="10" stroke-width="2"/><line x1="52" y1="84" x2="70" y2="84" fill="none" stroke="#a0a0a0" stroke-miterlimit="10" stroke-width="2"/><line x1="48" y1="91" x2="73" y2="91" fill="none" stroke="#a0a0a0" stroke-miterlimit="10" stroke-width="2"/><line x1="52" y1="98" x2="70" y2="98" fill="none" stroke="#a0a0a0" stroke-miterlimit="10" stroke-width="2"/><line x1="48" y1="105" x2="73" y2="105" fill="none" stroke="#a0a0a0" stroke-miterlimit="10" stroke-width="2"/><line x1="52" y1="112" x2="70" y2="112" fill="none" stroke="#a0a0a0" stroke-miterlimit="10" stroke-width="2"/><line x1="48" y1="63" x2="73" y2="63" fill="none" stroke="#a0a0a0" stroke-miterlimit="10" stroke-width="2"/><line x1="52" y1="70" x2="70" y2="70" fill="none" stroke="#a0a0a0" stroke-miterlimit="10" stroke-width="2"/></g><g id="1d59b3f6-c019-4aef-bad7-e4ecf61d0f25" data-name="Indicating Lines"><g id="f864b210-a5b9-412a-84e6-4a0c508fd2c7" data-name="LINE"><line x1="83" y1="145.5" x2="157" y2="145.5" fill="none" stroke="#7c7c7c" stroke-miterlimit="10"/></g><polyline points="157 10.5 24.5 10.5 24.5 51" fill="none" stroke="#7c7c7c" stroke-miterlimit="10"/><g id="68ed83cf-5054-4a0d-a319-c71986446411" data-name="LINE"><polyline points="71.44 118.5 63.33 126.61 71.44 118.5 157 118.5" fill="none" stroke="#7c7c7c" stroke-miterlimit="10"/></g></g><g id="5c922fe4-38ab-42c0-8ed1-e50b23205cf5" data-name="Dim Ends"><g id="ed5ab9f8-6769-44ea-9d84-e73ed741f959" data-name="SPLINE"><line x1="13" y1="53.5" x2="37" y2="53.5" fill="none" stroke="red" stroke-miterlimit="10"/></g><g id="d0ebd486-80f8-4c86-bedd-7825fc7017b2" data-name="LINE"><line x1="37" y1="126.5" x2="13" y2="126.5" fill="none" stroke="red" stroke-miterlimit="10"/></g><g id="78fead80-03ec-4c13-9b13-0bcb040e7728" data-name="LINE"><line x1="79.5" y1="152" x2="79.5" y2="139" fill="none" stroke="red" stroke-miterlimit="10"/></g><g id="1919f465-42ba-425f-8c9f-c1762d485cb8" data-name="LINE"><line x1="41.5" y1="152" x2="41.5" y2="139" fill="none" stroke="red" stroke-miterlimit="10"/></g></g><g id="9b27d1cd-4832-4268-aa48-0a514b6c4e34" data-name="Dims"><g id="c6085d38-234f-4ae4-9a17-b1e362974290" data-name="SPLINE"><line x1="47.31" y1="146" x2="73.69" y2="146" fill="none" stroke="#5286b8" stroke-miterlimit="10" stroke-width="2"/><polygon points="48.18 148.99 43 146 48.18 143.01 48.18 148.99" fill="#5286b8"/><polygon points="72.82 148.99 78 146 72.82 143.01 72.82 148.99" fill="#5286b8"/></g><g id="80f7b0ee-f31a-4651-b9b0-402857fd9389" data-name="SPLINE"><path d="M52.83,128.84a12.47,12.47,0,0,1,7.67-2.4,12.46,12.46,0,0,1,7.68,2.4" fill="none" stroke="#5286b8" stroke-miterlimit="10" stroke-width="2"/><polygon points="55.63 130.44 49.84 131.95 51.43 126.18 55.63 130.44" fill="#5286b8"/><polygon points="65.37 130.44 71.16 131.95 69.57 126.18 65.37 130.44" fill="#5286b8"/></g><g id="4bdc9ed8-e39a-4062-af02-f79e2d480b91" data-name="LINE"><line x1="24" y1="120.69" x2="24" y2="59.31" fill="none" stroke="#5286b8" stroke-miterlimit="10" stroke-width="2"/><polygon points="26.99 119.82 24 125 21.01 119.82 26.99 119.82" fill="#5286b8"/><polygon points="26.99 60.18 24 55 21.01 60.18 26.99 60.18" fill="#5286b8"/></g></g></svg>