<svg xmlns="http://www.w3.org/2000/svg" viewBox="0 0 157 157"><title>157x157</title><g id="12393235-e67c-4493-8baf-4a2eb18e3e4f" data-name="Hole Shape"><rect x="42.5" y="54.5" width="36" height="79" fill="#c8c8c8" stroke="#979797" stroke-linejoin="bevel" stroke-width="3"/></g><g id="071ff0ee-b980-4b7e-9a13-2008796fdfe0" data-name="Indicating Lines"><g id="d3eb7fa3-7c1e-42f8-9770-694465f0539a" data-name="LINE"><line x1="83" y1="145.5" x2="157" y2="145.5" fill="none" stroke="#7c7c7c" stroke-miterlimit="10"/></g><polyline points="157 10.5 24.5 10.5 24.5 51" fill="none" stroke="#7c7c7c" stroke-miterlimit="10"/></g><g id="54ea004e-df87-440d-b8a8-b573543c2527" data-name="Dim Ends"><g id="a020f4f0-5284-4f25-a199-a5e6a03bd30d" data-name="SPLINE"><line x1="13" y1="53.5" x2="37" y2="53.5" fill="none" stroke="red" stroke-miterlimit="10"/></g><g id="3b63d65d-780d-4d06-a0d8-9b72090c85d7" data-name="LINE"><line x1="79.5" y1="152" x2="79.5" y2="139" fill="none" stroke="red" stroke-miterlimit="10"/></g><g id="a626a24f-0d2d-4e9e-9eb8-cc2b4d231e71" data-name="LINE"><line x1="41.5" y1="152" x2="41.5" y2="139" fill="none" stroke="red" stroke-miterlimit="10"/></g></g><g id="3facc211-5859-4c57-8d4e-e8e4e8a64ebf" data-name="Dims"><g id="67641342-0d9e-4a00-a248-cae54ddb4506" data-name="SPLINE"><line x1="47.31" y1="146" x2="73.69" y2="146" fill="none" stroke="#5286b8" stroke-miterlimit="10" stroke-width="2"/><polygon points="48.18 148.99 43 146 48.18 143.01 48.18 148.99" fill="#5286b8"/><polygon points="72.82 148.99 78 146 72.82 143.01 72.82 148.99" fill="#5286b8"/></g><g id="0d217f96-1259-43e6-a747-f8c8581acf0b" data-name="LINE"><line x1="37" y1="133.5" x2="13" y2="133.5" fill="none" stroke="red" stroke-miterlimit="10"/></g><g id="b6b2e657-3dd1-45b7-af38-0ee0d3a6a8e9" data-name="LINE"><line x1="24" y1="127.57" x2="24" y2="59.31" fill="none" stroke="#5286b8" stroke-miterlimit="10" stroke-width="2"/><polygon points="26.99 126.69 24 131.88 21.01 126.69 26.99 126.69" fill="#5286b8"/><polygon points="26.99 60.18 24 55 21.01 60.18 26.99 60.18" fill="#5286b8"/></g></g></svg>