<svg xmlns="http://www.w3.org/2000/svg" viewBox="0 0 157 157"><title>157x157</title><g id="08f1d753-d6f2-49a0-ab4c-aaa77720778d" data-name="Hole Shape"><path d="M87.5,54.5v20h-9v52.25l-18,12.75-18-12.75V74.5h-9v-20Z" fill="#c8c8c8" stroke="#979797" stroke-linejoin="bevel" stroke-width="3"/></g><g id="77fd577e-b92f-461a-b1d6-b65dcf719848" data-name="BreakHole"><line x1="78.5" y1="116" x2="78.5" y2="121" fill="none" stroke="#c8c8c8" stroke-miterlimit="10" stroke-width="3"/></g><g id="d73a8bbd-ad31-4466-b8c2-ffc5179aa6b8" data-name="Indicating Lines"><g id="04b242b1-5add-49b9-bf0e-0834e87e8c39" data-name="LINE"><line x1="83" y1="145.5" x2="157" y2="145.5" fill="none" stroke="#7c7c7c" stroke-miterlimit="10"/></g><g id="f953b865-81fd-427b-8434-f6599643e8f6" data-name="LINE"><line x1="103.66" y1="64.5" x2="157" y2="64.5" fill="none" stroke="#7c7c7c" stroke-miterlimit="10"/></g><g id="5b4daf89-e389-48b7-a798-aac0fd174c80" data-name="LINE"><line x1="92" y1="37.5" x2="157" y2="37.5" fill="none" stroke="#7c7c7c" stroke-miterlimit="10"/></g><polyline points="157 10.5 19.5 10.5 19.5 51" fill="none" stroke="#7c7c7c" stroke-miterlimit="10"/><g id="72b2dad3-2cf7-49c6-8e47-d62ed497400e" data-name="LINE"><polyline points="71.44 118.5 63.33 126.61 71.44 118.5 157 118.5" fill="none" stroke="#7c7c7c" stroke-miterlimit="10"/></g></g><g id="6fed3c1e-0a39-4a48-8455-235ccee15fdd" data-name="Dim Ends"><g id="3d6b6da8-dca3-4b5f-9dc2-cd6e89442b6e" data-name="SPLINE"><line x1="13" y1="53.5" x2="28" y2="53.5" fill="none" stroke="red" stroke-miterlimit="10"/></g><g id="e827b625-ce5c-4f6a-b048-ebcb7b063bf0" data-name="POLYLINE"><line x1="32.5" y1="49" x2="32.5" y2="32" fill="none" stroke="red" stroke-miterlimit="10"/></g><g id="c66588dc-ae0f-462c-93c3-79eeac69e613" data-name="POLYLINE"><line x1="88.5" y1="49" x2="88.5" y2="32" fill="none" stroke="red" stroke-miterlimit="10"/></g><g id="447841da-291e-4eaa-a33d-ac2b49facb41" data-name="SPLINE"><line x1="108" y1="76.5" x2="91" y2="76.5" fill="none" stroke="red" stroke-miterlimit="10"/></g><g id="7a50ac68-9e90-47f8-95f3-6557c5ca2448" data-name="SPLINE"><line x1="108" y1="53.5" x2="91" y2="53.5" fill="none" stroke="red" stroke-miterlimit="10"/></g><g id="d9e2cbdc-4699-468b-b926-2c03d94742d6" data-name="LINE"><line x1="37" y1="126.5" x2="13" y2="126.5" fill="none" stroke="red" stroke-miterlimit="10"/></g><g id="edb1591d-5cd0-4dd9-bc5c-63b5a4cbefe6" data-name="LINE"><line x1="79.5" y1="152" x2="79.5" y2="139" fill="none" stroke="red" stroke-miterlimit="10"/></g><g id="433a69af-4828-4d6b-b70b-9f1d965412b4" data-name="LINE"><line x1="41.5" y1="152" x2="41.5" y2="139" fill="none" stroke="red" stroke-miterlimit="10"/></g></g><g id="5adc7230-13ba-447f-a30c-954fbf9b6121" data-name="Dims"><g id="30819ebd-61c1-45a2-9a75-8cae44f4fc40" data-name="POLYLINE"><line x1="38.31" y1="37" x2="82.69" y2="37" fill="none" stroke="#5286b8" stroke-miterlimit="10" stroke-width="2"/><polygon points="39.18 39.99 34 37 39.18 34.01 39.18 39.99" fill="#5286b8"/><polygon points="81.82 39.99 87 37 81.82 34.01 81.82 39.99" fill="#5286b8"/></g><g id="295e01b9-ceda-4b48-9b58-52deadf90963" data-name="LINE"><line x1="100" y1="59.31" x2="100" y2="70.69" fill="none" stroke="#5286b8" stroke-miterlimit="10" stroke-width="2"/><polygon points="97.01 60.18 100 55 102.99 60.18 97.01 60.18" fill="#5286b8"/><polygon points="97.01 69.82 100 75 102.99 69.82 97.01 69.82" fill="#5286b8"/></g><g id="afc371bc-914e-4f9f-9571-5e3f83398a99" data-name="SPLINE"><line x1="47.31" y1="146" x2="73.69" y2="146" fill="none" stroke="#5286b8" stroke-miterlimit="10" stroke-width="2"/><polygon points="48.18 148.99 43 146 48.18 143.01 48.18 148.99" fill="#5286b8"/><polygon points="72.82 148.99 78 146 72.82 143.01 72.82 148.99" fill="#5286b8"/></g><g id="3577d6e8-a5cb-4164-b1c9-bd36f93f23d6" data-name="SPLINE"><path d="M52.83,128.84a12.47,12.47,0,0,1,7.67-2.4,12.46,12.46,0,0,1,7.68,2.4" fill="none" stroke="#5286b8" stroke-miterlimit="10" stroke-width="2"/><polygon points="55.63 130.44 49.84 131.95 51.43 126.18 55.63 130.44" fill="#5286b8"/><polygon points="65.37 130.44 71.16 131.95 69.57 126.18 65.37 130.44" fill="#5286b8"/></g><g id="7a617adb-fb58-43ac-a6fe-b0e97b926ee5" data-name="LINE"><line x1="20" y1="120.69" x2="20" y2="59.31" fill="none" stroke="#5286b8" stroke-miterlimit="10" stroke-width="2"/><polygon points="22.99 119.82 20 125 17.01 119.82 22.99 119.82" fill="#5286b8"/><polygon points="22.99 60.18 20 55 17.01 60.18 22.99 60.18" fill="#5286b8"/></g></g></svg>