<svg xmlns="http://www.w3.org/2000/svg" width="143.68" height="138.14" viewBox="0 0 143.68 138.14">
  <title>157x157_TT_angle_full</title>
  <path d="M759.11,656.56v-21l-10.74-51.25h53.48l-10.74,51.25v21l-16,11.13Z" transform="translate(-728.52 -530.78)" fill="#c8c8c8" stroke="#979797" stroke-linejoin="bevel" stroke-width="3"/>
  <g>
    <line x1="34.09" y1="60.53" x2="59.09" y2="60.53" fill="none" stroke="#a0a0a0" stroke-miterlimit="10" stroke-width="2"/>
    <line x1="38.09" y1="67.53" x2="56.09" y2="67.53" fill="none" stroke="#a0a0a0" stroke-miterlimit="10" stroke-width="2"/>
    <line x1="34.09" y1="74.53" x2="59.09" y2="74.53" fill="none" stroke="#a0a0a0" stroke-miterlimit="10" stroke-width="2"/>
    <line x1="38.09" y1="81.53" x2="56.09" y2="81.53" fill="none" stroke="#a0a0a0" stroke-miterlimit="10" stroke-width="2"/>
    <line x1="34.09" y1="88.53" x2="59.09" y2="88.53" fill="none" stroke="#a0a0a0" stroke-miterlimit="10" stroke-width="2"/>
    <line x1="38.09" y1="95.53" x2="56.09" y2="95.53" fill="none" stroke="#a0a0a0" stroke-miterlimit="10" stroke-width="2"/>
  </g>
  <line x1="89.75" y1="59.22" x2="143.59" y2="59.22" fill="none" stroke="#7c7c7c" stroke-miterlimit="10"/>
  <polyline points="143.59 9.72 8.59 9.72 8.59 49.72" fill="none" stroke="#7c7c7c" stroke-miterlimit="10"/>
  <line x1="1.38" y1="52.72" x2="16.38" y2="52.72" fill="none" stroke="red" stroke-miterlimit="10"/>
  <line x1="94.09" y1="106.05" x2="77.09" y2="106.05" fill="none" stroke="red" stroke-miterlimit="10"/>
  <line x1="94.09" y1="52.72" x2="77.09" y2="52.72" fill="none" stroke="red" stroke-miterlimit="10"/>
  <line x1="17.76" y1="125.72" y2="125.72" fill="none" stroke="red" stroke-miterlimit="10"/>
  <g>
    <line x1="85.59" y1="58.45" x2="85.59" y2="100.32" fill="none" stroke="#5286b8" stroke-miterlimit="10" stroke-width="2"/>
    <polygon points="82.6 59.27 85.59 54.39 88.58 59.27 82.6 59.27" fill="#5286b8"/>
    <polygon points="82.6 99.5 85.59 104.39 88.58 99.5 82.6 99.5" fill="#5286b8"/>
  </g>
  <g>
    <path d="M767.44,655.84a13.47,13.47,0,0,1,15.35,0" transform="translate(-728.52 -530.78)" fill="none" stroke="#5286b8" stroke-miterlimit="10" stroke-width="2"/>
    <polygon points="41.72 126.66 35.93 128.17 37.52 122.4 41.72 126.66" fill="#5286b8"/>
    <polygon points="51.46 126.66 57.25 128.17 55.66 122.4 51.46 126.66" fill="#5286b8"/>
  </g>
  <g>
    <line x1="8.88" y1="119.91" x2="8.88" y2="58.53" fill="none" stroke="#5286b8" stroke-miterlimit="10" stroke-width="2"/>
    <polygon points="11.87 119.04 8.88 124.22 5.89 119.04 11.87 119.04" fill="#5286b8"/>
    <polygon points="11.87 59.4 8.88 54.22 5.89 59.4 11.87 59.4" fill="#5286b8"/>
  </g>
  <line x1="57.03" y1="129.35" x2="52.92" y2="132.2" fill="none" stroke="#c8c8c8" stroke-miterlimit="10" stroke-width="3.5"/>
  <line x1="8.59" x2="143.59" fill="none"/>
  <path d="M782.21,660.13l4.39,4.45Z" transform="translate(-728.52 -530.78)" fill="none" stroke="#7c7c7c" stroke-miterlimit="10"/>
  <line x1="57.79" y1="133.48" x2="143.68" y2="133.48" fill="none" stroke="#7c7c7c" stroke-miterlimit="10"/>
</svg>
