<svg xmlns="http://www.w3.org/2000/svg" viewBox="0 0 157 157"><title>157x157</title><g id="0973ac1d-cd2a-4a4b-8896-5f9998c67200" data-name="Hole Shape"><path d="M87.5,54.5l-9,9v63.25l-18,12.75-18-12.75V63.5l-9-9Z" fill="#c8c8c8" stroke="#979797" stroke-linejoin="bevel" stroke-width="3"/></g><g id="58d8e4ff-d633-4e4d-9ceb-6e5a29a5cbe6" data-name="BreakHole"><polyline points="78.5 67 78.5 63.5 79.72 62.28" fill="none" stroke="#c8c8c8" stroke-miterlimit="10" stroke-width="3"/><line x1="78.5" y1="116" x2="78.5" y2="121" fill="none" stroke="#c8c8c8" stroke-miterlimit="10" stroke-width="3"/></g><g id="1685644a-0034-4023-8372-4248ffb3ee4a" data-name="Indicating Lines"><g id="650b6101-fb37-477f-9602-45a8a3ec463f" data-name="LINE"><line x1="83" y1="145.5" x2="157" y2="145.5" fill="none" stroke="#7c7c7c" stroke-miterlimit="10"/></g><g id="dcff73ff-f2d8-463d-b131-2e034a9381c0" data-name="LINE"><line x1="92" y1="37.5" x2="157" y2="37.5" fill="none" stroke="#7c7c7c" stroke-miterlimit="10"/></g><polyline points="157 10.5 19.5 10.5 19.5 51" fill="none" stroke="#7c7c7c" stroke-miterlimit="10"/><g id="0a24ab2a-e814-4dc3-810e-8234a0b0b72a" data-name="LINE"><polyline points="71.44 118.5 63.33 126.61 71.44 118.5 157 118.5" fill="none" stroke="#7c7c7c" stroke-miterlimit="10"/></g><g id="00234944-1902-4e91-9adb-307089970bf3" data-name="LINE"><polyline points="64.77 64.5 60.5 68.77 64.77 64.5 157 64.5" fill="none" stroke="#7c7c7c" stroke-miterlimit="10"/></g></g><g id="542abfe6-e4ee-43eb-91e1-7445d33cf595" data-name="Dim Ends"><g id="821808d7-c03b-4567-9a59-9b992fa517b9" data-name="SPLINE"><line x1="13" y1="53.5" x2="28" y2="53.5" fill="none" stroke="red" stroke-miterlimit="10"/></g><g id="97f5478d-6919-4337-bc2b-7b61f478ab63" data-name="POLYLINE"><line x1="32.5" y1="49" x2="32.5" y2="32" fill="none" stroke="red" stroke-miterlimit="10"/></g><g id="dc7bea89-deb5-4767-8639-2ffb3a7dd59f" data-name="POLYLINE"><line x1="88.5" y1="49" x2="88.5" y2="32" fill="none" stroke="red" stroke-miterlimit="10"/></g><g id="89edba44-7744-4fda-9602-3efc147a0e1a" data-name="LINE"><line x1="37" y1="126.5" x2="13" y2="126.5" fill="none" stroke="red" stroke-miterlimit="10"/></g><g id="ef2de84e-bc50-4ae1-b580-323c8b2ed5c4" data-name="LINE"><line x1="79.5" y1="152" x2="79.5" y2="139" fill="none" stroke="red" stroke-miterlimit="10"/></g><g id="d9774638-f3ee-467d-ad6c-7aea5f051014" data-name="LINE"><line x1="41.5" y1="152" x2="41.5" y2="139" fill="none" stroke="red" stroke-miterlimit="10"/></g><g id="45e4b72a-c292-49fb-8cb1-ec56a67563bf" data-name="LINE"><line x1="64.74" y1="76.26" x2="74.26" y2="66.74" fill="none" stroke="red" stroke-linecap="square" stroke-miterlimit="10" stroke-width="0.75"/></g><g id="c021a325-1883-486b-b3f2-a27c6f6108bb" data-name="LINE"><line x1="56.26" y1="76.26" x2="46.74" y2="66.74" fill="none" stroke="red" stroke-linecap="square" stroke-miterlimit="10" stroke-width="0.75"/></g></g><g id="62f29c7c-94fb-4165-b7ba-c52feee75918" data-name="Dims"><g id="e8e37493-0e27-4d32-b1ce-d7bea6777bef" data-name="POLYLINE"><line x1="38.31" y1="37" x2="82.69" y2="37" fill="none" stroke="#5286b8" stroke-miterlimit="10" stroke-width="2"/><polygon points="39.18 39.99 34 37 39.18 34.01 39.18 39.99" fill="#5286b8"/><polygon points="81.82 39.99 87 37 81.82 34.01 81.82 39.99" fill="#5286b8"/></g><g id="a03eb354-f13d-4a9a-bbf6-ef147cb138c1" data-name="SPLINE"><line x1="47.31" y1="146" x2="73.69" y2="146" fill="none" stroke="#5286b8" stroke-miterlimit="10" stroke-width="2"/><polygon points="48.18 148.99 43 146 48.18 143.01 48.18 148.99" fill="#5286b8"/><polygon points="72.82 148.99 78 146 72.82 143.01 72.82 148.99" fill="#5286b8"/></g><g id="e5b74934-83a8-41c0-8a74-4dc308f02f78" data-name="SPLINE"><path d="M52.83,128.84a12.47,12.47,0,0,1,7.67-2.4,12.47,12.47,0,0,1,7.68,2.4" fill="none" stroke="#5286b8" stroke-miterlimit="10" stroke-width="2"/><polygon points="55.63 130.44 49.84 131.95 51.43 126.18 55.63 130.44" fill="#5286b8"/><polygon points="65.37 130.44 71.16 131.95 69.57 126.18 65.37 130.44" fill="#5286b8"/></g><g id="24b413ed-8f69-4657-af17-b4fb6e9b8182" data-name="LINE"><line x1="20" y1="120.69" x2="20" y2="59.31" fill="none" stroke="#5286b8" stroke-miterlimit="10" stroke-width="2"/><polygon points="22.99 119.82 20 125 17.01 119.82 22.99 119.82" fill="#5286b8"/><polygon points="22.99 60.18 20 55 17.01 60.18 22.99 60.18" fill="#5286b8"/></g><g id="95b6e413-f0c3-4a45-89c0-619eee9a5c65" data-name="ARC"><path d="M66,70a12.76,12.76,0,0,0-11,0" fill="none" stroke="#5286b8" stroke-miterlimit="10" stroke-width="2"/><polygon points="66.86 67.13 69.5 72.5 63.53 72.11 66.86 67.13" fill="#5286b8"/><polygon points="54.15 67.13 51.5 72.5 57.47 72.11 54.15 67.13" fill="#5286b8"/></g></g></svg>