<svg xmlns="http://www.w3.org/2000/svg" viewBox="0 0 157 157"><title>157x157</title><g id="863c8c72-5a97-4e44-ac6a-4e7516f0166e" data-name="Hole Shape"><path d="M78.5,74.5v52.25l-18,12.75-18-12.75V54.5h36Z" fill="#c8c8c8" stroke="#979797" stroke-linejoin="bevel" stroke-width="3"/></g><g id="b9e951fd-d4b6-48a9-839b-afef30f539fc" data-name="BreakHole"><line x1="78.5" y1="116" x2="78.5" y2="121" fill="none" stroke="#c8c8c8" stroke-miterlimit="10" stroke-width="3"/></g><g id="c7d33639-940b-47b9-83eb-0a42e987e417" data-name="Indicating Lines"><g id="7f5b686d-fcab-4422-8f5a-8e1c4f26f04e" data-name="LINE"><line x1="83" y1="145.5" x2="157" y2="145.5" fill="none" stroke="#7c7c7c" stroke-miterlimit="10"/></g><polyline points="157 10.5 24.5 10.5 24.5 51" fill="none" stroke="#7c7c7c" stroke-miterlimit="10"/><g id="9118841b-825e-4505-8f2c-66148c25ca6d" data-name="LINE"><polyline points="71.44 118.5 63.33 126.61 71.44 118.5 157 118.5" fill="none" stroke="#7c7c7c" stroke-miterlimit="10"/></g></g><g id="8fbbba35-3bf2-43f7-832f-8db7dff77b40" data-name="Dim Ends"><g id="821d415e-3fea-4989-b91c-9fc39cfc79ad" data-name="SPLINE"><line x1="13" y1="53.5" x2="37" y2="53.5" fill="none" stroke="red" stroke-miterlimit="10"/></g><g id="fc6ac94b-32be-4bd0-b8d3-8f6699195183" data-name="LINE"><line x1="37" y1="126.5" x2="13" y2="126.5" fill="none" stroke="red" stroke-miterlimit="10"/></g><g id="e7bd39b2-93bd-4a87-b071-0bcfc6510031" data-name="LINE"><line x1="79.5" y1="152" x2="79.5" y2="139" fill="none" stroke="red" stroke-miterlimit="10"/></g><g id="b911f173-af62-41cb-b682-8281c0b1faa7" data-name="LINE"><line x1="41.5" y1="152" x2="41.5" y2="139" fill="none" stroke="red" stroke-miterlimit="10"/></g></g><g id="cc3402ce-dff5-46ac-ae26-f87f662feae7" data-name="Dims"><g id="f77ae7e6-a30b-4057-8fe5-19d166cc75e1" data-name="SPLINE"><line x1="47.31" y1="146" x2="73.69" y2="146" fill="none" stroke="#5286b8" stroke-miterlimit="10" stroke-width="2"/><polygon points="48.18 148.99 43 146 48.18 143.01 48.18 148.99" fill="#5286b8"/><polygon points="72.82 148.99 78 146 72.82 143.01 72.82 148.99" fill="#5286b8"/></g><g id="8fcf827c-a1ef-4271-b636-9f705c424353" data-name="SPLINE"><path d="M52.83,128.84a12.47,12.47,0,0,1,7.67-2.4,12.46,12.46,0,0,1,7.68,2.4" fill="none" stroke="#5286b8" stroke-miterlimit="10" stroke-width="2"/><polygon points="55.63 130.44 49.84 131.95 51.43 126.18 55.63 130.44" fill="#5286b8"/><polygon points="65.37 130.44 71.16 131.95 69.57 126.18 65.37 130.44" fill="#5286b8"/></g><g id="90b9f471-aa54-47cd-bf3e-307964d5de76" data-name="LINE"><line x1="24" y1="120.69" x2="24" y2="59.31" fill="none" stroke="#5286b8" stroke-miterlimit="10" stroke-width="2"/><polygon points="26.99 119.82 24 125 21.01 119.82 26.99 119.82" fill="#5286b8"/><polygon points="26.99 60.18 24 55 21.01 60.18 26.99 60.18" fill="#5286b8"/></g></g></svg>