<svg width="16" height="16" viewBox="0 0 16 16" fill="none" xmlns="http://www.w3.org/2000/svg">
<g clip-path="url(#clip0_14040_9544)">
<path d="M7 7.00001C10 4.97526 16 5.99996 16 5.99996C10 2.5 6 3 2 7.00001H7Z" fill="#89CBFA"/>
<path d="M7 12V7C10.5 3.5 16 5.99999 16 5.99999V9.99998C16 9.99998 10 6.5 7 12Z" fill="#67B1E6"/>
<path d="M13.5 12.5C13.5 12.5 9.69289 9.06338 7 12C10 6.5 16 9.99999 16 9.99999L13.5 12.5Z" fill="#4795CC"/>
<path fill-rule="evenodd" clip-rule="evenodd" d="M7 7C7.01755 6.98245 6.82192 7.05672 6.83957 7.03947C6.81475 7.04968 7.0033 6.96832 6.97874 6.97874C6.83957 7.03947 6.94558 6.99287 6.9291 7C6.59085 7.14637 6.27822 7.31222 6 7.5L2 7C2.31834 6.68165 2.63669 6.38548 2.95604 6.11172C6.64936 2.94574 10.4775 2.77854 16 5.99995V9.99998L13.5 12.5C13.5 12.5 10.5448 9.83234 8 11.2061C7.65643 11.3915 7.32034 11.6507 7.00002 12L7 7ZM7.00002 10.5478C7.34769 10.3386 7.90683 9.98526 9.02923 9.84676C9.9783 9.72964 10.8769 9.93204 11.6166 10.2146C12.3484 10.4941 12.973 10.8704 13.4126 11.1732L15 9.58577V6.58116C12.3208 5.09298 10.1814 4.53 8.33305 4.68403C6.95935 4.79851 5 5.5 3.5 7H5.5C5.5 7 6.18856 7.12817 6.5 7L6.64529 7.20025H6.83957L7.00002 10.5478Z" fill="black" fill-opacity="0.2"/>
<rect y="9" width="5" height="5" fill="#D9D9D9"/>
<path d="M5 9L7 7V12L5 14V9Z" fill="#BBBBBB"/>
<path d="M2 7H7L5 9H0L2 7Z" fill="#F3F3F3"/>
<path fill-rule="evenodd" clip-rule="evenodd" d="M7 7V12L5 14H0V9L2 7H7ZM1 9.41421V13H4.58579L6 11.5858V8H2.41421L1 9.41421Z" fill="#666666"/>
<path fill-rule="evenodd" clip-rule="evenodd" d="M15.9576 6.08801C15.8737 6.03988 15.7838 5.98983 15.6885 5.93855C15.0312 5.58511 14.1012 5.16761 13.0208 4.92267C10.9662 4.4569 8.35775 4.62081 6.10742 6.99942H6.95762V7.55898C8.88065 5.61771 11.0392 5.49882 12.7997 5.89792C13.7666 6.11713 14.6103 6.4942 15.2149 6.81929C15.5161 6.98129 15.7554 7.12896 15.9178 7.23505C15.9317 7.24408 15.9449 7.2528 15.9576 7.2612V6.08801Z" fill="#CC2929"/>
</g>
<defs>
<clipPath id="clip0_14040_9544">
<rect width="16" height="16" fill="white"/>
</clipPath>
</defs>
</svg>
