<svg width="16" height="16" viewBox="0 0 16 16" fill="none" xmlns="http://www.w3.org/2000/svg">
<g clip-path="url(#clip0_14040_9547)">
<path d="M13.9 16L13 15.5C14.4 13.1 15.4 9.99999 14.8 9.39999C14.3 8.99999 11.9 10.1 10.5 10.8C8.09995 11.9 6.79995 12.5 6.09995 11.9C5.29995 11.1 6.09995 9.59999 6.89995 7.89999C7.39995 6.89999 8.09995 5.49999 7.89995 5.09999C7.69995 4.29999 5.79995 5.19999 4.59995 5.69999C3.29995 6.29999 2.59995 6.59999 2.09995 6.19999C1.79995 5.89999 1.79995 5.59999 1.99995 5.09999C3.39995 1.69999 2.79995 1.29999 2.79995 1.19999C2.59995 0.999991 1.59995 1.49999 0.799951 2.09999L0.199951 1.39999C0.699951 0.999991 2.39995 -0.300009 3.39995 0.399991C4.19995 0.999991 4.09995 2.49999 2.99995 5.29999C3.29995 5.19999 3.79995 4.99999 4.19995 4.79999C5.99995 3.99999 8.19995 2.99999 8.89995 4.49999C9.29995 5.39999 8.59995 6.69999 7.89995 8.19999C7.49995 8.99999 6.59995 10.8 6.89995 11.1C7.29995 11.2 9.09995 10.4 10.2 9.89999C12.5 8.79999 14.7 7.79999 15.6 8.69999C17 10.2 14.4 15.1 13.9 16Z" fill="#999999"/>
<path fill-rule="evenodd" clip-rule="evenodd" d="M15.1465 15.8536L0.146484 0.853561L0.853591 0.146454L15.8536 15.1465L15.1465 15.8536Z" fill="#178FE6"/>
</g>
<defs>
<clipPath id="clip0_14040_9547">
<rect width="16" height="16" fill="white"/>
</clipPath>
</defs>
</svg>
