<svg width="16" height="16" viewBox="0 0 16 16" fill="none" xmlns="http://www.w3.org/2000/svg">
<g clip-path="url(#clip0_75_32)">
<path d="M13.9 16L13 15.5C14.4 13.1 15.4 10 14.8 9.40001C14.3 9.00001 11.9 10.1 10.5 10.8C8.1 11.9 6.8 12.5 6.1 11.9C5.3 11.1 6.1 9.60001 6.9 7.90001C7.4 6.90001 8.1 5.50001 7.9 5.10001C7.7 4.30001 5.8 5.20001 4.6 5.70001C3.4 6.20001 2.6 6.60001 2.1 6.20001C1.8 5.90001 1.8 5.60001 2 5.10001C3.4 1.70001 2.8 1.30001 2.8 1.20001C2.6 1.00001 1.6 1.50001 0.799997 2.10001L0.199997 1.40001C0.699997 1.00001 2.4 -0.299994 3.4 0.400006C4.2 1.00001 4.1 2.50001 3 5.30001C3.41002 5.1585 3.8108 4.99151 4.2 4.80001C6 4.00001 8.2 3.00001 8.9 4.50001C9.3 5.40001 8.6 6.70001 7.9 8.20001C7.5 9.00001 6.6 10.8 6.9 11.1C8.05176 10.86 9.1631 10.4559 10.2 9.90001C12.5 8.80001 14.7 7.80001 15.6 8.70001C17 10.2 14.4 15.1 13.9 16Z" fill="#D9D9D9"/>
<path d="M0.854858 0.144044L0.147751 0.851151L15.1455 15.8489L15.8526 15.1418L0.854858 0.144044Z" fill="#73C5FF"/>
</g>
<defs>
<clipPath id="clip0_75_32">
<rect width="16" height="16" fill="white"/>
</clipPath>
</defs>
</svg>
