<svg width="16" height="16" viewBox="0 0 16 16" fill="none" xmlns="http://www.w3.org/2000/svg">
<path d="M13 3H0L3 0H16L13 3Z" fill="#F3F3F3"/>
<path d="M16 13L13 16V3L16 0V13Z" fill="#BBBBBB"/>
<path d="M4 9.00005C4 10.6601 5.34 12.0001 7 12.0001C8.31 12.0001 9.41001 11.1501 9.82001 9.98005C7.76001 9.89005 6.10999 8.24005 6.01999 6.18005C4.84999 6.59005 4 7.69005 4 9.00005Z" fill="#67B1E6"/>
<path opacity="0.2" d="M6.01999 6.18005C4.84999 6.59005 4 7.69005 4 9.00005C4 10.6601 5.34 12.0001 7 12.0001C8.31 12.0001 9.41001 11.1501 9.82001 9.98005C7.76001 9.89005 6.10999 8.24005 6.01999 6.18005ZM7 11.0001C5.9 11.0001 5 10.1001 5 9.00005C5 8.58005 5.13 8.18005 5.37 7.86005C5.87 9.13005 6.87999 10.1301 8.14999 10.6401C7.81999 10.8701 7.42 11.0001 7 11.0001Z" fill="black"/>
<path d="M0 3V16H13V3H0ZM7 13C4.79 13 3 11.21 3 9C3 6.79 4.79 5 7 5C9.21 5 11 6.79 11 9C11 11.21 9.21 13 7 13Z" fill="#D9D9D9"/>
<path d="M3 0L0 3V16H13L16 13V0H3ZM15 12.59L12.59 15H1V3.41L3.41 1H15V12.59Z" fill="#666666"/>
<path d="M7 4C4.24 4 2 6.24 2 9C2 11.76 4.24 14 7 14C9.76 14 12 11.76 12 9C12 6.24 9.76 4 7 4ZM7 13C4.79 13 3 11.21 3 9C3 6.79 4.79 5 7 5C9.21 5 11 6.79 11 9C11 11.21 9.21 13 7 13Z" fill="#666666"/>
</svg>
