<svg width="16" height="16" viewBox="0 0 16 16" fill="none" xmlns="http://www.w3.org/2000/svg">
<path d="M13 3H0L3 0H16L13 3Z" fill="#F3F3F3"/>
<path d="M16 13L13 16V3L16 0V13Z" fill="#BBBBBB"/>
<path d="M0 3V16H13V3H0ZM6.5 14C4.01 14 2 11.99 2 9.5C2 7.01 4.01 5 6.5 5C8.99 5 11 7.01 11 9.5C11 11.99 8.99 14 6.5 14Z" fill="#D9D9D9"/>
<path d="M9.5 10C7.57 10 6 8.43005 6 6.50005C6 6.34005 6.02999 6.20005 6.04999 6.05005C4.32999 6.27005 3 7.73005 3 9.50005C3 11.43 4.57 13 6.5 13C8.28 13 9.73001 11.6701 9.95001 9.95005C9.80001 9.97005 9.66 10 9.5 10Z" fill="#89CBFA"/>
</svg>
