<svg width="32" height="32" viewBox="0 0 32 32" fill="none" xmlns="http://www.w3.org/2000/svg">
<path d="M26 6H0L6 0H32L26 6Z" fill="#F3F3F3"/>
<path d="M32 26L26 32V6L32 0V26Z" fill="#BBBBBB"/>
<path d="M0 6V32H26V6H0ZM13 28C8.03 28 4 23.97 4 19C4 14.03 8.03 10 13 10C17.97 10 22 14.03 22 19C22 23.97 17.97 28 13 28Z" fill="#D9D9D9"/>
<path d="M19 20C14.58 20 11 16.42 11 12C11 11.75 11.01 11.5 11.04 11.25C7.57001 12.13 5 15.26 5 19C5 23.42 8.58 27 13 27C17.17 27 20.58 23.81 20.96 19.75C20.33 19.91 19.68 20 19 20Z" fill="#89CBFA"/>
</svg>
