<svg width="32" height="32" viewBox="0 0 32 32" fill="none" xmlns="http://www.w3.org/2000/svg">
<path d="M0 6V32H26V6H0ZM13.5 27C8.81 27 5 23.19 5 18.5C5 13.81 8.81 10 13.5 10C18.19 10 22 13.81 22 18.5C22 23.19 18.19 27 13.5 27Z" fill="#D9D9D9"/>
<path d="M26 6H0L6 0H32L26 6Z" fill="#F3F3F3"/>
<path d="M32 26L26 32V6L32 0V26Z" fill="#BBBBBB"/>
<path d="M6 0L0 6V32H26L32 26V0H6ZM31 25.59L25.59 31H1V6.41L6.41 1H31V25.59Z" fill="#666666"/>
<path d="M18.5 19.0001C14.91 19.0001 12 16.0901 12 12.5001C12 12.3901 12.01 12.2801 12.02 12.1801C9.14999 12.8501 7 15.4201 7 18.5001C7 22.0901 9.91 25.0001 13.5 25.0001C16.98 25.0001 19.81 22.2601 19.98 18.8201C19.51 18.9301 19.01 19.0001 18.5 19.0001Z" fill="#67B1E6"/>
<path opacity="0.2" d="M18.5 19.0001C14.91 19.0001 12 16.0901 12 12.5001C12 12.3901 12.01 12.2801 12.02 12.1801C9.14999 12.8501 7 15.4201 7 18.5001C7 22.0901 9.91 25.0001 13.5 25.0001C16.98 25.0001 19.81 22.2601 19.98 18.8201C19.51 18.9301 19.01 19.0001 18.5 19.0001ZM13.5 24.0001C10.47 24.0001 8 21.5301 8 18.5001C8 16.3601 9.21999 14.4701 11.08 13.5701C11.6 17.2001 14.73 20.0001 18.5 20.0001C18.6 20.0001 18.69 20.0001 18.79 19.9901C18.14 22.3201 16.01 24.0001 13.5 24.0001Z" fill="black"/>
<path d="M13.5 10C8.81 10 5 13.81 5 18.5C5 23.19 8.81 27 13.5 27C18.19 27 22 23.19 22 18.5C22 13.81 18.19 10 13.5 10ZM13.5 26C9.36 26 6 22.64 6 18.5C6 14.36 9.36 11 13.5 11C17.64 11 21 14.36 21 18.5C21 22.64 17.64 26 13.5 26Z" fill="#666666"/>
</svg>
