<?xml version="1.0" encoding="UTF-8" standalone="yes"?>
<svg xmlns="http://www.w3.org/2000/svg" xmlns:xlink="http://www.w3.org/1999/xlink" width="64" height="64" viewBox="0 0 64 64" version="1.1">
  <defs>
    <filter id="alpha" filterUnits="objectBoundingBox" x="0%" y="0%" width="100%" height="100%">
      <feColorMatrix type="matrix" in="SourceGraphic" values="0 0 0 0 1 0 0 0 0 1 0 0 0 0 1 0 0 0 1 0"/>
    </filter>
    <mask id="mask0">
      <g filter="url(#alpha)">
        <rect x="0" y="0" width="64" height="64" style="fill:rgb(0%,0%,0%);fill-opacity:0.2;stroke:none;"/>
      </g>
    </mask>
    <clipPath id="clip1">
      <rect x="0" y="0" width="64" height="64"/>
    </clipPath>
    <g id="surface5" clip-path="url(#clip1)">
      <path style=" stroke:none;fill-rule:nonzero;fill:rgb(0%,0%,0%);fill-opacity:1;" d="M 37 38 C 29.820312 38 24 32.179688 24 25 C 24 24.78125 24.019531 24.558594 24.039062 24.359375 C 18.300781 25.699219 14 30.839844 14 37 C 14 44.179688 19.820312 50 27 50 C 33.960938 50 39.621094 44.519531 39.960938 37.640625 C 39.019531 37.859375 38.019531 38 37 38 Z M 27 48 C 20.941406 48 16 43.058594 16 37 C 16 32.71875 18.441406 28.941406 22.160156 27.140625 C 23.199219 34.398438 29.460938 40 37 40 C 37.199219 40 37.378906 40 37.578125 39.980469 C 36.28125 44.640625 32.019531 48 27 48 Z M 27 48 "/>
    </g>
  </defs>
  <g id="surface1">
    <path style=" stroke:none;fill-rule:nonzero;fill:rgb(85.09804%,85.09804%,85.09804%);fill-opacity:1;" d="M 0 12 L 0 64 L 52 64 L 52 12 Z M 27 54 C 17.621094 54 10 46.378906 10 37 C 10 27.621094 17.621094 20 27 20 C 36.378906 20 44 27.621094 44 37 C 44 46.378906 36.378906 54 27 54 Z M 27 54 "/>
    <path style=" stroke:none;fill-rule:nonzero;fill:rgb(95.294118%,95.294118%,95.294118%);fill-opacity:1;" d="M 52 12 L 0 12 L 12 0 L 64 0 Z M 52 12 "/>
    <path style=" stroke:none;fill-rule:nonzero;fill:rgb(73.333335%,73.333335%,73.333335%);fill-opacity:1;" d="M 64 52 L 52 64 L 52 12 L 64 0 Z M 64 52 "/>
    <path style=" stroke:none;fill-rule:nonzero;fill:rgb(40.000001%,40.000001%,40.000001%);fill-opacity:1;" d="M 12 0 L 0 12 L 0 64 L 52 64 L 64 52 L 64 0 Z M 62 51.179688 L 51.179688 62 L 2 62 L 2 12.820312 L 12.820312 2 L 62 2 Z M 62 51.179688 "/>
    <path style=" stroke:none;fill-rule:nonzero;fill:rgb(40.392157%,69.411767%,90.196079%);fill-opacity:1;" d="M 37 38 C 29.820312 38 24 32.179688 24 25 C 24 24.78125 24.019531 24.558594 24.039062 24.359375 C 18.300781 25.699219 14 30.839844 14 37 C 14 44.179688 19.820312 50 27 50 C 33.960938 50 39.621094 44.519531 39.960938 37.640625 C 39.019531 37.859375 38.019531 38 37 38 Z M 37 38 "/>
    <path style=" stroke:none;fill-rule:nonzero;fill:rgb(40.000001%,40.000001%,40.000001%);fill-opacity:1;" d="M 27 20 C 17.621094 20 10 27.621094 10 37 C 10 46.378906 17.621094 54 27 54 C 36.378906 54 44 46.378906 44 37 C 44 27.621094 36.378906 20 27 20 Z M 27 52 C 18.71875 52 12 45.28125 12 37 C 12 28.71875 18.71875 22 27 22 C 35.28125 22 42 28.71875 42 37 C 42 45.28125 35.28125 52 27 52 Z M 27 52 "/>
    <use xlink:href="#surface5" mask="url(#mask0)"/>
  </g>
</svg>