<svg width="16" height="16" viewBox="0 0 16 16" fill="none" xmlns="http://www.w3.org/2000/svg">
<path fill-rule="evenodd" clip-rule="evenodd" d="M12.79 6H15V9H12.79C12.6745 9.41153 12.51 9.8077 12.3 10.18L13.86 11.74L11.74 13.86L10.18 12.3C9.8077 12.51 9.41153 12.6745 9 12.79V15H6V12.79C5.58847 12.6745 5.19231 12.51 4.82 12.3L3.26 13.86L1.14 11.74L2.7 10.18C2.49003 9.8077 2.32552 9.41153 2.21 9H0V6H2.21C2.32552 5.58847 2.49003 5.19231 2.7 4.82L1.14 3.26L3.26 1.14L4.82 2.7C5.19231 2.49003 5.58847 2.32552 6 2.21V0H9V2.21C9.41153 2.32552 9.8077 2.49003 10.18 2.7L11.74 1.14L13.86 3.26L12.3 4.82C12.51 5.19231 12.6745 5.58847 12.79 6ZM7.50676 9.95996C8.8738 9.9673 9.98896 8.86701 9.99999 7.5C10 6.12706 8.89288 5.01098 7.51999 5C6.15294 5.00004 5.04372 6.10634 5.04008 7.47339C5.03643 8.84044 6.13973 9.95263 7.50676 9.95996Z" fill="#808080"/>
</svg>
